{
.appVersion = "1064";
classes = (
{
automatic = 1;

glyphs = (
{
glyphname = A;
lastChange = "2017-10-07 18:01:07 +0000";
layers = (
{
anchors = (
{
name = bottom;
position = "{348, 0}";
},
{
name = ogonek;
position = "{634, 10}";
},
{
name = top;
position = "{348, 694}";
}
);
layerId = "F333AEC5-BB61-4D5E-9EDD-6124322D28F2";
paths = (
{
closed = 1;
nodes = (
"128 0 LINE",
"355 636 LINE",
"346 636 LINE",
"560 0 LINE",
"653 0 LINE",
"409 694 LINE",
"301 694 LINE",
"41 0 LINE"
);
},
{
closed = 1;
nodes = (
"519 206 LINE",
"519 278 LINE",
"172 278 LINE",
"172 206 LINE"
);
}
);
width = 694;
},
{
anchors = (
{
name = bottom;
position = "{371, 0}";
},
{
name = ogonek;
position = "{666, 10}";
},
{
name = top;
position = "{371, 694}";
}
);
layerId = "51C2DFEF-3776-4D13-9284-96485B799B57";
paths = (
{
closed = 1;
nodes = (
"196 0 LINE",
"401 590 LINE",
"331 590 LINE",
"544 0 LINE",
"727 0 LINE",
"463 694 LINE",
"279 694 LINE",
"15 0 LINE"
);
},
{
closed = 1;
nodes = (
"534 141 LINE",
"500 297 LINE",
"240 297 LINE",
"206 141 LINE"
);
}
);
width = 742;
},
{
anchors = (
{
name = bottom;
position = "{333, 0}";
},
{
name = ogonek;
position = "{592, 10}";
},
{
name = top;
position = "{336, 694}";
}
);
layerId = "0B2E441B-685E-400D-9B9B-E078DEED62EF";
paths = (
{
closed = 1;
nodes = (
"81 0 LINE",
"336 676 LINE",
"332 676 LINE",
"570 0 LINE",
"594 0 LINE",
"347 694 LINE",
"324 694 LINE",
"59 0 LINE"
);
},
{
closed = 1;
nodes = (
"496 243 LINE",
"490 262 LINE",
"170 262 LINE",
"165 243 LINE"
);
}
);
width = 654;
}
);
note = A;
unicode = 0041;
},
{
glyphname = B;
lastChange = "2017-10-07 18:01:06 +0000";
layers = (
{
anchors = (
{
name = bottom;
position = "{331, 0}";
},
{
name = top;
position = "{331, 694}";
}
);
layerId = "F333AEC5-BB61-4D5E-9EDD-6124322D28F2";
paths = (
{
closed = 1;
nodes = (
"351 0 LINE SMOOTH",
"511 0 OFFCURVE",
"605 74 OFFCURVE",
"605 201 CURVE SMOOTH",
"605 322 OFFCURVE",
"520 396 OFFCURVE",
"384 396 CURVE SMOOTH",
"158 396 LINE",
"158 327 LINE",
"375 327 LINE SMOOTH",
"469 327 OFFCURVE",
"520 278 OFFCURVE",
"520 190 CURVE SMOOTH",
"520 106 OFFCURVE",
"473 71 OFFCURVE",
"361 71 CURVE SMOOTH",
"192 71 LINE",
"192 623 LINE",
"310 623 LINE SMOOTH",
"416 623 OFFCURVE",
"468 584 OFFCURVE",
"468 505 CURVE SMOOTH",
"468 444 OFFCURVE",
"434 409 OFFCURVE",
"342 375 CURVE",
"462 375 LINE",
"518 399 OFFCURVE",
"553 457 OFFCURVE",
"553 524 CURVE SMOOTH",
"553 631 OFFCURVE",
"466 694 OFFCURVE",
"320 694 CURVE SMOOTH",
"109 694 LINE",
"109 0 LINE"
);
}
);
width = 666;
},
{
anchors = (
{
name = bottom;
position = "{338, 0}";
},
{
name = top;
position = "{338, 681}";
}
);
layerId = "51C2DFEF-3776-4D13-9284-96485B799B57";
paths = (
{
closed = 1;
nodes = (
"368 0 LINE SMOOTH",
"544 0 OFFCURVE",
"648 81 OFFCURVE",
"648 218 CURVE SMOOTH",
"648 344 OFFCURVE",
"560 418 OFFCURVE",
"410 418 CURVE SMOOTH",
"198 418 LINE",
"198 283 LINE",
"372 283 LINE SMOOTH",
"426 283 OFFCURVE",
"468 249 OFFCURVE",
"468 206 CURVE SMOOTH",
"468 163 OFFCURVE",
"431 136 OFFCURVE",
"372 136 CURVE SMOOTH",
"255 136 LINE",
"255 558 LINE",
"335 558 LINE SMOOTH",
"391 558 OFFCURVE",
"423 532 OFFCURVE",
"423 488 CURVE SMOOTH",
"423 453 OFFCURVE",
"402 422 OFFCURVE",
"364 401 CURVE",
"506 371 LINE",
"568 423 OFFCURVE",
"597 474 OFFCURVE",
"597 531 CURVE SMOOTH",
"597 634 OFFCURVE",
"501 694 OFFCURVE",
"335 694 CURVE SMOOTH",
"85 694 LINE",
"85 0 LINE"
);
}
);
width = 684;
},
{
anchors = (
{
name = bottom;
position = "{288, 0}";
},
{
name = top;
position = "{288, 694}";
}
);
layerId = "0B2E441B-685E-400D-9B9B-E078DEED62EF";
paths = (
{
closed = 1;
nodes = (
"335 0 LINE SMOOTH",
"485 0 OFFCURVE",
"574 66 OFFCURVE",
"574 187 CURVE SMOOTH",
"574 298 OFFCURVE",
"496 371 OFFCURVE",
"369 371 CURVE SMOOTH",
"142 371 LINE",
"142 354 LINE",
"359 354 LINE SMOOTH",
"480 354 OFFCURVE",
"553 288 OFFCURVE",
"553 184 CURVE SMOOTH",
"553 77 OFFCURVE",
"475 18 OFFCURVE",
"346 18 CURVE SMOOTH",
"148 18 LINE",
"148 676 LINE",
"308 676 LINE SMOOTH",
"436 676 OFFCURVE",
"512 622 OFFCURVE",
"512 525 CURVE SMOOTH",
"512 441 OFFCURVE",
"455 383 OFFCURVE",
"381 367 CURVE",
"407 363 LINE",
"471 372 OFFCURVE",
"533 438 OFFCURVE",
"533 529 CURVE SMOOTH",
"533 635 OFFCURVE",
"449 694 OFFCURVE",
"308 694 CURVE SMOOTH",
"128 694 LINE",
"128 0 LINE"
);
}
);
width = 656;
},
{
anchors = (
{
name = bottom;
position = "{296, 0}";
},
{
name = top;
position = "{296, 694}";
}
);
associatedMasterId = "0B2E441B-685E-400D-9B9B-E078DEED62EF";
layerId = "02F76483-B2BE-466D-9D0F-F50903A7EF04";
name = "Sep 26 17, 20:18";
paths = (
{
closed = 1;
nodes = (
"343 0 LINE SMOOTH",
"502 0 OFFCURVE",
"582 69 OFFCURVE",
"582 187 CURVE SMOOTH",
"582 304 OFFCURVE",
"501 371 OFFCURVE",
"377 371 CURVE SMOOTH",
"150 371 LINE",
"150 353 LINE",
"367 353 LINE SMOOTH",
"487 353 OFFCURVE",
"560 294 OFFCURVE",
"560 185 CURVE SMOOTH",
"560 75 OFFCURVE",
"486 18 OFFCURVE",
"354 18 CURVE SMOOTH",
"156 18 LINE",
"156 676 LINE",
"316 676 LINE SMOOTH",
"442 676 OFFCURVE",
"519 621 OFFCURVE",
"519 522 CURVE SMOOTH",
"519 447 OFFCURVE",
"473 385 OFFCURVE",
"359 367 CURVE",
"385 360 LINE",
"479 369 OFFCURVE",
"541 437 OFFCURVE",
"541 526 CURVE SMOOTH",
"541 633 OFFCURVE",
"454 694 OFFCURVE",
"316 694 CURVE SMOOTH",
"136 694 LINE",
"136 0 LINE"
);
}
);
width = 672;
}
);
note = B;
unicode = 0042;
},
{
glyphname = C;
lastChange = "2017-10-08 09:03:06 +0000";
layers = (
{
anchors = (
{
name = bottom;
position = "{380, 0}";
},
{
name = top;
position = "{380, 694}";
}
);
layerId = "F333AEC5-BB61-4D5E-9EDD-6124322D28F2";
paths = (
{
closed = 1;
nodes = (
"476 -10 OFFCURVE",
"546 5 OFFCURVE",
"612 34 CURVE",
"593 95 LINE",
"540 74 OFFCURVE",
"478 63 OFFCURVE",
"428 63 CURVE SMOOTH",
"263 63 OFFCURVE",
"152 183 OFFCURVE",
"152 358 CURVE SMOOTH",
"152 526 OFFCURVE",
"254 630 OFFCURVE",
"420 630 CURVE SMOOTH",
"477 630 OFFCURVE",
"540 618 OFFCURVE",
"592 597 CURVE",
"616 662 LINE",
"566 687 OFFCURVE",
"494 703 OFFCURVE",
"425 703 CURVE SMOOTH",
"213 703 OFFCURVE",
"67 554 OFFCURVE",
"67 339 CURVE SMOOTH",
"67 130 OFFCURVE",
"205 -10 OFFCURVE",
"409 -10 CURVE SMOOTH"
);
}
);
width = 667;
},
{
anchors = (
{
name = bottom;
position = "{310, 0}";
},
{
name = top;
position = "{310, 677}";
}
);
layerId = "51C2DFEF-3776-4D13-9284-96485B799B57";
paths = (
{
closed = 1;
nodes = (
"471 -10 OFFCURVE",
"548 4 OFFCURVE",
"609 30 CURVE",
"572 165 LINE",
"531 150 OFFCURVE",
"474 140 OFFCURVE",
"432 140 CURVE SMOOTH",
"308 140 OFFCURVE",
"222 227 OFFCURVE",
"222 355 CURVE SMOOTH",
"222 477 OFFCURVE",
"299 554 OFFCURVE",
"424 554 CURVE SMOOTH",
"470 554 OFFCURVE",
"521 544 OFFCURVE",
"578 523 CURVE",
"615 664 LINE",
"554 691 OFFCURVE",
"495 704 OFFCURVE",
"426 704 CURVE SMOOTH",
"196 704 OFFCURVE",
"42 560 OFFCURVE",
"42 339 CURVE SMOOTH",
"42 129 OFFCURVE",
"180 -10 OFFCURVE",
"401 -10 CURVE SMOOTH"
);
}
);
width = 650;
},
{
anchors = (
{
name = bottom;
position = "{369, 0}";
},
{
name = top;
position = "{369, 694}";
}
);
layerId = "0B2E441B-685E-400D-9B9B-E078DEED62EF";
paths = (
{
closed = 1;
nodes = (
"470 -10 OFFCURVE",
"534 6 OFFCURVE",
"597 35 CURVE",
"590 50 LINE",
"529 23 OFFCURVE",
"468 9 OFFCURVE",
"410 9 CURVE SMOOTH",
"231 9 OFFCURVE",
"110 144 OFFCURVE",
"110 348 CURVE SMOOTH",
"110 549 OFFCURVE",
"233 683 OFFCURVE",
"418 683 CURVE SMOOTH",
"475 683 OFFCURVE",
"536 670 OFFCURVE",
"593 644 CURVE",
"600 660 LINE",
"545 688 OFFCURVE",
"484 702 OFFCURVE",
"421 702 CURVE SMOOTH",
"221 702 OFFCURVE",
"88 556 OFFCURVE",
"88 338 CURVE SMOOTH",
"88 129 OFFCURVE",
"216 -10 OFFCURVE",
"406 -10 CURVE SMOOTH"
);
}
);
width = 668;
}
);
note = C;
unicode = 0043;
},
{
glyphname = D;
lastChange = "2017-10-07 18:01:07 +0000";
layers = (
{
anchors = (
{
name = bottom;
position = "{339, 0}";
},
{
name = center;
position = "{176, 347}";
},
{
name = top;
position = "{339, 694}";
}
);
layerId = "F333AEC5-BB61-4D5E-9EDD-6124322D28F2";
paths = (
{
closed = 1;
nodes = (
"321 0 LINE SMOOTH",
"550 0 OFFCURVE",
"673 153 OFFCURVE",
"673 356 CURVE SMOOTH",
"673 570 OFFCURVE",
"535 694 OFFCURVE",
"336 694 CURVE SMOOTH",
"109 694 LINE",
"109 0 LINE"
);
},
{
closed = 1;
nodes = (
"192 622 LINE",
"326 622 LINE SMOOTH",
"504 622 OFFCURVE",
"590 513 OFFCURVE",
"590 347 CURVE SMOOTH",
"590 184 OFFCURVE",
"507 72 OFFCURVE",
"331 72 CURVE SMOOTH",
"192 72 LINE"
);
}
);
width = 741;
},
{
anchors = (
{
name = bottom;
position = "{371, 0}";
},
{
name = center;
position = "{193, 329}";
},
{
name = top;
position = "{347, 693}";
}
);
layerId = "51C2DFEF-3776-4D13-9284-96485B799B57";
paths = (
{
closed = 1;
nodes = (
"328 0 LINE SMOOTH",
"571 0 OFFCURVE",
"712 146 OFFCURVE",
"712 356 CURVE SMOOTH",
"712 563 OFFCURVE",
"573 694 OFFCURVE",
"337 694 CURVE SMOOTH",
"85 694 LINE",
"85 0 LINE"
);
},
{
closed = 1;
nodes = (
"255 545 LINE",
"329 545 LINE SMOOTH",
"464 545 OFFCURVE",
"532 465 OFFCURVE",
"532 346 CURVE SMOOTH",
"532 228 OFFCURVE",
"466 149 OFFCURVE",
"335 149 CURVE SMOOTH",
"255 149 LINE"
);
}
);
width = 753;
},
{
anchors = (
{
name = bottom;
position = "{358, 0}";
},
{
name = center;
position = "{191, 364}";
},
{
name = top;
position = "{348, 688}";
}
);
layerId = "0B2E441B-685E-400D-9B9B-E078DEED62EF";
paths = (
{
closed = 1;
nodes = (
"291 0 LINE SMOOTH",
"528 0 OFFCURVE",
"639 142 OFFCURVE",
"639 351 CURVE SMOOTH",
"639 558 OFFCURVE",
"530 694 OFFCURVE",
"297 694 CURVE SMOOTH",
"128 694 LINE",
"128 0 LINE"
);
},
{
closed = 1;
nodes = (
"150 676 LINE",
"291 676 LINE SMOOTH",
"514 676 OFFCURVE",
"617 545 OFFCURVE",
"617 348 CURVE SMOOTH",
"617 153 OFFCURVE",
"517 18 OFFCURVE",
"297 18 CURVE SMOOTH",
"150 18 LINE"
);
}
);
width = 727;
}
);
note = D;
unicode = 0044;
},
{
glyphname = E;
lastChange = "2017-10-07 18:01:07 +0000";
layers = (
{
anchors = (
{
name = "#entry";
position = "{149, 291}";
},
{
name = bottom;
position = "{318, 0}";
},
{
name = ogonek;
position = "{527, 10}";
},
{
name = top;
position = "{338, 694}";
},
{
name = topleft;
position = "{20, 694}";
}
);
layerId = "F333AEC5-BB61-4D5E-9EDD-6124322D28F2";
paths = (
{
closed = 1;
nodes = (
"192 0 LINE",
"192 694 LINE",
"109 694 LINE",
"109 0 LINE"
);
},
{
closed = 1;
nodes = (
"545 0 LINE",
"545 72 LINE",
"149 72 LINE",
"149 0 LINE"
);
},
{
closed = 1;
nodes = (
"518 323 LINE",
"518 395 LINE",
"149 395 LINE",
"149 323 LINE"
);
},
{
closed = 1;
nodes = (
"545 622 LINE",
"545 694 LINE",
"149 694 LINE",
"149 622 LINE"
);
}
);
width = 608;
},
{
anchors = (
{
name = "#entry";
position = "{165, 291}";
},
{
name = bottom;
position = "{338, 0}";
},
{
name = ogonek;
position = "{553, 10}";
},
{
name = top;
position = "{359, 694}";
},
{
name = topleft;
position = "{33, 694}";
}
);
layerId = "51C2DFEF-3776-4D13-9284-96485B799B57";
paths = (
{
closed = 1;
nodes = (
"258 0 LINE",
"258 694 LINE",
"85 694 LINE",
"85 0 LINE"
);
},
{
closed = 1;
nodes = (
"571 0 LINE",
"571 152 LINE",
"165 152 LINE",
"165 0 LINE"
);
},
{
closed = 1;
nodes = (
"543 284 LINE",
"543 436 LINE",
"165 436 LINE",
"165 284 LINE"
);
},
{
closed = 1;
nodes = (
"571 542 LINE",
"571 694 LINE",
"165 694 LINE",
"165 542 LINE"
);
}
);
width = 634;
},
{
anchors = (
{
name = "#entry";
position = "{137, 291}";
},
{
name = bottom;
position = "{322, 0}";
},
{
name = ogonek;
position = "{513, 10}";
},
{
name = top;
position = "{321, 694}";
},
{
name = topleft;
position = "{11, 694}";
}
);
layerId = "0B2E441B-685E-400D-9B9B-E078DEED62EF";
paths = (
{
closed = 1;
nodes = (
"149 0 LINE",
"149 694 LINE",
"128 694 LINE",
"128 0 LINE"
);
},
{
closed = 1;
nodes = (
"515 0 LINE",
"515 18 LINE",
"137 18 LINE",
"137 0 LINE"
);
},
{
closed = 1;
nodes = (
"490 351 LINE",
"490 369 LINE",
"137 369 LINE",
"137 351 LINE"
);
},
{
closed = 1;
nodes = (
"515 676 LINE",
"515 694 LINE",
"137 694 LINE",
"137 676 LINE"
);
}
);
width = 580;
}
);
note = E;
unicode = 0045;
},
{
glyphname = F;
lastChange = "2017-10-07 18:01:07 +0000";
layers = (
{
anchors = (
{
name = bottom;
position = "{276, 0}";
},
{
name = top;
position = "{276, 694}";
}
);
layerId = "F333AEC5-BB61-4D5E-9EDD-6124322D28F2";
paths = (
{
closed = 1;
nodes = (
"192 0 LINE",
"192 694 LINE",
"109 694 LINE",
"109 0 LINE"
);
},
{
closed = 1;
nodes = (
"511 322 LINE",
"511 394 LINE",
"141 394 LINE",
"141 322 LINE"
);
},
{
closed = 1;
nodes = (
"540 622 LINE",
"540 694 LINE",
"141 694 LINE",
"141 622 LINE"
);
}
);
width = 589;
},
{
anchors = (
{
name = bottom;
position = "{183, 0}";
},
{
name = top;
position = "{293, 694}";
}
);
layerId = "51C2DFEF-3776-4D13-9284-96485B799B57";
paths = (
{
closed = 1;
nodes = (
"261 0 LINE",
"261 694 LINE",
"85 694 LINE",
"85 0 LINE"
);
},
{
closed = 1;
nodes = (
"529 264 LINE",
"529 416 LINE",
"165 416 LINE",
"165 264 LINE"
);
},
{
closed = 1;
nodes = (
"556 542 LINE",
"556 694 LINE",
"165 694 LINE",
"165 542 LINE"
);
}
);
width = 597;
},
{
anchors = (
{
name = bottom;
position = "{292, 0}";
},
{
name = top;
position = "{292, 694}";
}
);
layerId = "0B2E441B-685E-400D-9B9B-E078DEED62EF";
paths = (
{
closed = 1;
nodes = (
"150 0 LINE",
"150 694 LINE",
"128 694 LINE",
"128 0 LINE"
);
},
{
closed = 1;
nodes = (
"490 351 LINE",
"490 369 LINE",
"137 369 LINE",
"137 351 LINE"
);
},
{
closed = 1;
nodes = (
"515 676 LINE",
"515 694 LINE",
"137 694 LINE",
"137 676 LINE"
);
}
);
width = 573;
}
);
note = F;
unicode = 0046;
},
{
glyphname = G;
lastChange = "2017-10-08 17:25:07 +0000";
layers = (
{
anchors = (
{
name = bottom;
position = "{407, 0}";
},
{
name = top;
position = "{407, 694}";
}
);
layerId = "F333AEC5-BB61-4D5E-9EDD-6124322D28F2";
paths = (
{
closed = 1;
nodes = (
"512 -9 OFFCURVE",
"599 19 OFFCURVE",
"669 74 CURVE",
"669 368 LINE",
"389 368 LINE",
"389 296 LINE",
"586 296 LINE",
"586 102 LINE",
"537 77 OFFCURVE",
"483 64 OFFCURVE",
"428 64 CURVE SMOOTH",
"261 64 OFFCURVE",
"153 179 OFFCURVE",
"153 357 CURVE SMOOTH",
"153 530 OFFCURVE",
"252 630 OFFCURVE",
"421 630 CURVE SMOOTH",
"485 630 OFFCURVE",
"555 615 OFFCURVE",
"618 589 CURVE",
"642 655 LINE",
"581 687 OFFCURVE",
"509 703 OFFCURVE",
"432 703 CURVE SMOOTH",
"213 703 OFFCURVE",
"68 560 OFFCURVE",
"68 342 CURVE SMOOTH",
"68 130 OFFCURVE",
"206 -9 OFFCURVE",
"416 -9 CURVE SMOOTH"
);
}
);
width = 747;
},
{
anchors = (
{
name = bottom;
position = "{365, 0}";
},
{
name = top;
position = "{365, 677}";
}
);
layerId = "51C2DFEF-3776-4D13-9284-96485B799B57";
paths = (
{
closed = 1;
nodes = (
"518 -10 OFFCURVE",
"623 21 OFFCURVE",
"683 72 CURVE",
"683 405 LINE",
"384 405 LINE",
"384 255 LINE",
"513 255 LINE",
"513 153 LINE",
"484 144 OFFCURVE",
"455 140 OFFCURVE",
"427 140 CURVE SMOOTH",
"301 140 OFFCURVE",
"222 224 OFFCURVE",
"222 351 CURVE SMOOTH",
"222 480 OFFCURVE",
"303 554 OFFCURVE",
"429 554 CURVE SMOOTH",
"482 554 OFFCURVE",
"551 541 OFFCURVE",
"615 521 CURVE",
"657 661 LINE",
"600 688 OFFCURVE",
"517 704 OFFCURVE",
"438 704 CURVE SMOOTH",
"200 704 OFFCURVE",
"42 556 OFFCURVE",
"42 334 CURVE SMOOTH",
"42 123 OFFCURVE",
"185 -10 OFFCURVE",
"409 -10 CURVE SMOOTH"
);
}
);
width = 744;
},
{
anchors = (
{
name = bottom;
position = "{367, 0}";
},
{
name = top;
position = "{387, 689}";
}
);
layerId = "0B2E441B-685E-400D-9B9B-E078DEED62EF";
paths = (
{
closed = 1;
nodes = (
"502 -10 OFFCURVE",
"600 18 OFFCURVE",
"658 60 CURVE",
"658 338 LINE",
"401 338 LINE",
"401 319 LINE",
"636 319 LINE",
"636 66 LINE",
"583 36 OFFCURVE",
"500 9 OFFCURVE",
"417 9 CURVE SMOOTH",
"233 9 OFFCURVE",
"110 143 OFFCURVE",
"110 344 CURVE SMOOTH",
"110 548 OFFCURVE",
"238 680 OFFCURVE",
"433 680 CURVE SMOOTH",
"502 680 OFFCURVE",
"572 663 OFFCURVE",
"627 633 CURVE",
"636 651 LINE",
"574 683 OFFCURVE",
"506 699 OFFCURVE",
"436 699 CURVE SMOOTH",
"227 699 OFFCURVE",
"87 556 OFFCURVE",
"87 341 CURVE SMOOTH",
"87 130 OFFCURVE",
"218 -10 OFFCURVE",
"414 -10 CURVE SMOOTH"
);
}
);
width = 751;
}
);
note = G;
unicode = 0047;
},
{
glyphname = H;
lastChange = "2017-10-05 19:14:28 +0000";
layers = (
{
anchors = (
{
name = bottom;
position = "{378, 0}";
},
{
name = center;
position = "{378, 539}";
},
{
name = top;
position = "{378, 694}";
},
{
name = topleft;
position = "{20, 694}";
}
);
background = {
components = (
{
name = O;
transform = "{1, 0, 0, 1, -15, 0}";
}
);
};
layerId = "F333AEC5-BB61-4D5E-9EDD-6124322D28F2";
paths = (
{
closed = 1;
nodes = (
"646 0 LINE",
"646 694 LINE",
"563 694 LINE",
"563 0 LINE"
);
},
{
closed = 1;
nodes = (
"192 0 LINE",
"192 694 LINE",
"109 694 LINE",
"109 0 LINE"
);
},
{
closed = 1;
nodes = (
"611 323 LINE",
"611 395 LINE",
"141 395 LINE",
"141 323 LINE"
);
}
);
width = 755;
},
{
anchors = (
{
name = bottom;
position = "{389, 0}";
},
{
name = center;
position = "{389, 347}";
},
{
name = top;
position = "{389, 694}";
},
{
name = topleft;
position = "{28, 694}";
}
);
background = {
components = (
{
name = O;
transform = "{1, 0, 0, 1, -1, 0}";
}
);
};
layerId = "51C2DFEF-3776-4D13-9284-96485B799B57";
paths = (
{
closed = 1;
nodes = (
"693 0 LINE",
"693 694 LINE",
"517 694 LINE",
"517 0 LINE"
);
},
{
closed = 1;
nodes = (
"261 0 LINE",
"261 694 LINE",
"85 694 LINE",
"85 0 LINE"
);
},
{
closed = 1;
nodes = (
"533 277 LINE",
"533 433 LINE",
"244 433 LINE",
"244 277 LINE"
);
}
);
width = 778;
},
{
anchors = (
{
name = bottom;
position = "{362, 0}";
},
{
name = center;
position = "{362, 534}";
},
{
name = top;
position = "{362, 694}";
},
{
name = topleft;
position = "{23, 694}";
}
);
background = {
components = (
{
name = O;
transform = "{1, 0, 0, 1, -20, 0}";
}
);
};
layerId = "0B2E441B-685E-400D-9B9B-E078DEED62EF";
paths = (
{
closed = 1;
nodes = (
"595 0 LINE",
"595 694 LINE",
"573 694 LINE",
"573 0 LINE"
);
},
{
closed = 1;
nodes = (
"150 0 LINE",
"150 694 LINE",
"128 694 LINE",
"128 0 LINE"
);
},
{
closed = 1;
nodes = (
"579 345 LINE",
"579 364 LINE",
"143 364 LINE",
"143 345 LINE"
);
}
);
width = 723;
}
);
note = H;
unicode = 0048;
},
{
glyphname = I;
lastChange = "2017-10-07 07:49:58 +0000";
layers = (
{
anchors = (
{
name = bottom;
position = "{151, 0}";
},
{
name = ogonek;
position = "{174, 10}";
},
{
name = top;
position = "{151, 694}";
},
{
name = topleft;
position = "{20, 694}";
}
);
layerId = "F333AEC5-BB61-4D5E-9EDD-6124322D28F2";
paths = (
{
closed = 1;
nodes = (
"192 0 LINE",
"192 694 LINE",
"109 694 LINE",
"109 0 LINE"
);
}
);
width = 301;
},
{
anchors = (
{
name = bottom;
position = "{173, 0}";
},
{
name = ogonek;
position = "{196, 10}";
},
{
name = top;
position = "{173, 694}";
},
{
name = topleft;
position = "{42, 694}";
}
);
layerId = "51C2DFEF-3776-4D13-9284-96485B799B57";
paths = (
{
closed = 1;
nodes = (
"261 0 LINE",
"261 694 LINE",
"85 694 LINE",
"85 0 LINE"
);
}
);
width = 346;
},
{
anchors = (
{
name = bottom;
position = "{139, 0}";
},
{
name = ogonek;
position = "{147, 10}";
},
{
name = top;
position = "{139, 694}";
},
{
name = topleft;
position = "{12, 694}";
}
);
layerId = "0B2E441B-685E-400D-9B9B-E078DEED62EF";
paths = (
{
closed = 1;
nodes = (
"149 0 LINE",
"149 694 LINE",
"128 694 LINE",
"128 0 LINE"
);
}
);
width = 277;
}
);
note = I;
unicode = 0049;
},
{
glyphname = J;
lastChange = "2017-10-07 18:01:07 +0000";
layers = (
{
anchors = (
{
name = bottom;
position = "{230, 0}";
},
{
name = top;
position = "{305, 694}";
}
);
layerId = "F333AEC5-BB61-4D5E-9EDD-6124322D28F2";
paths = (
{
closed = 1;
nodes = (
"281 -10 OFFCURVE",
"348 65 OFFCURVE",
"348 200 CURVE SMOOTH",
"348 694 LINE",
"265 694 LINE",
"265 191 LINE SMOOTH",
"265 104 OFFCURVE",
"234 63 OFFCURVE",
"164 63 CURVE SMOOTH",
"131 63 OFFCURVE",
"94 72 OFFCURVE",
"63 87 CURVE",
"39 21 LINE",
"74 2 OFFCURVE",
"116 -10 OFFCURVE",
"163 -10 CURVE SMOOTH"
);
}
);
width = 450;
},
{
anchors = (
{
name = bottom;
position = "{262, 0}";
},
{
name = top;
position = "{342, 694}";
}
);
layerId = "51C2DFEF-3776-4D13-9284-96485B799B57";
paths = (
{
closed = 1;
nodes = (
"324 -10 OFFCURVE",
"430 94 OFFCURVE",
"430 243 CURVE SMOOTH",
"430 694 LINE",
"257 694 LINE",
"257 233 LINE SMOOTH",
"257 179 OFFCURVE",
"217 140 OFFCURVE",
"161 140 CURVE SMOOTH",
"133 140 OFFCURVE",
"89 150 OFFCURVE",
"56 162 CURVE",
"18 22 LINE",
"57 3 OFFCURVE",
"111 -10 OFFCURVE",
"166 -10 CURVE SMOOTH"
);
}
);
width = 502;
},
{
anchors = (
{
name = bottom;
position = "{286, 0}";
},
{
name = top;
position = "{311, 694}";
}
);
layerId = "0B2E441B-685E-400D-9B9B-E078DEED62EF";
paths = (
{
closed = 1;
nodes = (
"255 -10 OFFCURVE",
"322 53 OFFCURVE",
"322 158 CURVE SMOOTH",
"322 694 LINE",
"301 694 LINE",
"301 154 LINE SMOOTH",
"301 64 OFFCURVE",
"250 9 OFFCURVE",
"173 9 CURVE SMOOTH",
"139 9 OFFCURVE",
"100 20 OFFCURVE",
"61 42 CURVE",
"55 25 LINE",
"98 1 OFFCURVE",
"135 -10 OFFCURVE",
"170 -10 CURVE SMOOTH"
);
}
);
width = 445;
}
);
note = J;
unicode = 004A;
},
{
glyphname = K;
lastChange = "2017-10-08 09:08:00 +0000";
layers = (
{
anchors = (
{
name = bottom;
position = "{323, 0}";
},
{
name = top;
position = "{323, 694}";
}
);
layerId = "F333AEC5-BB61-4D5E-9EDD-6124322D28F2";
paths = (
{
closed = 1;
nodes = (
"620 0 LINE",
"276 375 LINE",
"275 353 LINE",
"601 694 LINE",
"500 694 LINE",
"183 356 LINE",
"506 0 LINE"
);
},
{
closed = 1;
nodes = (
"192 0 LINE",
"192 694 LINE",
"109 694 LINE",
"109 0 LINE"
);
}
);
width = 656;
},
{
anchors = (
{
name = bottom;
position = "{355, 0}";
},
{
name = top;
position = "{355, 694}";
}
);
layerId = "51C2DFEF-3776-4D13-9284-96485B799B57";
paths = (
{
closed = 1;
nodes = (
"742 0 LINE",
"445 375 LINE",
"449 353 LINE",
"729 694 LINE",
"525 694 LINE",
"251 356 LINE",
"528 0 LINE"
);
},
{
closed = 1;
nodes = (
"261 0 LINE",
"261 694 LINE",
"85 694 LINE",
"85 0 LINE"
);
}
);
width = 754;
},
{
anchors = (
{
name = bottom;
position = "{297, 0}";
},
{
name = top;
position = "{297, 694}";
}
);
layerId = "0B2E441B-685E-400D-9B9B-E078DEED62EF";
paths = (
{
closed = 1;
nodes = (
"532 0 LINE",
"159 362 LINE",
"159 352 LINE",
"523 694 LINE",
"496 694 LINE",
"140 356 LINE",
"503 0 LINE"
);
},
{
closed = 1;
nodes = (
"148 0 LINE",
"148 694 LINE",
"128 694 LINE",
"128 0 LINE"
);
}
);
width = 587;
}
);
note = K;
unicode = 004B;
},
{
glyphname = L;
lastChange = "2017-10-07 18:01:07 +0000";
layers = (
{
anchors = (
{
name = "#periodcentered";
position = "{418, 352}";
},
{
name = bottom;
position = "{307, 0}";
},
{
name = center;
position = "{177, 347}";
},
{
name = top;
position = "{152, 694}";
},
{
name = topright;
position = "{316, 482}";
}
);
layerId = "F333AEC5-BB61-4D5E-9EDD-6124322D28F2";
paths = (
{
closed = 1;
nodes = (
"192 0 LINE",
"192 694 LINE",
"109 694 LINE",
"109 0 LINE"
);
},
{
closed = 1;
nodes = (
"503 0 LINE",
"503 74 LINE",
"141 74 LINE",
"141 0 LINE"
);
}
);
width = 544;
},
{
anchors = (
{
name = "#periodcentered";
position = "{394, 352}";
},
{
name = bottom;
position = "{283, 0}";
},
{
name = center;
position = "{153, 347}";
},
{
name = top;
position = "{170, 694}";
},
{
name = topright;
position = "{322, 490}";
}
);
layerId = "51C2DFEF-3776-4D13-9284-96485B799B57";
paths = (
{
closed = 1;
nodes = (
"258 0 LINE",
"258 694 LINE",
"85 694 LINE",
"85 0 LINE"
);
},
{
closed = 1;
nodes = (
"539 0 LINE",
"539 153 LINE",
"177 153 LINE",
"177 0 LINE"
);
}
);
width = 564;
},
{
anchors = (
{
name = "#periodcentered";
position = "{394, 352}";
},
{
name = bottom;
position = "{306, 0}";
},
{
name = center;
position = "{180, 367}";
},
{
name = top;
position = "{140, 694}";
},
{
name = topright;
position = "{225, 480}";
}
);
layerId = "0B2E441B-685E-400D-9B9B-E078DEED62EF";
paths = (
{
closed = 1;
nodes = (
"149 0 LINE",
"149 694 LINE",
"128 694 LINE",
"128 0 LINE"
);
},
{
closed = 1;
nodes = (
"477 0 LINE",
"477 19 LINE",
"140 19 LINE",
"140 0 LINE"
);
}
);
width = 530;
}
);
note = L;
unicode = 004C;
},
{
glyphname = M;
lastChange = "2017-10-03 11:03:02 +0000";
layers = (
{
anchors = (
{
name = bottom;
position = "{447, 0}";
},
{
name = top;
position = "{447, 694}";
}
);
layerId = "F333AEC5-BB61-4D5E-9EDD-6124322D28F2";
paths = (
{
closed = 1;
nodes = (
"187 0 LINE",
"187 581 LINE",
"171 581 LINE",
"422 108 LINE",
"480 108 LINE",
"722 581 LINE",
"706 581 LINE",
"706 0 LINE",
"784 0 LINE",
"784 694 LINE",
"702 694 LINE",
"447 198 LINE",
"460 198 LINE",
"197 694 LINE",
"109 694 LINE",
"109 0 LINE"
);
}
);
width = 893;
},
{
anchors = (
{
name = bottom;
position = "{443, 0}";
},
{
name = top;
position = "{443, 694}";
}
);
layerId = "51C2DFEF-3776-4D13-9284-96485B799B57";
paths = (
{
closed = 1;
nodes = (
"250 0 LINE",
"250 444 LINE",
"224 429 LINE",
"399 93 LINE",
"487 93 LINE",
"659 434 LINE",
"636 444 LINE",
"636 0 LINE",
"801 0 LINE",
"801 694 LINE",
"627 694 LINE",
"422 289 LINE",
"474 289 LINE",
"268 694 LINE",
"85 694 LINE",
"85 0 LINE"
);
}
);
width = 886;
},
{
anchors = (
{
name = bottom;
position = "{466, 0}";
},
{
name = top;
position = "{466, 694}";
}
);
layerId = "0B2E441B-685E-400D-9B9B-E078DEED62EF";
paths = (
{
closed = 1;
nodes = (
"149 0 LINE",
"149 677 LINE",
"142 677 LINE",
"445 108 LINE",
"465 108 LINE",
"759 676 LINE",
"752 676 LINE",
"752 0 LINE",
"773 0 LINE",
"773 694 LINE",
"746 694 LINE",
"449 118 LINE",
"463 118 LINE",
"157 694 LINE",
"128 694 LINE",
"128 0 LINE"
);
}
);
width = 901;
}
);
note = M;
unicode = 004D;
},
{
glyphname = N;
lastChange = "2017-10-03 11:03:02 +0000";
layers = (
{
anchors = (
{
name = "#hook";
position = "{636, 0}";
},
{
name = bottom;
position = "{392, 0}";
},
{
name = top;
position = "{392, 694}";
}
);
layerId = "F333AEC5-BB61-4D5E-9EDD-6124322D28F2";
paths = (
{
closed = 1;
nodes = (
"187 0 LINE",
"187 605 LINE",
"170 605 LINE",
"580 0 LINE",
"675 0 LINE",
"675 694 LINE",
"597 694 LINE",
"597 87 LINE",
"615 87 LINE",
"204 694 LINE",
"109 694 LINE",
"109 0 LINE"
);
}
);
width = 784;
},
{
anchors = (
{
name = "#hook";
position = "{616, 0}";
},
{
name = bottom;
position = "{398, 0}";
},
{
name = top;
position = "{398, 694}";
}
);
layerId = "51C2DFEF-3776-4D13-9284-96485B799B57";
paths = (
{
closed = 1;
nodes = (
"250 0 LINE",
"250 470 LINE",
"220 460 LINE",
"522 0 LINE",
"711 0 LINE",
"711 694 LINE",
"546 694 LINE",
"546 216 LINE",
"574 226 LINE",
"274 694 LINE",
"85 694 LINE",
"85 0 LINE"
);
}
);
width = 796;
},
{
anchors = (
{
name = "#hook";
position = "{612, 0}";
},
{
name = bottom;
position = "{386, 0}";
},
{
name = top;
position = "{386, 694}";
}
);
layerId = "0B2E441B-685E-400D-9B9B-E078DEED62EF";
paths = (
{
closed = 1;
nodes = (
"148 0 LINE",
"148 674 LINE",
"146 674 LINE",
"597 0 LINE",
"624 0 LINE",
"624 694 LINE",
"604 694 LINE",
"604 20 LINE",
"608 20 LINE",
"157 694 LINE",
"128 694 LINE",
"128 0 LINE"
);
}
);
width = 752;
}
);
note = N;
unicode = 004E;
},
{
glyphname = O;
lastChange = "2017-10-08 14:48:32 +0000";
layers = (
{
anchors = (
{
name = "#Qtail";
position = "{555, 65}";
},
{
name = "#exit";
position = "{672, 291}";
},
{
name = bottom;
position = "{391, 0}";
},
{
name = center;
position = "{391, 347}";
},
{
name = ogonek;
position = "{503, 10}";
},
{
name = top;
position = "{391, 694}";
},
{
name = topleft;
position = "{20, 694}";
},
{
name = topright;
position = "{582, 694}";
}
);
associatedMasterId = "F333AEC5-BB61-4D5E-9EDD-6124322D28F2";
layerId = "EC4D3195-D96F-470D-9C91-AC6DC99AADFD";
name = "Aug 31 17, 20:13";
paths = (
{
closed = 1;
nodes = (
"578 -7 OFFCURVE",
"717 141 OFFCURVE",
"717 356 CURVE SMOOTH",
"717 566 OFFCURVE",
"586 703 OFFCURVE",
"393 703 CURVE SMOOTH",
"194 703 OFFCURVE",
"65 558 OFFCURVE",
"65 344 CURVE SMOOTH",
"65 135 OFFCURVE",
"192 -7 OFFCURVE",
"383 -7 CURVE SMOOTH"
);
},
{
closed = 1;
nodes = (
"249 65 OFFCURVE",
"150 186 OFFCURVE",
"150 356 CURVE SMOOTH",
"150 524 OFFCURVE",
"236 630 OFFCURVE",
"383 630 CURVE SMOOTH",
"526 630 OFFCURVE",
"632 513 OFFCURVE",
"632 344 CURVE SMOOTH",
"632 178 OFFCURVE",
"533 65 OFFCURVE",
"393 65 CURVE SMOOTH"
);
}
);
width = 782;
},
{
anchors = (
{
name = "#Qtail";
position = "{559, 65}";
},
{
name = "#exit";
position = "{676, 291}";
},
{
name = bottom;
position = "{395, 0}";
},
{
name = center;
position = "{395, 347}";
},
{
name = ogonek;
position = "{507, 10}";
},
{
name = top;
position = "{395, 694}";
},
{
name = topleft;
position = "{24, 694}";
},
{
name = topright;
position = "{586, 694}";
}
);
layerId = "F333AEC5-BB61-4D5E-9EDD-6124322D28F2";
paths = (
{
closed = 1;
nodes = (
"587 -7 OFFCURVE",
"721 138 OFFCURVE",
"721 356 CURVE SMOOTH",
"721 564 OFFCURVE",
"591 703 OFFCURVE",
"397 703 CURVE SMOOTH",
"200 703 OFFCURVE",
"69 559 OFFCURVE",
"69 344 CURVE SMOOTH",
"69 133 OFFCURVE",
"196 -7 OFFCURVE",
"387 -7 CURVE SMOOTH"
);
},
{
closed = 1;
nodes = (
"251 65 OFFCURVE",
"154 181 OFFCURVE",
"154 356 CURVE SMOOTH",
"154 520 OFFCURVE",
"247 630 OFFCURVE",
"387 630 CURVE SMOOTH",
"536 630 OFFCURVE",
"636 516 OFFCURVE",
"636 344 CURVE SMOOTH",
"636 177 OFFCURVE",
"540 65 OFFCURVE",
"397 65 CURVE SMOOTH"
);
}
);
width = 790;
},
{
anchors = (
{
name = "#Qtail";
position = "{584, 90}";
},
{
name = "#exit";
position = "{647, 284}";
},
{
name = bottom;
position = "{404, 0}";
},
{
name = center;
position = "{427, 347}";
},
{
name = ogonek;
position = "{686, 10}";
},
{
name = top;
position = "{404, 694}";
},
{
name = topleft;
position = "{96, 694}";
},
{
name = topright;
position = "{685, 694}";
}
);
layerId = "51C2DFEF-3776-4D13-9284-96485B799B57";
paths = (
{
closed = 1;
nodes = (
"619 -10 OFFCURVE",
"765 134 OFFCURVE",
"765 351 CURVE SMOOTH",
"765 563 OFFCURVE",
"623 704 OFFCURVE",
"407 704 CURVE SMOOTH",
"188 704 OFFCURVE",
"42 559 OFFCURVE",
"42 341 CURVE SMOOTH",
"42 130 OFFCURVE",
"184 -10 OFFCURVE",
"397 -10 CURVE SMOOTH"
);
},
{
closed = 1;
nodes = (
"296 140 OFFCURVE",
"222 224 OFFCURVE",
"222 351 CURVE SMOOTH",
"222 473 OFFCURVE",
"291 554 OFFCURVE",
"397 554 CURVE SMOOTH",
"510 554 OFFCURVE",
"585 469 OFFCURVE",
"585 341 CURVE SMOOTH",
"585 220 OFFCURVE",
"515 140 OFFCURVE",
"407 140 CURVE SMOOTH"
);
}
);
width = 807;
},
{
anchors = (
{
name = "#Qtail";
position = "{537, 45}";
},
{
name = "#exit";
position = "{669, 285}";
},
{
name = bottom;
position = "{388, 0}";
},
{
name = center;
position = "{389, 345}";
},
{
name = ogonek;
position = "{488, 10}";
},
{
name = top;
position = "{388, 694}";
},
{
name = topleft;
position = "{17, 694}";
},
{
name = topright;
position = "{584, 694}";
}
);
layerId = "0B2E441B-685E-400D-9B9B-E078DEED62EF";
paths = (
{
closed = 1;
nodes = (
"565 -10 OFFCURVE",
"685 133 OFFCURVE",
"685 346 CURVE SMOOTH",
"685 558 OFFCURVE",
"567 699 OFFCURVE",
"389 699 CURVE SMOOTH",
"209 699 OFFCURVE",
"89 555 OFFCURVE",
"89 343 CURVE SMOOTH",
"89 131 OFFCURVE",
"208 -10 OFFCURVE",
"386 -10 CURVE SMOOTH"
);
},
{
closed = 1;
nodes = (
"222 9 OFFCURVE",
"111 145 OFFCURVE",
"111 346 CURVE SMOOTH",
"111 547 OFFCURVE",
"221 680 OFFCURVE",
"386 680 CURVE SMOOTH",
"552 680 OFFCURVE",
"663 544 OFFCURVE",
"663 343 CURVE SMOOTH",
"663 143 OFFCURVE",
"554 9 OFFCURVE",
"388 9 CURVE SMOOTH"
);
}
);
width = 774;
}
);
note = O;
unicode = 004F;
},
{
glyphname = R;
lastChange = "2017-10-07 18:01:07 +0000";
layers = (
{
anchors = (
{
name = bottom;
position = "{326, 0}";
},
{
name = top;
position = "{326, 694}";
}
);
layerId = "F333AEC5-BB61-4D5E-9EDD-6124322D28F2";
paths = (
{
closed = 1;
nodes = (
"192 0 LINE",
"192 694 LINE",
"109 694 LINE",
"109 0 LINE"
);
},
{
closed = 1;
nodes = (
"329 281 LINE SMOOTH",
"472 281 OFFCURVE",
"571 370 OFFCURVE",
"571 497 CURVE SMOOTH",
"571 623 OFFCURVE",
"473 694 OFFCURVE",
"339 694 CURVE SMOOTH",
"162 694 LINE",
"162 622 LINE",
"329 622 LINE SMOOTH",
"426 622 OFFCURVE",
"486 574 OFFCURVE",
"486 486 CURVE SMOOTH",
"486 397 OFFCURVE",
"430 351 OFFCURVE",
"339 351 CURVE SMOOTH",
"162 351 LINE",
"162 281 LINE"
);
},
{
closed = 1;
nodes = (
"611 0 LINE",
"419 328 LINE",
"324 328 LINE",
"512 0 LINE"
);
}
);
width = 657;
},
{
anchors = (
{
name = bottom;
position = "{344, 0}";
},
{
name = top;
position = "{344, 694}";
}
);
layerId = "51C2DFEF-3776-4D13-9284-96485B799B57";
paths = (
{
closed = 1;
nodes = (
"258 0 LINE",
"258 694 LINE",
"85 694 LINE",
"85 0 LINE"
);
},
{
closed = 1;
nodes = (
"349 214 LINE SMOOTH",
"532 214 OFFCURVE",
"640 312 OFFCURVE",
"640 458 CURVE SMOOTH",
"640 602 OFFCURVE",
"534 694 OFFCURVE",
"355 694 CURVE SMOOTH",
"206 694 LINE",
"206 543 LINE",
"349 543 LINE SMOOTH",
"424 543 OFFCURVE",
"460 506 OFFCURVE",
"460 449 CURVE SMOOTH",
"460 393 OFFCURVE",
"426 364 OFFCURVE",
"355 364 CURVE SMOOTH",
"206 364 LINE",
"206 214 LINE"
);
},
{
closed = 1;
nodes = (
"688 0 LINE",
"525 281 LINE",
"344 281 LINE",
"497 0 LINE"
);
}
);
width = 707;
},
{
anchors = (
{
name = bottom;
position = "{331, 0}";
},
{
name = top;
position = "{301, 694}";
}
);
layerId = "0B2E441B-685E-400D-9B9B-E078DEED62EF";
paths = (
{
closed = 1;
nodes = (
"149 0 LINE",
"149 694 LINE",
"128 694 LINE",
"128 0 LINE"
);
},
{
closed = 1;
nodes = (
"309 303 LINE SMOOTH",
"467 303 OFFCURVE",
"552 378 OFFCURVE",
"552 502 CURVE SMOOTH",
"552 623 OFFCURVE",
"469 694 OFFCURVE",
"314 694 CURVE SMOOTH",
"139 694 LINE",
"139 676 LINE",
"309 676 LINE SMOOTH",
"455 676 OFFCURVE",
"530 612 OFFCURVE",
"530 499 CURVE SMOOTH",
"530 387 OFFCURVE",
"455 321 OFFCURVE",
"316 321 CURVE SMOOTH",
"139 321 LINE",
"139 303 LINE"
);
},
{
closed = 1;
nodes = (
"585 0 LINE",
"396 317 LINE",
"374 317 LINE",
"559 0 LINE"
);
}
);
width = 653;
}
);
note = R;
unicode = 0052;
},
{
glyphname = S;
lastChange = "2017-10-07 18:01:06 +0000";
layers = (
{
anchors = (
{
name = bottom;
position = "{300, 0}";
},
{
name = top;
position = "{300, 694}";
}
);
layerId = "F333AEC5-BB61-4D5E-9EDD-6124322D28F2";
paths = (
{
closed = 1;
nodes = (
"444 -10 OFFCURVE",
"538 67 OFFCURVE",
"538 196 CURVE SMOOTH",
"538 452 OFFCURVE",
"158 335 OFFCURVE",
"158 514 CURVE SMOOTH",
"158 587 OFFCURVE",
"221 631 OFFCURVE",
"326 631 CURVE SMOOTH",
"380 631 OFFCURVE",
"442 619 OFFCURVE",
"490 600 CURVE",
"514 665 LINE",
"458 691 OFFCURVE",
"401 704 OFFCURVE",
"337 704 CURVE SMOOTH",
"175 704 OFFCURVE",
"73 626 OFFCURVE",
"73 501 CURVE SMOOTH",
"73 258 OFFCURVE",
"453 373 OFFCURVE",
"453 183 CURVE SMOOTH",
"453 107 OFFCURVE",
"394 63 OFFCURVE",
"291 63 CURVE SMOOTH",
"231 63 OFFCURVE",
"161 78 OFFCURVE",
"84 109 CURVE",
"60 40 LINE",
"133 8 OFFCURVE",
"214 -10 OFFCURVE",
"288 -10 CURVE SMOOTH"
);
}
);
width = 599;
},
{
anchors = (
{
name = bottom;
position = "{287, 0}";
},
{
name = top;
position = "{300, 677}";
}
);
layerId = "51C2DFEF-3776-4D13-9284-96485B799B57";
paths = (
{
closed = 1;
nodes = (
"467 -10 OFFCURVE",
"580 78 OFFCURVE",
"580 219 CURVE SMOOTH",
"580 468 OFFCURVE",
"230 399 OFFCURVE",
"230 499 CURVE SMOOTH",
"230 533 OFFCURVE",
"269 552 OFFCURVE",
"338 552 CURVE SMOOTH",
"393 552 OFFCURVE",
"453 540 OFFCURVE",
"516 520 CURVE",
"555 666 LINE",
"484 692 OFFCURVE",
"415 704 OFFCURVE",
"346 704 CURVE SMOOTH",
"162 704 OFFCURVE",
"48 617 OFFCURVE",
"48 476 CURVE SMOOTH",
"48 229 OFFCURVE",
"400 306 OFFCURVE",
"400 194 CURVE SMOOTH",
"400 160 OFFCURVE",
"367 142 OFFCURVE",
"304 142 CURVE SMOOTH",
"244 142 OFFCURVE",
"156 158 OFFCURVE",
"88 181 CURVE",
"47 34 LINE",
"125 6 OFFCURVE",
"210 -10 OFFCURVE",
"287 -10 CURVE SMOOTH"
);
}
);
width = 620;
},
{
anchors = (
{
name = bottom;
position = "{313, 0}";
},
{
name = top;
position = "{298, 695}";
}
);
layerId = "0B2E441B-685E-400D-9B9B-E078DEED62EF";
paths = (
{
closed = 1;
nodes = (
"436 -10 OFFCURVE",
"526 61 OFFCURVE",
"526 172 CURVE SMOOTH",
"526 410 OFFCURVE",
"107 303 OFFCURVE",
"107 526 CURVE SMOOTH",
"107 622 OFFCURVE",
"185 683 OFFCURVE",
"308 683 CURVE SMOOTH",
"363 683 OFFCURVE",
"423 670 OFFCURVE",
"487 645 CURVE",
"494 663 LINE",
"432 689 OFFCURVE",
"372 702 OFFCURVE",
"313 702 CURVE SMOOTH",
"175 702 OFFCURVE",
"85 631 OFFCURVE",
"85 522 CURVE SMOOTH",
"85 286 OFFCURVE",
"504 388 OFFCURVE",
"504 167 CURVE SMOOTH",
"504 70 OFFCURVE",
"425 9 OFFCURVE",
"298 9 CURVE SMOOTH",
"231 9 OFFCURVE",
"156 27 OFFCURVE",
"84 59 CURVE",
"77 41 LINE",
"146 8 OFFCURVE",
"223 -10 OFFCURVE",
"295 -10 CURVE SMOOTH"
);
}
);
width = 601;
}
);
note = S;
unicode = 0053;
},
{
glyphname = Germandbls;
lastChange = "2017-10-07 14:29:31 +0000";
layers = (
{
layerId = "F333AEC5-BB61-4D5E-9EDD-6124322D28F2";
paths = (
{
closed = 1;
nodes = (
"573 -10 OFFCURVE",
"668 72 OFFCURVE",
"668 184 CURVE SMOOTH",
"668 283 OFFCURVE",
"598 363 OFFCURVE",
"492 387 CURVE",
"618 583 LINE",
"585 657 OFFCURVE",
"490 704 OFFCURVE",
"371 704 CURVE SMOOTH",
"208 704 OFFCURVE",
"99 615 OFFCURVE",
"99 483 CURVE SMOOTH",
"99 0 LINE",
"182 0 LINE",
"182 492 LINE SMOOTH",
"182 579 OFFCURVE",
"249 631 OFFCURVE",
"361 631 CURVE SMOOTH",
"439 631 OFFCURVE",
"499 607 OFFCURVE",
"523 565 CURVE",
"375 343 LINE",
"509 322 OFFCURVE",
"583 262 OFFCURVE",
"583 175 CURVE SMOOTH",
"583 107 OFFCURVE",
"537 62 OFFCURVE",
"464 62 CURVE SMOOTH",
"423 62 OFFCURVE",
"365 76 OFFCURVE",
"321 98 CURVE",
"297 33 LINE",
"344 6 OFFCURVE",
"402 -10 OFFCURVE",
"454 -10 CURVE SMOOTH"
);
}
);
width = 728;
},
{
layerId = "51C2DFEF-3776-4D13-9284-96485B799B57";
paths = (
{
closed = 1;
nodes = (
"598 -10 OFFCURVE",
"703 79 OFFCURVE",
"703 212 CURVE SMOOTH",
"703 283 OFFCURVE",
"632 356 OFFCURVE",
"547 396 CURVE",
"647 550 LINE",
"615 642 OFFCURVE",
"507 704 OFFCURVE",
"377 704 CURVE SMOOTH",
"195 704 OFFCURVE",
"74 612 OFFCURVE",
"74 474 CURVE SMOOTH",
"74 0 LINE",
"250 0 LINE",
"250 473 LINE SMOOTH",
"250 522 OFFCURVE",
"303 554 OFFCURVE",
"367 554 CURVE SMOOTH",
"419 554 OFFCURVE",
"455 536 OFFCURVE",
"469 509 CURVE",
"336 314 LINE",
"448 291 OFFCURVE",
"523 246 OFFCURVE",
"523 202 CURVE SMOOTH",
"523 165 OFFCURVE",
"494 140 OFFCURVE",
"450 140 CURVE SMOOTH",
"418 140 OFFCURVE",
"369 149 OFFCURVE",
"328 163 CURVE",
"298 18 LINE",
"347 1 OFFCURVE",
"404 -10 OFFCURVE",
"440 -10 CURVE SMOOTH"
);
}
);
width = 742;
},
{
layerId = "0B2E441B-685E-400D-9B9B-E078DEED62EF";
paths = (
{
closed = 1;
nodes = (
"557 -10 OFFCURVE",
"639 55 OFFCURVE",
"639 167 CURVE SMOOTH",
"639 271 OFFCURVE",
"570 348 OFFCURVE",
"435 373 CURVE",
"594 601 LINE",
"573 663 OFFCURVE",
"484 704 OFFCURVE",
"375 704 CURVE SMOOTH",
"220 704 OFFCURVE",
"119 620 OFFCURVE",
"119 494 CURVE SMOOTH",
"119 0 LINE",
"140 0 LINE",
"140 494 LINE SMOOTH",
"140 609 OFFCURVE",
"231 685 OFFCURVE",
"373 685 CURVE SMOOTH",
"466 685 OFFCURVE",
"550 652 OFFCURVE",
"571 601 CURVE",
"405 361 LINE",
"545 337 OFFCURVE",
"618 263 OFFCURVE",
"618 165 CURVE SMOOTH",
"618 65 OFFCURVE",
"544 8 OFFCURVE",
"438 8 CURVE SMOOTH",
"394 8 OFFCURVE",
"345 18 OFFCURVE",
"307 33 CURVE",
"301 16 LINE",
"334 0 OFFCURVE",
"386 -10 OFFCURVE",
"434 -10 CURVE SMOOTH"
);
}
);
width = 719;
}
);
unicode = 1E9E;
},
{
glyphname = Schwa;
lastChange = "2017-10-07 14:27:37 +0000";
layers = (
{
anchors = (
{
name = bottom;
position = "{374, 0}";
},
{
name = top;
position = "{374, 694}";
}
);
layerId = "F333AEC5-BB61-4D5E-9EDD-6124322D28F2";
paths = (
{
closed = 1;
nodes = (
"245 700 OFFCURVE",
"173 682 OFFCURVE",
"87 641 CURVE",
"113 578 LINE",
"182 612 OFFCURVE",
"246 627 OFFCURVE",
"311 627 CURVE SMOOTH",
"491 627 OFFCURVE",
"599 521 OFFCURVE",
"599 329 CURVE SMOOTH",
"599 158 OFFCURVE",
"514 63 OFFCURVE",
"367 63 CURVE SMOOTH",
"227 63 OFFCURVE",
"145 148 OFFCURVE",
"145 300 CURVE",
"620 300 LINE",
"620 368 LINE",
"72 368 LINE",
"70 345 OFFCURVE",
"68 312 OFFCURVE",
"68 291 CURVE SMOOTH",
"68 111 OFFCURVE",
"184 -10 OFFCURVE",
"360 -10 CURVE SMOOTH",
"551 -10 OFFCURVE",
"684 132 OFFCURVE",
"684 347 CURVE SMOOTH",
"684 566 OFFCURVE",
"546 700 OFFCURVE",
"325 700 CURVE SMOOTH"
);
}
);
userData = {
RMXScaler = {
height = 143;
width = 150;
};
};
width = 755;
},
{
anchors = (
{
name = bottom;
position = "{381, 0}";
},
{
name = top;
position = "{381, 694}";
}
);
layerId = "51C2DFEF-3776-4D13-9284-96485B799B57";
paths = (
{
closed = 1;
nodes = (
"236 704 OFFCURVE",
"156 687 OFFCURVE",
"69 650 CURVE",
"104 519 LINE",
"171 542 OFFCURVE",
"234 554 OFFCURVE",
"293 554 CURVE SMOOTH",
"449 554 OFFCURVE",
"528 483 OFFCURVE",
"528 315 CURVE SMOOTH",
"528 192 OFFCURVE",
"474 140 OFFCURVE",
"368 140 CURVE SMOOTH",
"272 140 OFFCURVE",
"216 180 OFFCURVE",
"216 272 CURVE",
"557 272 LINE",
"557 414 LINE",
"58 414 LINE",
"53 370 OFFCURVE",
"50 324 OFFCURVE",
"50 280 CURVE SMOOTH",
"50 105 OFFCURVE",
"168 -10 OFFCURVE",
"355 -10 CURVE SMOOTH",
"565 -10 OFFCURVE",
"708 133 OFFCURVE",
"708 350 CURVE SMOOTH",
"708 571 OFFCURVE",
"561 704 OFFCURVE",
"322 704 CURVE SMOOTH"
);
}
);
userData = {
RMXScaler = {
height = 142;
width = 148;
};
};
width = 753;
},
{
anchors = (
{
name = bottom;
position = "{370, 0}";
},
{
name = top;
position = "{370, 694}";
}
);
layerId = "0B2E441B-685E-400D-9B9B-E078DEED62EF";
paths = (
{
closed = 1;
nodes = (
"248 704 OFFCURVE",
"174 681 OFFCURVE",
"105 632 CURVE",
"114 619 LINE",
"186 667 OFFCURVE",
"253 685 OFFCURVE",
"327 685 CURVE SMOOTH",
"522 685 OFFCURVE",
"643 558 OFFCURVE",
"643 342 CURVE SMOOTH",
"643 140 OFFCURVE",
"538 9 OFFCURVE",
"367 9 CURVE SMOOTH",
"203 9 OFFCURVE",
"106 130 OFFCURVE",
"106 321 CURVE",
"661 321 LINE",
"661 340 LINE",
"84 340 LINE",
"83 332 OFFCURVE",
"83 328 OFFCURVE",
"83 318 CURVE SMOOTH",
"83 123 OFFCURVE",
"192 -10 OFFCURVE",
"365 -10 CURVE SMOOTH",
"541 -10 OFFCURVE",
"666 130 OFFCURVE",
"666 342 CURVE SMOOTH",
"666 562 OFFCURVE",
"533 704 OFFCURVE",
"329 704 CURVE SMOOTH"
);
}
);
userData = {
RMXScaler = {
height = 145;
width = 150;
};
};
width = 757;
}
);
unicode = 018F;
userData = {
RMXScaler = {
source = e;
};
};
},
{
glyphname = T;
lastChange = "2017-10-08 09:00:20 +0000";
layers = (
{
anchors = (
{
name = bottom;
position = "{313, 0}";
},
{
name = center;
position = "{313, 347}";
},
{
name = top;
position = "{313, 694}";
}
);
layerId = "F333AEC5-BB61-4D5E-9EDD-6124322D28F2";
paths = (
{
closed = 1;
nodes = (
"354 0 LINE",
"354 660 LINE",
"271 660 LINE",
"271 0 LINE"
);
},
{
closed = 1;
nodes = (
"586 622 LINE",
"586 694 LINE",
"40 694 LINE",
"40 622 LINE"
);
}
);
width = 626;
},
{
anchors = (
{
name = bottom;
position = "{317, 0}";
},
{
name = center;
position = "{317, 347}";
},
{
name = top;
position = "{317, 694}";
}
);
layerId = "51C2DFEF-3776-4D13-9284-96485B799B57";
paths = (
{
closed = 1;
nodes = (
"402 0 LINE",
"402 660 LINE",
"230 660 LINE",
"230 0 LINE"
);
},
{
closed = 1;
nodes = (
"610 542 LINE",
"610 694 LINE",
"24 694 LINE",
"24 542 LINE"
);
}
);
width = 634;
},
{
anchors = (
{
name = bottom;
position = "{301, 0}";
},
{
name = center;
position = "{305, 347}";
},
{
name = top;
position = "{305, 694}";
}
);
layerId = "0B2E441B-685E-400D-9B9B-E078DEED62EF";
paths = (
{
closed = 1;
nodes = (
"315 0 LINE",
"315 694 LINE",
"294 694 LINE",
"294 0 LINE"
);
},
{
closed = 1;
nodes = (
"567 676 LINE",
"567 694 LINE",
"41 694 LINE",
"41 676 LINE"
);
}
);
width = 608;
}
);
note = T;
unicode = 0054;
},
{
glyphname = U;
lastChange = "2017-10-07 18:01:08 +0000";
layers = (
{
anchors = (
{
name = bottom;
position = "{360, 0}";
},
{
name = ogonek;
position = "{469, 10}";
},
{
name = top;
position = "{360, 694}";
},
{
name = topright;
position = "{659, 694}";
}
);
layerId = "F333AEC5-BB61-4D5E-9EDD-6124322D28F2";
paths = (
{
closed = 1;
nodes = (
"514 -10 OFFCURVE",
"624 92 OFFCURVE",
"624 246 CURVE SMOOTH",
"624 694 LINE",
"543 694 LINE",
"543 236 LINE SMOOTH",
"543 132 OFFCURVE",
"483 63 OFFCURVE",
"366 63 CURVE SMOOTH",
"253 63 OFFCURVE",
"180 128 OFFCURVE",
"180 253 CURVE SMOOTH",
"180 694 LINE",
"97 694 LINE",
"97 243 LINE SMOOTH",
"97 91 OFFCURVE",
"197 -10 OFFCURVE",
"355 -10 CURVE SMOOTH"
);
}
);
width = 720;
},
{
anchors = (
{
name = bottom;
position = "{366, 0}";
},
{
name = ogonek;
position = "{657, 10}";
},
{
name = top;
position = "{366, 694}";
},
{
name = topright;
position = "{716, 694}";
}
);
layerId = "51C2DFEF-3776-4D13-9284-96485B799B57";
paths = (
{
closed = 1;
nodes = (
"540 -10 OFFCURVE",
"661 97 OFFCURVE",
"661 267 CURVE SMOOTH",
"661 694 LINE",
"490 694 LINE",
"490 257 LINE SMOOTH",
"490 187 OFFCURVE",
"442 140 OFFCURVE",
"369 140 CURVE SMOOTH",
"293 140 OFFCURVE",
"243 191 OFFCURVE",
"243 267 CURVE SMOOTH",
"243 694 LINE",
"70 694 LINE",
"70 257 LINE SMOOTH",
"70 100 OFFCURVE",
"184 -10 OFFCURVE",
"363 -10 CURVE SMOOTH"
);
}
);
width = 731;
},
{
anchors = (
{
name = bottom;
position = "{366, 0}";
},
{
name = ogonek;
position = "{473, 10}";
},
{
name = top;
position = "{366, 694}";
},
{
name = topright;
position = "{693, 694}";
}
);
layerId = "0B2E441B-685E-400D-9B9B-E078DEED62EF";
paths = (
{
closed = 1;
nodes = (
"515 -10 OFFCURVE",
"614 97 OFFCURVE",
"614 256 CURVE SMOOTH",
"614 694 LINE",
"593 694 LINE",
"593 256 LINE SMOOTH",
"593 107 OFFCURVE",
"504 9 OFFCURVE",
"368 9 CURVE SMOOTH",
"229 9 OFFCURVE",
"137 108 OFFCURVE",
"137 256 CURVE SMOOTH",
"137 694 LINE",
"115 694 LINE",
"115 256 LINE SMOOTH",
"115 96 OFFCURVE",
"215 -10 OFFCURVE",
"365 -10 CURVE SMOOTH"
);
}
);
width = 729;
}
);
note = U;
unicode = 0055;
},
{
glyphname = V;
lastChange = "2017-10-08 09:00:44 +0000";
layers = (
{
anchors = (
{
name = bottom;
position = "{335, 0}";
},
{
name = top;
position = "{335, 694}";
}
);
layerId = "F333AEC5-BB61-4D5E-9EDD-6124322D28F2";
paths = (
{
closed = 1;
nodes = (
"375 0 LINE",
"628 694 LINE",
"544 694 LINE",
"313 29 LINE",
"363 29 LINE",
"136 694 LINE",
"41 694 LINE",
"294 0 LINE"
);
}
);
width = 669;
},
{
anchors = (
{
name = bottom;
position = "{355, 0}";
},
{
name = top;
position = "{355, 694}";
}
);
layerId = "51C2DFEF-3776-4D13-9284-96485B799B57";
paths = (
{
closed = 1;
nodes = (
"446 0 LINE",
"693 694 LINE",
"520 694 LINE",
"325 92 LINE",
"394 92 LINE",
"198 694 LINE",
"16 694 LINE",
"263 0 LINE"
);
}
);
width = 709;
},
{
anchors = (
{
name = bottom;
position = "{314, 0}";
},
{
name = top;
position = "{314, 694}";
}
);
layerId = "0B2E441B-685E-400D-9B9B-E078DEED62EF";
paths = (
{
closed = 1;
nodes = (
"320 0 LINE",
"577 694 LINE",
"556 694 LINE",
"311 30 LINE",
"320 30 LINE",
"73 694 LINE",
"50 694 LINE",
"309 0 LINE"
);
}
);
width = 628;
}
);
note = V;
unicode = 0056;
},
{
glyphname = W;
lastChange = "2017-10-08 09:00:51 +0000";
layers = (
{
anchors = (
{
name = bottom;
position = "{521, 0}";
},
{
name = top;
position = "{521, 694}";
}
);
layerId = "F333AEC5-BB61-4D5E-9EDD-6124322D28F2";
paths = (
{
closed = 1;
nodes = (
"345 0 LINE",
"547 648 LINE",
"500 648 LINE",
"706 0 LINE",
"786 0 LINE",
"1002 694 LINE",
"920 694 LINE",
"726 39 LINE",
"775 39 LINE",
"576 684 LINE",
"480 684 LINE",
"280 39 LINE",
"329 39 LINE",
"139 694 LINE",
"43 694 LINE",
"265 0 LINE"
);
}
);
width = 1045;
},
{
anchors = (
{
name = bottom;
position = "{535, 0}";
},
{
name = top;
position = "{535, 681}";
}
);
layerId = "51C2DFEF-3776-4D13-9284-96485B799B57";
paths = (
{
closed = 1;
nodes = (
"419 0 LINE",
"586 582 LINE",
"469 582 LINE",
"652 0 LINE",
"837 0 LINE",
"1046 694 LINE",
"881 694 LINE",
"727 105 LINE",
"792 105 LINE",
"613 684 LINE",
"460 684 LINE",
"296 105 LINE",
"357 105 LINE",
"198 694 LINE",
"18 694 LINE",
"234 0 LINE"
);
}
);
width = 1064;
},
{
anchors = (
{
name = bottom;
position = "{511, 0}";
},
{
name = top;
position = "{511, 694}";
}
);
layerId = "0B2E441B-685E-400D-9B9B-E078DEED62EF";
paths = (
{
closed = 1;
nodes = (
"294 0 LINE",
"519 662 LINE",
"505 662 LINE",
"727 0 LINE",
"739 0 LINE",
"968 694 LINE",
"947 694 LINE",
"729 32 LINE",
"738 32 LINE",
"520 684 LINE",
"506 684 LINE",
"285 32 LINE",
"294 32 LINE",
"76 694 LINE",
"53 694 LINE",
"283 0 LINE"
);
}
);
width = 1021;
}
);
note = W;
unicode = 0057;
},
{
glyphname = X;
lastChange = "2017-10-08 14:47:22 +0000";
layers = (
{
anchors = (
{
name = bottom;
position = "{332, 0}";
},
{
name = top;
position = "{332, 694}";
}
);
layerId = "F333AEC5-BB61-4D5E-9EDD-6124322D28F2";
paths = (
{
closed = 1;
nodes = (
"625 0 LINE",
"352 394 LINE",
"158 694 LINE",
"59 694 LINE",
"293 346 LINE",
"526 0 LINE"
);
},
{
closed = 1;
nodes = (
"133 0 LINE",
"351 333 LINE",
"599 694 LINE",
"505 694 LINE",
"304 390 LINE",
"39 0 LINE"
);
}
);
width = 663;
},
{
anchors = (
{
name = bottom;
position = "{353, 0}";
},
{
name = top;
position = "{353, 681}";
}
);
layerId = "51C2DFEF-3776-4D13-9284-96485B799B57";
paths = (
{
closed = 1;
nodes = (
"692 0 LINE",
"401 413 LINE",
"221 694 LINE",
"16 694 LINE",
"309 272 LINE",
"487 0 LINE"
);
},
{
closed = 1;
nodes = (
"211 0 LINE",
"402 296 LINE",
"684 694 LINE",
"494 694 LINE",
"299 420 LINE",
"21 0 LINE"
);
}
);
width = 706;
},
{
anchors = (
{
name = bottom;
position = "{306, 0}";
},
{
name = top;
position = "{306, 694}";
}
);
layerId = "0B2E441B-685E-400D-9B9B-E078DEED62EF";
paths = (
{
closed = 1;
nodes = (
"555 0 LINE",
"310 354 LINE",
"88 694 LINE",
"61 694 LINE",
"299 337 LINE",
"528 0 LINE"
);
},
{
closed = 1;
nodes = (
"76 0 LINE",
"307 343 LINE",
"545 694 LINE",
"521 694 LINE",
"295 358 LINE",
"52 0 LINE"
);
}
);
width = 607;
}
);
note = X;
unicode = 0058;
},
{
glyphname = Y;
lastChange = "2017-10-08 09:01:06 +0000";
layers = (
{
anchors = (
{
name = bottom;
position = "{320, 0}";
},
{
name = top;
position = "{320, 694}";
},
{
name = topleft;
position = "{42, 694}";
}
);
layerId = "F333AEC5-BB61-4D5E-9EDD-6124322D28F2";
paths = (
{
closed = 1;
nodes = (
"358 0 LINE",
"358 299 LINE",
"604 694 LINE",
"513 694 LINE",
"314 362 LINE",
"325 362 LINE",
"133 694 LINE",
"36 694 LINE",
"275 299 LINE",
"275 0 LINE"
);
}
);
width = 640;
},
{
anchors = (
{
name = bottom;
position = "{353, 0}";
},
{
name = top;
position = "{353, 694}";
},
{
name = topleft;
position = "{30, 694}";
}
);
layerId = "51C2DFEF-3776-4D13-9284-96485B799B57";
paths = (
{
closed = 1;
nodes = (
"440 0 LINE",
"440 276 LINE",
"691 694 LINE",
"507 694 LINE",
"322 374 LINE",
"394 374 LINE",
"207 694 LINE",
"10 694 LINE",
"267 274 LINE",
"267 0 LINE"
);
}
);
width = 701;
},
{
anchors = (
{
name = bottom;
position = "{286, 0}";
},
{
name = top;
position = "{286, 694}";
},
{
name = topleft;
position = "{26, 694}";
}
);
layerId = "0B2E441B-685E-400D-9B9B-E078DEED62EF";
paths = (
{
closed = 1;
nodes = (
"292 0 LINE",
"292 353 LINE",
"519 694 LINE",
"496 694 LINE",
"279 364 LINE",
"287 364 LINE",
"69 694 LINE",
"43 694 LINE",
"271 353 LINE",
"271 0 LINE"
);
}
);
width = 562;
}
);
note = Y;
unicode = 0059;
},
{
glyphname = Z;
lastChange = "2017-10-07 18:01:07 +0000";
layers = (
{
anchors = (
{
name = bottom;
position = "{329, 0}";
},
{
name = top;
position = "{329, 694}";
}
);
layerId = "F333AEC5-BB61-4D5E-9EDD-6124322D28F2";
paths = (
{
closed = 1;
nodes = (
"608 0 LINE",
"608 72 LINE",
"128 72 LINE",
"140 47 LINE",
"595 642 LINE",
"595 694 LINE",
"64 694 LINE",
"64 622 LINE",
"516 622 LINE",
"504 647 LINE",
"50 53 LINE",
"50 0 LINE"
);
}
);
width = 658;
},
{
anchors = (
{
name = bottom;
position = "{337, 0}";
},
{
name = top;
position = "{337, 694}";
}
);
layerId = "51C2DFEF-3776-4D13-9284-96485B799B57";
paths = (
{
closed = 1;
nodes = (
"629 0 LINE",
"629 152 LINE",
"183 152 LINE",
"223 94 LINE",
"625 571 LINE",
"625 694 LINE",
"56 694 LINE",
"56 542 LINE",
"482 542 LINE",
"443 599 LINE",
"41 133 LINE",
"41 0 LINE"
);
}
);
width = 673;
},
{
anchors = (
{
name = bottom;
position = "{313, 0}";
},
{
name = top;
position = "{313, 694}";
}
);
layerId = "0B2E441B-685E-400D-9B9B-E078DEED62EF";
paths = (
{
closed = 1;
nodes = (
"577 0 LINE",
"577 18 LINE",
"81 18 LINE",
"81 12 LINE",
"574 677 LINE",
"574 694 LINE",
"74 694 LINE",
"74 676 LINE",
"552 676 LINE",
"552 682 LINE",
"59 16 LINE",
"59 0 LINE"
);
}
);
width = 638;
}
);
note = Z;
unicode = 005A;
},
{
glyphname = a;
lastChange = "2017-10-07 18:01:06 +0000";
layers = (
{
anchors = (
{
name = bottom;
position = "{264, 0}";
},
{
name = ogonek;
position = "{422, 10}";
},
{
name = top;
position = "{249, 482}";
}
);
layerId = "F333AEC5-BB61-4D5E-9EDD-6124322D28F2";
paths = (
{
closed = 1;
nodes = (
"440 0 LINE",
"440 313 LINE SMOOTH",
"440 428 OFFCURVE",
"372 492 OFFCURVE",
"251 492 CURVE SMOOTH",
"186 492 OFFCURVE",
"125 474 OFFCURVE",
"60 435 CURVE",
"81 378 LINE",
"135 407 OFFCURVE",
"182 420 OFFCURVE",
"233 420 CURVE SMOOTH",
"317 420 OFFCURVE",
"360 384 OFFCURVE",
"360 313 CURVE SMOOTH",
"360 56 LINE",
"384 0 LINE"
);
},
{
closed = 1;
nodes = (
"325 -10 OFFCURVE",
"413 62 OFFCURVE",
"429 169 CURVE",
"400 183 LINE",
"384 108 OFFCURVE",
"319 60 OFFCURVE",
"235 60 CURVE SMOOTH",
"171 60 OFFCURVE",
"130 89 OFFCURVE",
"130 134 CURVE SMOOTH",
"130 196 OFFCURVE",
"205 224 OFFCURVE",
"372 224 CURVE",
"372 284 LINE",
"165 284 OFFCURVE",
"50 225 OFFCURVE",
"50 120 CURVE SMOOTH",
"50 42 OFFCURVE",
"114 -10 OFFCURVE",
"211 -10 CURVE SMOOTH"
);
}
);
width = 519;
},
{
anchors = (
{
name = bottom;
position = "{280, 0}";
},
{
name = ogonek;
position = "{426, 10}";
},
{
name = top;
position = "{280, 490}";
}
);
background = {
paths = (
{
closed = 1;
nodes = (
"502 0 LINE",
"502 292 LINE SMOOTH",
"502 424 OFFCURVE",
"414 500 OFFCURVE",
"272 500 CURVE SMOOTH",
"198 500 OFFCURVE",
"111 476 OFFCURVE",
"44 428 CURVE",
"83 313 LINE",
"129 341 OFFCURVE",
"182 356 OFFCURVE",
"235 356 CURVE SMOOTH",
"293 356 OFFCURVE",
"329 331 OFFCURVE",
"329 282 CURVE SMOOTH",
"329 119 LINE",
"356 0 LINE"
);
},
{
closed = 1;
nodes = (
"316 -10 OFFCURVE",
"372 68 OFFCURVE",
"419 155 CURVE",
"376 178 LINE",
"343 140 OFFCURVE",
"299 119 OFFCURVE",
"264 119 CURVE SMOOTH",
"230 119 OFFCURVE",
"207 132 OFFCURVE",
"207 154 CURVE SMOOTH",
"207 185 OFFCURVE",
"232 205 OFFCURVE",
"364 205 CURVE",
"364 309 LINE",
"151 299 OFFCURVE",
"33 228 OFFCURVE",
"33 123 CURVE SMOOTH",
"33 41 OFFCURVE",
"108 -10 OFFCURVE",
"199 -10 CURVE SMOOTH"
);
}
);
};
layerId = "51C2DFEF-3776-4D13-9284-96485B799B57";
paths = (
{
closed = 1;
nodes = (
"502 0 LINE",
"502 282 LINE SMOOTH",
"502 418 OFFCURVE",
"415 500 OFFCURVE",
"271 500 CURVE SMOOTH",
"191 500 OFFCURVE",
"107 475 OFFCURVE",
"44 433 CURVE",
"83 318 LINE",
"127 342 OFFCURVE",
"182 356 OFFCURVE",
"231 356 CURVE SMOOTH",
"295 356 OFFCURVE",
"329 331 OFFCURVE",
"329 282 CURVE SMOOTH",
"329 119 LINE",
"356 0 LINE"
);
},
{
closed = 1;
nodes = (
"296 -10 OFFCURVE",
"369 43 OFFCURVE",
"429 155 CURVE",
"376 178 LINE",
"343 140 OFFCURVE",
"302 119 OFFCURVE",
"261 119 CURVE SMOOTH",
"227 119 OFFCURVE",
"207 133 OFFCURVE",
"207 157 CURVE SMOOTH",
"207 190 OFFCURVE",
"247 201 OFFCURVE",
"364 201 CURVE",
"364 305 LINE",
"164 305 OFFCURVE",
"33 234 OFFCURVE",
"33 124 CURVE SMOOTH",
"33 45 OFFCURVE",
"101 -10 OFFCURVE",
"200 -10 CURVE SMOOTH"
);
}
);
width = 556;
},
{
anchors = (
{
name = bottom;
position = "{254, 0}";
},
{
name = ogonek;
position = "{409, 10}";
},
{
name = top;
position = "{234, 480}";
}
);
background = {
paths = (
{
closed = 1;
nodes = (
"410 0 LINE",
"410 327 LINE SMOOTH",
"410 436 OFFCURVE",
"345 486 OFFCURVE",
"236 486 CURVE SMOOTH",
"173 486 OFFCURVE",
"104 460 OFFCURVE",
"62 425 CURVE",
"71 412 LINE",
"115 446 OFFCURVE",
"177 466 OFFCURVE",
"233 466 CURVE SMOOTH",
"331 466 OFFCURVE",
"390 425 OFFCURVE",
"390 323 CURVE SMOOTH",
"390 71 LINE",
"394 0 LINE"
);
},
{
closed = 1;
nodes = (
"285 -10 OFFCURVE",
"353 20 OFFCURVE",
"398 65 CURVE",
"398 86 LINE",
"342 34 OFFCURVE",
"282 10 OFFCURVE",
"218 10 CURVE SMOOTH",
"131 10 OFFCURVE",
"78 48 OFFCURVE",
"78 112 CURVE SMOOTH",
"78 202 OFFCURVE",
"181 245 OFFCURVE",
"398 245 CURVE",
"398 266 LINE",
"178 266 OFFCURVE",
"57 211 OFFCURVE",
"57 108 CURVE SMOOTH",
"57 35 OFFCURVE",
"116 -10 OFFCURVE",
"214 -10 CURVE SMOOTH"
);
}
);
};
layerId = "0B2E441B-685E-400D-9B9B-E078DEED62EF";
paths = (
{
closed = 1;
nodes = (
"411 0 LINE",
"411 327 LINE SMOOTH",
"411 428 OFFCURVE",
"351 486 OFFCURVE",
"249 486 CURVE SMOOTH",
"183 486 OFFCURVE",
"113 462 OFFCURVE",
"67 425 CURVE",
"74 412 LINE",
"120 448 OFFCURVE",
"182 468 OFFCURVE",
"243 468 CURVE SMOOTH",
"340 468 OFFCURVE",
"390 417 OFFCURVE",
"390 323 CURVE SMOOTH",
"390 71 LINE",
"394 0 LINE"
);
},
{
closed = 1;
nodes = (
"284 -10 OFFCURVE",
"350 19 OFFCURVE",
"398 68 CURVE",
"398 86 LINE",
"343 35 OFFCURVE",
"289 8 OFFCURVE",
"218 8 CURVE SMOOTH",
"133 8 OFFCURVE",
"83 48 OFFCURVE",
"83 111 CURVE SMOOTH",
"83 202 OFFCURVE",
"185 248 OFFCURVE",
"398 248 CURVE",
"398 266 LINE",
"181 266 OFFCURVE",
"62 210 OFFCURVE",
"62 108 CURVE SMOOTH",
"62 37 OFFCURVE",
"121 -10 OFFCURVE",
"212 -10 CURVE SMOOTH"
);
}
);
width = 506;
},
{
anchors = (
{
name = bottom;
position = "{282, 0}";
},
{
name = ogonek;
position = "{428, 10}";
},
{
name = top;
position = "{282, 490}";
}
);
associatedMasterId = "51C2DFEF-3776-4D13-9284-96485B799B57";
background = {
paths = (
{
closed = 1;
nodes = (
"504 0 LINE",
"504 292 LINE SMOOTH",
"504 424 OFFCURVE",
"416 500 OFFCURVE",
"274 500 CURVE SMOOTH",
"200 500 OFFCURVE",
"113 476 OFFCURVE",
"46 428 CURVE",
"85 313 LINE",
"131 341 OFFCURVE",
"184 356 OFFCURVE",
"237 356 CURVE SMOOTH",
"295 356 OFFCURVE",
"331 331 OFFCURVE",
"331 282 CURVE SMOOTH",
"331 119 LINE",
"358 0 LINE"
);
},
{
closed = 1;
nodes = (
"318 -10 OFFCURVE",
"374 68 OFFCURVE",
"421 155 CURVE",
"378 178 LINE",
"345 140 OFFCURVE",
"301 119 OFFCURVE",
"266 119 CURVE SMOOTH",
"232 119 OFFCURVE",
"209 132 OFFCURVE",
"209 154 CURVE SMOOTH",
"209 185 OFFCURVE",
"234 205 OFFCURVE",
"366 205 CURVE",
"366 309 LINE",
"153 299 OFFCURVE",
"35 228 OFFCURVE",
"35 123 CURVE SMOOTH",
"35 41 OFFCURVE",
"110 -10 OFFCURVE",
"201 -10 CURVE SMOOTH"
);
}
);
};
layerId = "9707B00C-8292-4D70-B17A-DB07EF7F01BC";
name = "Sep 15 17, 21:22";
paths = (
{
closed = 1;
nodes = (
"504 0 LINE",
"504 292 LINE SMOOTH",
"504 422 OFFCURVE",
"418 500 OFFCURVE",
"276 500 CURVE SMOOTH",
"194 500 OFFCURVE",
"109 475 OFFCURVE",
"46 433 CURVE",
"85 318 LINE",
"129 342 OFFCURVE",
"184 356 OFFCURVE",
"233 356 CURVE SMOOTH",
"297 356 OFFCURVE",
"331 331 OFFCURVE",
"331 282 CURVE SMOOTH",
"331 119 LINE",
"358 0 LINE"
);
},
{
closed = 1;
nodes = (
"298 -10 OFFCURVE",
"371 43 OFFCURVE",
"431 155 CURVE",
"378 178 LINE",
"345 140 OFFCURVE",
"304 119 OFFCURVE",
"263 119 CURVE SMOOTH",
"229 119 OFFCURVE",
"209 133 OFFCURVE",
"209 157 CURVE SMOOTH",
"209 191 OFFCURVE",
"255 205 OFFCURVE",
"366 205 CURVE",
"366 309 LINE",
"157 299 OFFCURVE",
"35 231 OFFCURVE",
"35 124 CURVE SMOOTH",
"35 45 OFFCURVE",
"104 -10 OFFCURVE",
"202 -10 CURVE SMOOTH"
);
}
);
width = 564;
}
);
note = a;
unicode = 0061;
},
{
glyphname = ae;
lastChange = "2017-10-08 09:38:28 +0000";
layers = (
{
anchors = (
{
name = "#entry";
position = "{402, 236}";
},
{
name = "#exit";
position = "{402, 236}";
},
{
name = bottom;
position = "{418, 0}";
},
{
name = ogonek;
position = "{740, 10}";
},
{
name = top;
position = "{418, 482}";
}
);
layerId = "F333AEC5-BB61-4D5E-9EDD-6124322D28F2";
paths = (
{
closed = 1;
nodes = (
"429 224 LINE",
"429 326 LINE SMOOTH",
"429 429 OFFCURVE",
"371 492 OFFCURVE",
"253 492 CURVE SMOOTH",
"187 492 OFFCURVE",
"126 473 OFFCURVE",
"62 435 CURVE",
"83 378 LINE",
"141 408 OFFCURVE",
"186 420 OFFCURVE",
"235 420 CURVE SMOOTH",
"319 420 OFFCURVE",
"367 384 OFFCURVE",
"367 313 CURVE SMOOTH",
"367 224 LINE"
);
},
{
closed = 1;
nodes = (
"327 -10 OFFCURVE",
"415 62 OFFCURVE",
"431 169 CURVE",
"402 183 LINE",
"386 108 OFFCURVE",
"321 60 OFFCURVE",
"237 60 CURVE SMOOTH",
"173 60 OFFCURVE",
"132 89 OFFCURVE",
"132 134 CURVE SMOOTH",
"132 196 OFFCURVE",
"206 219 OFFCURVE",
"374 219 CURVE",
"374 279 LINE",
"167 279 OFFCURVE",
"52 225 OFFCURVE",
"52 120 CURVE SMOOTH",
"52 42 OFFCURVE",
"116 -10 OFFCURVE",
"213 -10 CURVE SMOOTH"
);
},
{
closed = 1;
nodes = (
"664 -10 OFFCURVE",
"711 1 OFFCURVE",
"769 27 CURVE",
"752 83 LINE",
"707 64 OFFCURVE",
"665 55 OFFCURVE",
"626 55 CURVE SMOOTH",
"512 55 OFFCURVE",
"437 130 OFFCURVE",
"437 255 CURVE SMOOTH",
"437 364 OFFCURVE",
"494 424 OFFCURVE",
"582 424 CURVE SMOOTH",
"664 424 OFFCURVE",
"712 371 OFFCURVE",
"712 279 CURVE",
"431 279 LINE",
"431 219 LINE",
"783 219 LINE",
"785 234 OFFCURVE",
"787 269 OFFCURVE",
"787 288 CURVE SMOOTH",
"787 409 OFFCURVE",
"707 492 OFFCURVE",
"588 492 CURVE SMOOTH",
"454 492 OFFCURVE",
"363 388 OFFCURVE",
"363 236 CURVE SMOOTH",
"363 82 OFFCURVE",
"456 -10 OFFCURVE",
"611 -10 CURVE SMOOTH"
);
}
);
width = 843;
},
{
layerId = "51C2DFEF-3776-4D13-9284-96485B799B57";
width = 600;
},
{
anchors = (
{
name = "#entry";
position = "{402, 245}";
},
{
name = "#exit";
position = "{402, 245}";
},
{
name = bottom;
position = "{425, 0}";
},
{
name = ogonek;
position = "{694, 10}";
},
{
name = top;
position = "{425, 480}";
}
);
layerId = "0B2E441B-685E-400D-9B9B-E078DEED62EF";
paths = (
{
closed = 1;
nodes = (
"407 239 LINE",
"407 327 LINE SMOOTH",
"407 428 OFFCURVE",
"350 486 OFFCURVE",
"248 486 CURVE SMOOTH",
"182 486 OFFCURVE",
"112 462 OFFCURVE",
"66 425 CURVE",
"73 412 LINE",
"119 448 OFFCURVE",
"181 468 OFFCURVE",
"242 468 CURVE SMOOTH",
"339 468 OFFCURVE",
"392 416 OFFCURVE",
"392 322 CURVE SMOOTH",
"392 239 LINE"
);
},
{
closed = 1;
nodes = (
"314 -10 OFFCURVE",
"398 55 OFFCURVE",
"415 154 CURVE",
"404 162 LINE",
"390 73 OFFCURVE",
"315 8 OFFCURVE",
"215 8 CURVE SMOOTH",
"137 8 OFFCURVE",
"85 48 OFFCURVE",
"85 112 CURVE SMOOTH",
"85 202 OFFCURVE",
"188 244 OFFCURVE",
"400 244 CURVE",
"400 262 LINE",
"184 262 OFFCURVE",
"64 210 OFFCURVE",
"64 109 CURVE SMOOTH",
"64 37 OFFCURVE",
"124 -10 OFFCURVE",
"211 -10 CURVE SMOOTH"
);
},
{
closed = 1;
nodes = (
"672 -10 OFFCURVE",
"721 5 OFFCURVE",
"768 38 CURVE",
"760 50 LINE",
"712 19 OFFCURVE",
"669 6 OFFCURVE",
"620 6 CURVE SMOOTH",
"493 6 OFFCURVE",
"412 94 OFFCURVE",
"412 241 CURVE SMOOTH",
"412 376 OFFCURVE",
"481 468 OFFCURVE",
"591 468 CURVE SMOOTH",
"699 468 OFFCURVE",
"762 380 OFFCURVE",
"762 261 CURVE",
"401 261 LINE",
"401 244 LINE",
"782 244 LINE",
"783 251 OFFCURVE",
"783 256 OFFCURVE",
"783 264 CURVE SMOOTH",
"783 388 OFFCURVE",
"710 486 OFFCURVE",
"593 486 CURVE SMOOTH",
"475 486 OFFCURVE",
"392 386 OFFCURVE",
"392 239 CURVE SMOOTH",
"392 87 OFFCURVE",
"480 -10 OFFCURVE",
"618 -10 CURVE SMOOTH"
);
}
);
width = 850;
}
);
leftMetricsKey = a;
rightMetricsKey = e;
unicode = 00E6;
},
{
glyphname = c;
lastChange = "2017-10-08 08:33:01 +0000";
layers = (
{
anchors = (
{
name = bottom;
position = "{257, 0}";
},
{
name = top;
position = "{277, 482}";
}
);
layerId = "F333AEC5-BB61-4D5E-9EDD-6124322D28F2";
paths = (
{
closed = 1;
nodes = (
"338 -10 OFFCURVE",
"400 5 OFFCURVE",
"443 30 CURVE",
"424 86 LINE",
"386 67 OFFCURVE",
"340 56 OFFCURVE",
"299 56 CURVE SMOOTH",
"196 56 OFFCURVE",
"137 125 OFFCURVE",
"137 243 CURVE SMOOTH",
"137 359 OFFCURVE",
"195 422 OFFCURVE",
"299 422 CURVE SMOOTH",
"338 422 OFFCURVE",
"378 413 OFFCURVE",
"424 395 CURVE",
"443 460 LINE",
"394 481 OFFCURVE",
"347 492 OFFCURVE",
"300 492 CURVE SMOOTH",
"153 492 OFFCURVE",
"55 386 OFFCURVE",
"55 227 CURVE SMOOTH",
"55 78 OFFCURVE",
"139 -10 OFFCURVE",
"280 -10 CURVE SMOOTH"
);
}
);
width = 482;
},
{
anchors = (
{
name = bottom;
position = "{248, 0}";
},
{
name = top;
position = "{251, 488}";
}
);
background = {
components = (
{
name = o;
transform = "{1, 0, 0, 1, -1, 0}";
}
);
};
layerId = "51C2DFEF-3776-4D13-9284-96485B799B57";
paths = (
{
closed = 1;
nodes = (
"360 -10 OFFCURVE",
"416 1 OFFCURVE",
"467 22 CURVE",
"433 141 LINE",
"401 133 OFFCURVE",
"365 128 OFFCURVE",
"337 128 CURVE SMOOTH",
"251 128 OFFCURVE",
"207 175 OFFCURVE",
"207 248 CURVE SMOOTH",
"207 321 OFFCURVE",
"251 356 OFFCURVE",
"318 356 CURVE SMOOTH",
"350 356 OFFCURVE",
"394 348 OFFCURVE",
"430 337 CURVE",
"467 472 LINE",
"418 490 OFFCURVE",
"369 500 OFFCURVE",
"317 500 CURVE SMOOTH",
"149 500 OFFCURVE",
"31 396 OFFCURVE",
"31 235 CURVE SMOOTH",
"31 84 OFFCURVE",
"135 -10 OFFCURVE",
"303 -10 CURVE SMOOTH"
);
}
);
width = 496;
},
{
anchors = (
{
name = bottom;
position = "{236, 0}";
},
{
name = top;
position = "{252, 480}";
}
);
layerId = "0B2E441B-685E-400D-9B9B-E078DEED62EF";
paths = (
{
closed = 1;
nodes = (
"329 -10 OFFCURVE",
"383 7 OFFCURVE",
"421 36 CURVE",
"413 48 LINE",
"378 22 OFFCURVE",
"328 6 OFFCURVE",
"281 6 CURVE SMOOTH",
"167 6 OFFCURVE",
"91 100 OFFCURVE",
"91 237 CURVE SMOOTH",
"91 377 OFFCURVE",
"173 468 OFFCURVE",
"292 468 CURVE SMOOTH",
"335 468 OFFCURVE",
"379 456 OFFCURVE",
"415 436 CURVE",
"422 452 LINE",
"385 473 OFFCURVE",
"341 486 OFFCURVE",
"294 486 CURVE SMOOTH",
"161 486 OFFCURVE",
"70 385 OFFCURVE",
"70 234 CURVE SMOOTH",
"70 89 OFFCURVE",
"155 -10 OFFCURVE",
"278 -10 CURVE SMOOTH"
);
}
);
width = 477;
}
);
note = c;
unicode = 0063;
},
{
glyphname = eth;
lastChange = "2017-10-08 14:21:11 +0000";
layers = (
{
layerId = "F333AEC5-BB61-4D5E-9EDD-6124322D28F2";
paths = (
{
closed = 1;
nodes = (
"416 -9 OFFCURVE",
"499 94 OFFCURVE",
"499 273 CURVE SMOOTH",
"499 486 OFFCURVE",
"383 662 OFFCURVE",
"164 749 CURVE",
"137 691 LINE",
"309 613 OFFCURVE",
"405 487 OFFCURVE",
"446 324 CURVE",
"449 327 LINE",
"417 404 OFFCURVE",
"350 449 OFFCURVE",
"265 449 CURVE SMOOTH",
"141 449 OFFCURVE",
"54 354 OFFCURVE",
"54 215 CURVE SMOOTH",
"54 78 OFFCURVE",
"139 -9 OFFCURVE",
"271 -9 CURVE SMOOTH"
);
},
{
closed = 1;
nodes = (
"190 61 OFFCURVE",
"134 126 OFFCURVE",
"134 230 CURVE SMOOTH",
"134 325 OFFCURVE",
"181 379 OFFCURVE",
"264 379 CURVE SMOOTH",
"356 379 OFFCURVE",
"421 311 OFFCURVE",
"421 213 CURVE SMOOTH",
"421 121 OFFCURVE",
"364 61 OFFCURVE",
"279 61 CURVE SMOOTH"
);
},
{
closed = 1;
nodes = (
"422 690 LINE",
"395 739 LINE",
"135 603 LINE",
"162 555 LINE"
);
}
);
width = 564;
},
{
layerId = "51C2DFEF-3776-4D13-9284-96485B799B57";
width = 600;
},
{
layerId = "0B2E441B-685E-400D-9B9B-E078DEED62EF";
paths = (
{
closed = 1;
nodes = (
"386 -9 OFFCURVE",
"467 93 OFFCURVE",
"467 248 CURVE SMOOTH",
"467 441 OFFCURVE",
"341 663 OFFCURVE",
"143 743 CURVE",
"137 728 LINE",
"298 656 OFFCURVE",
"396 527 OFFCURVE",
"451 317 CURVE",
"453 317 LINE",
"410 406 OFFCURVE",
"357 449 OFFCURVE",
"273 449 CURVE SMOOTH",
"150 449 OFFCURVE",
"70 357 OFFCURVE",
"70 219 CURVE SMOOTH",
"70 83 OFFCURVE",
"149 -9 OFFCURVE",
"264 -9 CURVE SMOOTH"
);
},
{
closed = 1;
nodes = (
"161 9 OFFCURVE",
"91 95 OFFCURVE",
"91 224 CURVE SMOOTH",
"91 351 OFFCURVE",
"159 431 OFFCURVE",
"267 431 CURVE SMOOTH",
"374 431 OFFCURVE",
"447 354 OFFCURVE",
"447 228 CURVE SMOOTH",
"447 102 OFFCURVE",
"373 9 OFFCURVE",
"265 9 CURVE SMOOTH"
);
},
{
closed = 1;
nodes = (
"411 710 LINE",
"405 723 LINE",
"138 588 LINE",
"144 575 LINE"
);
}
);
width = 545;
}
);
unicode = 00F0;
},
{
glyphname = e;
lastChange = "2017-10-07 18:01:07 +0000";
layers = (
{
anchors = (
{
name = "#entry";
position = "{92, 236}";
},
{
name = bottom;
position = "{287, 0}";
},
{
name = ogonek;
position = "{430, 10}";
},
{
name = top;
position = "{272, 482}";
}
);
associatedMasterId = "F333AEC5-BB61-4D5E-9EDD-6124322D28F2";
layerId = "91DE0B1C-30D9-4C38-87F3-02620E7556DE";
name = "Aug 19 17, 13:53";
paths = (
{
closed = 1;
nodes = (
"351 -10 OFFCURVE",
"410 5 OFFCURVE",
"459 27 CURVE",
"445 83 LINE",
"403 66 OFFCURVE",
"358 55 OFFCURVE",
"317 55 CURVE SMOOTH",
"207 55 OFFCURVE",
"136 133 OFFCURVE",
"136 251 CURVE SMOOTH",
"136 353 OFFCURVE",
"188 422 OFFCURVE",
"273 422 CURVE SMOOTH",
"348 422 OFFCURVE",
"397 369 OFFCURVE",
"397 279 CURVE",
"121 279 LINE",
"121 219 LINE",
"473 219 LINE",
"475 234 OFFCURVE",
"477 269 OFFCURVE",
"477 289 CURVE SMOOTH",
"477 413 OFFCURVE",
"397 492 OFFCURVE",
"279 492 CURVE SMOOTH",
"145 492 OFFCURVE",
"53 391 OFFCURVE",
"53 236 CURVE SMOOTH",
"53 82 OFFCURVE",
"144 -10 OFFCURVE",
"291 -10 CURVE SMOOTH"
);
}
);
width = 533;
},
{
anchors = (
{
name = "#entry";
position = "{93, 236}";
},
{
name = bottom;
position = "{288, 0}";
},
{
name = ogonek;
position = "{431, 10}";
},
{
name = top;
position = "{273, 482}";
}
);
background = {
paths = (
{
closed = 1;
nodes = (
"420 -10 OFFCURVE",
"517 92 OFFCURVE",
"517 247 CURVE SMOOTH",
"517 394 OFFCURVE",
"430 492 OFFCURVE",
"291 492 CURVE SMOOTH",
"149 492 OFFCURVE",
"54 390 OFFCURVE",
"54 236 CURVE SMOOTH",
"54 89 OFFCURVE",
"140 -10 OFFCURVE",
"279 -10 CURVE SMOOTH"
);
},
{
closed = 1;
nodes = (
"198 60 OFFCURVE",
"134 134 OFFCURVE",
"134 246 CURVE SMOOTH",
"134 352 OFFCURVE",
"190 422 OFFCURVE",
"280 422 CURVE SMOOTH",
"372 422 OFFCURVE",
"437 348 OFFCURVE",
"437 236 CURVE SMOOTH",
"437 131 OFFCURVE",
"380 60 OFFCURVE",
"290 60 CURVE SMOOTH"
);
}
);
};
layerId = "F333AEC5-BB61-4D5E-9EDD-6124322D28F2";
paths = (
{
closed = 1;
nodes = (
"355 -10 OFFCURVE",
"402 1 OFFCURVE",
"460 27 CURVE",
"443 83 LINE",
"398 64 OFFCURVE",
"356 55 OFFCURVE",
"317 55 CURVE SMOOTH",
"203 55 OFFCURVE",
"136 130 OFFCURVE",
"136 255 CURVE SMOOTH",
"136 364 OFFCURVE",
"185 424 OFFCURVE",
"273 424 CURVE SMOOTH",
"355 424 OFFCURVE",
"403 371 OFFCURVE",
"403 279 CURVE",
"122 279 LINE",
"122 219 LINE",
"474 219 LINE",
"476 234 OFFCURVE",
"478 269 OFFCURVE",
"478 288 CURVE SMOOTH",
"478 409 OFFCURVE",
"398 492 OFFCURVE",
"279 492 CURVE SMOOTH",
"145 492 OFFCURVE",
"54 388 OFFCURVE",
"54 236 CURVE SMOOTH",
"54 82 OFFCURVE",
"147 -10 OFFCURVE",
"302 -10 CURVE SMOOTH"
);
}
);
width = 534;
},
{
anchors = (
{
name = "#entry";
position = "{113, 236}";
},
{
name = bottom;
position = "{283, 0}";
},
{
name = ogonek;
position = "{408, 10}";
},
{
name = top;
position = "{283, 490}";
}
);
layerId = "51C2DFEF-3776-4D13-9284-96485B799B57";
paths = (
{
closed = 1;
nodes = (
"385 -10 OFFCURVE",
"452 4 OFFCURVE",
"514 30 CURVE",
"480 149 LINE",
"433 136 OFFCURVE",
"387 129 OFFCURVE",
"345 129 CURVE SMOOTH",
"246 129 OFFCURVE",
"205 166 OFFCURVE",
"205 260 CURVE SMOOTH",
"205 334 OFFCURVE",
"230 370 OFFCURVE",
"281 370 CURVE SMOOTH",
"325 370 OFFCURVE",
"350 344 OFFCURVE",
"350 298 CURVE",
"181 298 LINE",
"181 195 LINE",
"513 195 LINE",
"517 219 OFFCURVE",
"520 247 OFFCURVE",
"520 274 CURVE SMOOTH",
"520 416 OFFCURVE",
"438 500 OFFCURVE",
"294 500 CURVE SMOOTH",
"135 500 OFFCURVE",
"31 397 OFFCURVE",
"31 243 CURVE SMOOTH",
"31 86 OFFCURVE",
"138 -10 OFFCURVE",
"317 -10 CURVE SMOOTH"
);
}
);
width = 564;
},
{
anchors = (
{
name = "#entry";
position = "{81, 245}";
},
{
name = bottom;
position = "{263, 0}";
},
{
name = ogonek;
position = "{437, 10}";
},
{
name = top;
position = "{268, 480}";
}
);
layerId = "0B2E441B-685E-400D-9B9B-E078DEED62EF";
paths = (
{
closed = 1;
nodes = (
"351 -10 OFFCURVE",
"400 5 OFFCURVE",
"447 38 CURVE",
"439 50 LINE",
"391 19 OFFCURVE",
"348 6 OFFCURVE",
"299 6 CURVE SMOOTH",
"172 6 OFFCURVE",
"92 94 OFFCURVE",
"92 241 CURVE SMOOTH",
"92 377 OFFCURVE",
"160 468 OFFCURVE",
"271 468 CURVE SMOOTH",
"378 468 OFFCURVE",
"441 384 OFFCURVE",
"441 256 CURVE",
"80 256 LINE",
"80 239 LINE",
"461 239 LINE",
"462 246 OFFCURVE",
"462 251 OFFCURVE",
"462 259 CURVE SMOOTH",
"462 392 OFFCURVE",
"389 486 OFFCURVE",
"273 486 CURVE SMOOTH",
"154 486 OFFCURVE",
"70 386 OFFCURVE",
"70 239 CURVE SMOOTH",
"70 87 OFFCURVE",
"159 -10 OFFCURVE",
"297 -10 CURVE SMOOTH"
);
}
);
width = 525;
}
);
note = e;
unicode = 0065;
},
{
glyphname = f;
lastChange = "2017-10-07 18:01:08 +0000";
layers = (
{
anchors = (
{
name = "#hook";
position = "{144, 0}";
},
{
name = bottom;
position = "{143, 0}";
},
{
name = top;
position = "{270, 739}";
}
);
layerId = "F333AEC5-BB61-4D5E-9EDD-6124322D28F2";
paths = (
{
closed = 1;
nodes = (
"183 0 LINE",
"183 587 LINE SMOOTH",
"183 648 OFFCURVE",
"211 681 OFFCURVE",
"266 681 CURVE SMOOTH",
"293 681 OFFCURVE",
"326 673 OFFCURVE",
"351 662 CURVE",
"370 725 LINE",
"339 741 OFFCURVE",
"306 749 OFFCURVE",
"273 749 CURVE SMOOTH",
"174 749 OFFCURVE",
"103 678 OFFCURVE",
"103 577 CURVE SMOOTH",
"103 0 LINE"
);
},
{
closed = 1;
nodes = (
"333 415 LINE",
"333 482 LINE",
"31 482 LINE",
"31 415 LINE"
);
}
);
width = 357;
},
{
anchors = (
{
name = "#hook";
position = "{170, 0}";
},
{
name = bottom;
position = "{170, 0}";
},
{
name = top;
position = "{322, 739}";
}
);
layerId = "51C2DFEF-3776-4D13-9284-96485B799B57";
paths = (
{
closed = 1;
nodes = (
"261 0 LINE",
"261 534 LINE SMOOTH",
"261 583 OFFCURVE",
"291 607 OFFCURVE",
"337 607 CURVE SMOOTH",
"359 607 OFFCURVE",
"395 601 OFFCURVE",
"417 594 CURVE",
"449 727 LINE",
"411 741 OFFCURVE",
"369 749 OFFCURVE",
"325 749 CURVE SMOOTH",
"179 749 OFFCURVE",
"88 662 OFFCURVE",
"88 518 CURVE SMOOTH",
"88 0 LINE"
);
},
{
closed = 1;
nodes = (
"401 355 LINE",
"401 490 LINE",
"28 490 LINE",
"28 355 LINE"
);
}
);
width = 416;
},
{
anchors = (
{
name = "#hook";
position = "{123, 0}";
},
{
name = bottom;
position = "{122, 0}";
},
{
name = top;
position = "{223, 739}";
}
);
layerId = "0B2E441B-685E-400D-9B9B-E078DEED62EF";
paths = (
{
closed = 1;
nodes = (
"132 0 LINE",
"132 636 LINE SMOOTH",
"132 693 OFFCURVE",
"170 731 OFFCURVE",
"228 731 CURVE SMOOTH",
"249 731 OFFCURVE",
"273 726 OFFCURVE",
"295 716 CURVE",
"302 731 LINE",
"277 743 OFFCURVE",
"252 749 OFFCURVE",
"229 749 CURVE SMOOTH",
"161 749 OFFCURVE",
"112 699 OFFCURVE",
"112 631 CURVE SMOOTH",
"112 0 LINE"
);
},
{
closed = 1;
nodes = (
"283 463 LINE",
"283 480 LINE",
"32 480 LINE",
"32 463 LINE"
);
}
);
width = 313;
}
);
note = f;
unicode = 0066;
},
{
glyphname = h;
lastChange = "2017-10-07 18:01:07 +0000";
layers = (
{
anchors = (
{
name = bottom;
position = "{288, 0}";
},
{
name = center;
position = "{156, 608}";
},
{
name = top;
position = "{294, 739}";
}
);
background = {
components = (
{
name = _stem.d;
transform = "{1, 0, 0, 1, 312, 0}";
},
{
name = _bowl.d;
transform = "{1, 0, 0, 1, -6, 0}";
}
);
};
components = (
{
name = _stem.h;
},
{
name = _part.shoulder.n;
piece = {
"Crotch depth" = -5.68366;
};
transform = "{1, 0, 0, 1, 94, 0}";
}
);
layerId = "F333AEC5-BB61-4D5E-9EDD-6124322D28F2";
width = 580;
},
{
anchors = (
{
name = bottom;
position = "{310, 0}";
},
{
name = center;
position = "{236, 600}";
},
{
name = top;
position = "{310, 490}";
}
);
components = (
{
name = _stem.h;
transform = "{1, 0, 0, 1, -12, 0}";
},
{
name = _part.shoulder.n;
piece = {
"Crotch depth" = -10;
};
transform = "{1, 0, 0, 1, 143, 0}";
}
);
layerId = "51C2DFEF-3776-4D13-9284-96485B799B57";
width = 619;
},
{
anchors = (
{
name = bottom;
position = "{281, 0}";
},
{
name = center;
position = "{170, 607}";
},
{
name = top;
position = "{301, 739}";
}
);
components = (
{
name = _stem.h;
transform = "{1, 0, 0, 1, -36, 0}";
},
{
name = _part.shoulder.n;
piece = {
"Crotch depth" = -2.33547;
};
transform = "{1, 0, 0, 1, 7, 0}";
}
);
layerId = "0B2E441B-685E-400D-9B9B-E078DEED62EF";
width = 560;
},
{
associatedMasterId = "0B2E441B-685E-400D-9B9B-E078DEED62EF";
layerId = "D8BCD29D-2EC0-41B9-85E4-32E264350C95";
name = "Sep 11 17, 19:08";
paths = (
{
closed = 1;
nodes = (
"120 0 LINE",
"120 739 LINE",
"100 739 LINE",
"100 0 LINE"
);
},
{
closed = 1;
nodes = (
"478 0 LINE",
"478 338 LINE SMOOTH",
"478 429 OFFCURVE",
"410 490 OFFCURVE",
"308 490 CURVE SMOOTH",
"238 490 OFFCURVE",
"170 462 OFFCURVE",
"112 407 CURVE",
"112 391 LINE",
"173 444 OFFCURVE",
"239 471 OFFCURVE",
"303 471 CURVE SMOOTH",
"396 471 OFFCURVE",
"458 414 OFFCURVE",
"458 328 CURVE SMOOTH",
"458 0 LINE"
);
}
);
width = 541;
}
);
note = h;
unicode = 0068;
},
{
glyphname = idotless;
lastChange = "2017-10-07 07:34:19 +0000";
layers = (
{
anchors = (
{
name = bottom;
position = "{128, 0}";
},
{
name = ogonek;
position = "{150, 10}";
},
{
name = top;
position = "{128, 482}";
}
);
layerId = "F333AEC5-BB61-4D5E-9EDD-6124322D28F2";
paths = (
{
closed = 1;
nodes = (
"168 0 LINE",
"168 482 LINE",
"88 482 LINE",
"88 0 LINE"
);
}
);
width = 256;
},
{
anchors = (
{
name = bottom;
position = "{155, 0}";
},
{
name = ogonek;
position = "{188, 10}";
},
{
name = top;
position = "{155, 490}";
}
);
layerId = "51C2DFEF-3776-4D13-9284-96485B799B57";
paths = (
{
closed = 1;
nodes = (
"241 0 LINE",
"241 490 LINE",
"68 490 LINE",
"68 0 LINE"
);
}
);
width = 309;
},
{
anchors = (
{
name = bottom;
position = "{113, 0}";
},
{
name = ogonek;
position = "{122, 10}";
},
{
name = top;
position = "{113, 480}";
}
);
layerId = "0B2E441B-685E-400D-9B9B-E078DEED62EF";
paths = (
{
closed = 1;
nodes = (
"124 0 LINE",
"124 480 LINE",
"103 480 LINE",
"103 0 LINE"
);
}
);
width = 227;
}
);
note = dotlessi;
unicode = 0131;
},
{
glyphname = jdotless;
lastChange = "2017-10-08 09:30:49 +0000";
layers = (
{
anchors = (
{
name = bottom;
position = "{129, 0}";
},
{
name = top;
position = "{129, 482}";
}
);
layerId = "F333AEC5-BB61-4D5E-9EDD-6124322D28F2";
paths = (
{
closed = 1;
nodes = (
"120 -185 OFFCURVE",
"169 -117 OFFCURVE",
"169 -23 CURVE SMOOTH",
"169 482 LINE",
"89 482 LINE",
"89 -35 LINE SMOOTH",
"89 -97 OFFCURVE",
"59 -145 OFFCURVE",
"-1 -179 CURVE",
"25 -227 LINE"
);
}
);
width = 257;
},
{
anchors = (
{
name = bottom;
position = "{144, 0}";
},
{
name = top;
position = "{155, 490}";
}
);
layerId = "51C2DFEF-3776-4D13-9284-96485B799B57";
paths = (
{
closed = 1;
nodes = (
"156 -178 OFFCURVE",
"241 -74 OFFCURVE",
"241 51 CURVE SMOOTH",
"241 490 LINE",
"68 490 LINE",
"68 51 LINE SMOOTH",
"68 -20 OFFCURVE",
"23 -86 OFFCURVE",
"-44 -115 CURVE",
"12 -227 LINE"
);
}
);
width = 309;
},
{
anchors = (
{
name = bottom;
position = "{114, 0}";
},
{
name = top;
position = "{114, 480}";
}
);
layerId = "0B2E441B-685E-400D-9B9B-E078DEED62EF";
paths = (
{
closed = 1;
nodes = (
"82 -194 OFFCURVE",
"125 -131 OFFCURVE",
"125 -67 CURVE SMOOTH",
"125 480 LINE",
"104 480 LINE",
"104 -67 LINE SMOOTH",
"104 -125 OFFCURVE",
"67 -181 OFFCURVE",
"11 -209 CURVE",
"18 -222 LINE"
);
}
);
width = 228;
}
);
note = uni0237;
unicode = 0237;
},
{
glyphname = l;
lastChange = "2017-10-08 14:28:36 +0000";
layers = (
{
anchors = (
{
name = "#periodcentered";
position = "{269, 353}";
},
{
name = bottom;
position = "{168, 0}";
},
{
name = center;
position = "{147, 381}";
},
{
name = top;
position = "{125, 739}";
},
{
name = topright;
position = "{255, 482}";
}
);
layerId = "F333AEC5-BB61-4D5E-9EDD-6124322D28F2";
paths = (
{
closed = 1;
nodes = (
"230 -6 OFFCURVE",
"258 2 OFFCURVE",
"278 17 CURVE",
"263 70 LINE",
"246 61 OFFCURVE",
"231 57 OFFCURVE",
"217 57 CURVE SMOOTH",
"185 57 OFFCURVE",
"164 82 OFFCURVE",
"164 118 CURVE SMOOTH",
"164 739 LINE",
"84 739 LINE",
"84 108 LINE SMOOTH",
"84 40 OFFCURVE",
"130 -6 OFFCURVE",
"199 -6 CURVE SMOOTH"
);
}
);
width = 299;
},
{
anchors = (
{
name = "#periodcentered";
position = "{314, 353}";
},
{
name = bottom;
position = "{185, 0}";
},
{
name = center;
position = "{147, 397}";
},
{
name = top;
position = "{139, 739}";
},
{
name = topright;
position = "{324, 490}";
}
);
layerId = "51C2DFEF-3776-4D13-9284-96485B799B57";
paths = (
{
closed = 1;
nodes = (
"298 -8 OFFCURVE",
"333 1 OFFCURVE",
"374 21 CURVE",
"345 139 LINE",
"327 134 OFFCURVE",
"312 130 OFFCURVE",
"297 130 CURVE SMOOTH",
"258 130 OFFCURVE",
"227 159 OFFCURVE",
"227 201 CURVE SMOOTH",
"227 739 LINE",
"57 739 LINE",
"57 182 LINE SMOOTH",
"57 61 OFFCURVE",
"139 -8 OFFCURVE",
"256 -8 CURVE SMOOTH"
);
}
);
width = 381;
},
{
anchors = (
{
name = "#periodcentered";
position = "{207, 353}";
},
{
name = bottom;
position = "{155, 0}";
},
{
name = center;
position = "{136, 393}";
},
{
name = top;
position = "{112, 739}";
},
{
name = topright;
position = "{195, 480}";
}
);
layerId = "0B2E441B-685E-400D-9B9B-E078DEED62EF";
paths = (
{
closed = 1;
nodes = (
"200 -2 OFFCURVE",
"222 4 OFFCURVE",
"238 15 CURVE",
"231 27 LINE",
"219 18 OFFCURVE",
"201 14 OFFCURVE",
"184 14 CURVE SMOOTH",
"145 14 OFFCURVE",
"121 41 OFFCURVE",
"121 77 CURVE SMOOTH",
"121 739 LINE",
"101 739 LINE",
"101 73 LINE SMOOTH",
"101 28 OFFCURVE",
"132 -2 OFFCURVE",
"180 -2 CURVE SMOOTH"
);
}
);
width = 263;
}
);
note = l;
unicode = 006C;
},
{
glyphname = n;
lastChange = "2017-10-07 18:00:49 +0000";
layers = (
{
anchors = (
{
name = bottom;
position = "{291, 0}";
},
{
name = top;
position = "{291, 482}";
}
);
components = (
{
name = _stem.n;
},
{
name = _part.shoulder.n;
transform = "{1, 0, 0, 1, 90, 0}";
}
);
layerId = "F333AEC5-BB61-4D5E-9EDD-6124322D28F2";
width = 576;
},
{
anchors = (
{
name = bottom;
position = "{310, 0}";
},
{
name = top;
position = "{310, 490}";
}
);
components = (
{
name = _stem.n;
transform = "{1, 0, 0, 1, -12, 0}";
},
{
name = _part.shoulder.n;
transform = "{1, 0, 0, 1, 143, 0}";
}
);
layerId = "51C2DFEF-3776-4D13-9284-96485B799B57";
width = 619;
},
{
anchors = (
{
name = bottom;
position = "{280, 0}";
},
{
name = top;
position = "{276, 480}";
}
);
components = (
{
name = _stem.n;
transform = "{1, 0, 0, 1, 3, 0}";
},
{
name = _part.shoulder.n;
transform = "{1, 0, 0, 1, 6, 0}";
}
);
layerId = "0B2E441B-685E-400D-9B9B-E078DEED62EF";
width = 559;
},
{
associatedMasterId = "0B2E441B-685E-400D-9B9B-E078DEED62EF";
layerId = "C61958B6-84F7-4994-9D37-EADF52FA5068";
name = "Sep 11 17, 18:57";
paths = (
{
closed = 1;
nodes = (
"482 0 LINE",
"482 338 LINE SMOOTH",
"482 429 OFFCURVE",
"414 490 OFFCURVE",
"312 490 CURVE SMOOTH",
"242 490 OFFCURVE",
"174 462 OFFCURVE",
"116 407 CURVE",
"116 391 LINE",
"177 444 OFFCURVE",
"243 471 OFFCURVE",
"307 471 CURVE SMOOTH",
"400 471 OFFCURVE",
"462 414 OFFCURVE",
"462 328 CURVE SMOOTH",
"462 0 LINE"
);
},
{
closed = 1;
nodes = (
"120 0 LINE",
"120 404 LINE",
"116 480 LINE",
"100 480 LINE",
"100 0 LINE"
);
}
);
width = 574;
}
);
note = n;
unicode = 006E;
},
{
glyphname = o;
lastChange = "2017-10-07 18:00:49 +0000";
layers = (
{
anchors = (
{
name = "#exit";
position = "{476, 236}";
},
{
name = bottom;
position = "{286, 0}";
},
{
name = center;
position = "{286, 241}";
},
{
name = ogonek;
position = "{376, 10}";
},
{
name = top;
position = "{286, 482}";
},
{
name = topright;
position = "{460, 482}";
}
);
background = {
components = (
{
name = _stem.d;
transform = "{1, 0, 0, 1, 300, 0}";
},
{
name = _bowl.d;
transform = "{1, 0, 0, 1, -18, 0}";
}
);
};
layerId = "F333AEC5-BB61-4D5E-9EDD-6124322D28F2";
paths = (
{
closed = 1;
nodes = (
"421 -10 OFFCURVE",
"517 93 OFFCURVE",
"517 247 CURVE SMOOTH",
"517 396 OFFCURVE",
"428 492 OFFCURVE",
"291 492 CURVE SMOOTH",
"149 492 OFFCURVE",
"54 390 OFFCURVE",
"54 236 CURVE SMOOTH",
"54 87 OFFCURVE",
"142 -10 OFFCURVE",
"279 -10 CURVE SMOOTH"
);
},
{
closed = 1;
nodes = (
"197 60 OFFCURVE",
"134 135 OFFCURVE",
"134 246 CURVE SMOOTH",
"134 353 OFFCURVE",
"191 422 OFFCURVE",
"280 422 CURVE SMOOTH",
"373 422 OFFCURVE",
"437 346 OFFCURVE",
"437 236 CURVE SMOOTH",
"437 130 OFFCURVE",
"379 60 OFFCURVE",
"290 60 CURVE SMOOTH"
);
}
);
width = 571;
},
{
anchors = (
{
name = "#exit";
position = "{475, 236}";
},
{
name = bottom;
position = "{295, 0}";
},
{
name = center;
position = "{295, 245}";
},
{
name = ogonek;
position = "{312, 10}";
},
{
name = top;
position = "{295, 490}";
},
{
name = topright;
position = "{568, 490}";
}
);
layerId = "51C2DFEF-3776-4D13-9284-96485B799B57";
paths = (
{
closed = 1;
nodes = (
"445 -10 OFFCURVE",
"559 104 OFFCURVE",
"559 255 CURVE SMOOTH",
"559 398 OFFCURVE",
"456 500 OFFCURVE",
"306 500 CURVE SMOOTH",
"147 500 OFFCURVE",
"30 384 OFFCURVE",
"30 232 CURVE SMOOTH",
"30 88 OFFCURVE",
"135 -10 OFFCURVE",
"284 -10 CURVE SMOOTH"
);
},
{
closed = 1;
nodes = (
"248 134 OFFCURVE",
"206 176 OFFCURVE",
"206 246 CURVE SMOOTH",
"206 307 OFFCURVE",
"238 356 OFFCURVE",
"291 356 CURVE SMOOTH",
"343 356 OFFCURVE",
"383 310 OFFCURVE",
"383 240 CURVE SMOOTH",
"383 178 OFFCURVE",
"352 134 OFFCURVE",
"299 134 CURVE SMOOTH"
);
}
);
width = 589;
},
{
anchors = (
{
name = "#exit";
position = "{477, 236}";
},
{
name = bottom;
position = "{280, 0}";
},
{
name = center;
position = "{280, 240}";
},
{
name = ogonek;
position = "{354, 10}";
},
{
name = top;
position = "{272, 480}";
},
{
name = topright;
position = "{442, 480}";
}
);
layerId = "0B2E441B-685E-400D-9B9B-E078DEED62EF";
paths = (
{
closed = 1;
nodes = (
"404 -10 OFFCURVE",
"488 90 OFFCURVE",
"488 240 CURVE SMOOTH",
"488 389 OFFCURVE",
"405 486 OFFCURVE",
"281 486 CURVE SMOOTH",
"155 486 OFFCURVE",
"71 386 OFFCURVE",
"71 237 CURVE SMOOTH",
"71 89 OFFCURVE",
"154 -10 OFFCURVE",
"279 -10 CURVE SMOOTH"
);
},
{
closed = 1;
nodes = (
"166 8 OFFCURVE",
"92 101 OFFCURVE",
"92 239 CURVE SMOOTH",
"92 374 OFFCURVE",
"163 468 OFFCURVE",
"278 468 CURVE SMOOTH",
"392 468 OFFCURVE",
"467 378 OFFCURVE",
"467 237 CURVE SMOOTH",
"467 97 OFFCURVE",
"393 8 OFFCURVE",
"281 8 CURVE SMOOTH"
);
}
);
width = 559;
}
);
note = o;
unicode = 006F;
},
{
glyphname = oe;
lastChange = "2017-10-08 14:13:42 +0000";
layers = (
{
anchors = (
{
name = bottom;
position = "{460, 0}";
},
{
name = top;
position = "{460, 482}";
}
);
layerId = "F333AEC5-BB61-4D5E-9EDD-6124322D28F2";
paths = (
{
closed = 1;
nodes = (
"423 -10 OFFCURVE",
"509 93 OFFCURVE",
"509 247 CURVE SMOOTH",
"509 396 OFFCURVE",
"430 492 OFFCURVE",
"293 492 CURVE SMOOTH",
"151 492 OFFCURVE",
"56 390 OFFCURVE",
"56 236 CURVE SMOOTH",
"56 87 OFFCURVE",
"144 -10 OFFCURVE",
"281 -10 CURVE SMOOTH"
);
},
{
closed = 1;
nodes = (
"199 60 OFFCURVE",
"136 135 OFFCURVE",
"136 246 CURVE SMOOTH",
"136 353 OFFCURVE",
"193 422 OFFCURVE",
"282 422 CURVE SMOOTH",
"375 422 OFFCURVE",
"439 346 OFFCURVE",
"439 236 CURVE SMOOTH",
"439 130 OFFCURVE",
"381 60 OFFCURVE",
"292 60 CURVE SMOOTH"
);
},
{
closed = 1;
nodes = (
"740 -10 OFFCURVE",
"787 1 OFFCURVE",
"845 27 CURVE",
"828 83 LINE",
"783 64 OFFCURVE",
"741 55 OFFCURVE",
"702 55 CURVE SMOOTH",
"588 55 OFFCURVE",
"521 130 OFFCURVE",
"521 255 CURVE SMOOTH",
"521 364 OFFCURVE",
"570 424 OFFCURVE",
"658 424 CURVE SMOOTH",
"740 424 OFFCURVE",
"788 371 OFFCURVE",
"788 279 CURVE",
"507 279 LINE",
"507 219 LINE",
"859 219 LINE",
"861 234 OFFCURVE",
"863 269 OFFCURVE",
"863 288 CURVE SMOOTH",
"863 409 OFFCURVE",
"783 492 OFFCURVE",
"664 492 CURVE SMOOTH",
"530 492 OFFCURVE",
"439 388 OFFCURVE",
"439 236 CURVE SMOOTH",
"439 82 OFFCURVE",
"532 -10 OFFCURVE",
"687 -10 CURVE SMOOTH"
);
}
);
width = 919;
},
{
layerId = "51C2DFEF-3776-4D13-9284-96485B799B57";
width = 600;
},
{
anchors = (
{
name = bottom;
position = "{463, 0}";
},
{
name = top;
position = "{463, 480}";
}
);
layerId = "0B2E441B-685E-400D-9B9B-E078DEED62EF";
paths = (
{
closed = 1;
nodes = (
"405 -10 OFFCURVE",
"487 90 OFFCURVE",
"487 240 CURVE SMOOTH",
"487 389 OFFCURVE",
"406 486 OFFCURVE",
"282 486 CURVE SMOOTH",
"156 486 OFFCURVE",
"72 386 OFFCURVE",
"72 237 CURVE SMOOTH",
"72 89 OFFCURVE",
"155 -10 OFFCURVE",
"280 -10 CURVE SMOOTH"
);
},
{
closed = 1;
nodes = (
"167 8 OFFCURVE",
"93 101 OFFCURVE",
"93 239 CURVE SMOOTH",
"93 374 OFFCURVE",
"164 468 OFFCURVE",
"280 468 CURVE SMOOTH",
"393 468 OFFCURVE",
"468 378 OFFCURVE",
"468 237 CURVE SMOOTH",
"468 97 OFFCURVE",
"394 8 OFFCURVE",
"282 8 CURVE SMOOTH"
);
},
{
closed = 1;
nodes = (
"748 -19 OFFCURVE",
"797 -4 OFFCURVE",
"844 29 CURVE",
"836 41 LINE",
"788 10 OFFCURVE",
"744 -3 OFFCURVE",
"697 -3 CURVE SMOOTH",
"573 -3 OFFCURVE",
"487 87 OFFCURVE",
"487 234 CURVE SMOOTH",
"487 367 OFFCURVE",
"557 459 OFFCURVE",
"669 459 CURVE SMOOTH",
"775 459 OFFCURVE",
"838 375 OFFCURVE",
"838 247 CURVE",
"477 247 LINE",
"477 230 LINE",
"858 230 LINE",
"859 237 OFFCURVE",
"859 242 OFFCURVE",
"859 250 CURVE SMOOTH",
"859 383 OFFCURVE",
"786 477 OFFCURVE",
"670 477 CURVE SMOOTH",
"551 477 OFFCURVE",
"468 377 OFFCURVE",
"468 230 CURVE SMOOTH",
"468 78 OFFCURVE",
"556 -19 OFFCURVE",
"694 -19 CURVE SMOOTH"
);
}
);
width = 926;
}
);
leftMetricsKey = o;
rightMetricsKey = e;
unicode = 0153;
},
{
glyphname = r;
lastChange = "2017-10-08 08:56:50 +0000";
layers = (
{
anchors = (
{
name = bottom;
position = "{127, 0}";
},
{
name = top;
position = "{232, 482}";
}
);
layerId = "F333AEC5-BB61-4D5E-9EDD-6124322D28F2";
paths = (
{
closed = 1;
nodes = (
"168 0 LINE",
"168 370 LINE",
"154 482 LINE",
"88 482 LINE",
"88 0 LINE"
);
},
{
closed = 1;
nodes = (
"179 356 OFFCURVE",
"244 409 OFFCURVE",
"303 409 CURVE SMOOTH",
"320 409 OFFCURVE",
"345 404 OFFCURVE",
"355 400 CURVE",
"372 477 LINE",
"359 483 OFFCURVE",
"330 487 OFFCURVE",
"311 487 CURVE SMOOTH",
"247 487 OFFCURVE",
"184 443 OFFCURVE",
"150 374 CURVE",
"150 283 LINE"
);
}
);
width = 395;
},
{
anchors = (
{
name = bottom;
position = "{127, 0}";
},
{
name = top;
position = "{212, 482}";
}
);
associatedMasterId = "F333AEC5-BB61-4D5E-9EDD-6124322D28F2";
layerId = "198C3889-C046-4B23-B5BC-3ACCF485BAE2";
name = "Aug 11 17, 19:31";
paths = (
{
closed = 1;
nodes = (
"168 0 LINE",
"168 370 LINE",
"154 482 LINE",
"88 482 LINE",
"88 0 LINE"
);
},
{
closed = 1;
nodes = (
"182 381 OFFCURVE",
"238 419 OFFCURVE",
"293 419 CURVE SMOOTH",
"315 419 OFFCURVE",
"345 413 OFFCURVE",
"365 405 CURVE",
"382 480 LINE",
"362 487 OFFCURVE",
"329 492 OFFCURVE",
"304 492 CURVE SMOOTH",
"242 492 OFFCURVE",
"185 461 OFFCURVE",
"150 399 CURVE",
"150 313 LINE"
);
}
);
width = 394;
},
{
anchors = (
{
name = bottom;
position = "{155, 0}";
},
{
name = top;
position = "{232, 490}";
}
);
layerId = "51C2DFEF-3776-4D13-9284-96485B799B57";
paths = (
{
closed = 1;
nodes = (
"241 0 LINE",
"241 349 LINE",
"213 490 LINE",
"68 490 LINE",
"68 0 LINE"
);
},
{
closed = 1;
nodes = (
"239 298 OFFCURVE",
"296 342 OFFCURVE",
"354 342 CURVE SMOOTH",
"377 342 OFFCURVE",
"408 335 OFFCURVE",
"430 325 CURVE",
"457 474 LINE",
"432 487 OFFCURVE",
"403 494 OFFCURVE",
"374 494 CURVE SMOOTH",
"306 494 OFFCURVE",
"245 457 OFFCURVE",
"210 392 CURVE",
"210 232 LINE"
);
}
);
width = 469;
},
{
anchors = (
{
name = bottom;
position = "{112, 0}";
},
{
name = top;
position = "{197, 480}";
}
);
layerId = "0B2E441B-685E-400D-9B9B-E078DEED62EF";
paths = (
{
closed = 1;
nodes = (
"124 0 LINE",
"124 378 LINE",
"120 480 LINE",
"103 480 LINE",
"103 0 LINE"
);
},
{
closed = 1;
nodes = (
"151 422 OFFCURVE",
"201 462 OFFCURVE",
"256 462 CURVE SMOOTH",
"270 462 OFFCURVE",
"286 459 OFFCURVE",
"302 452 CURVE",
"308 470 LINE",
"295 476 OFFCURVE",
"276 480 OFFCURVE",
"258 480 CURVE SMOOTH",
"200 480 OFFCURVE",
"149 443 OFFCURVE",
"116 374 CURVE",
"116 351 LINE"
);
}
);
width = 338;
}
);
note = r;
unicode = 0072;
},
{
glyphname = s;
lastChange = "2017-10-07 18:01:07 +0000";
layers = (
{
anchors = (
{
name = bottom;
position = "{239, 0}";
},
{
name = top;
position = "{234, 482}";
}
);
layerId = "F333AEC5-BB61-4D5E-9EDD-6124322D28F2";
paths = (
{
closed = 1;
nodes = (
"348 -10 OFFCURVE",
"424 48 OFFCURVE",
"424 137 CURVE SMOOTH",
"424 311 OFFCURVE",
"136 253 OFFCURVE",
"136 357 CURVE SMOOTH",
"136 400 OFFCURVE",
"187 424 OFFCURVE",
"253 424 CURVE SMOOTH",
"294 424 OFFCURVE",
"342 415 OFFCURVE",
"383 401 CURVE",
"402 466 LINE",
"361 483 OFFCURVE",
"311 492 OFFCURVE",
"264 492 CURVE SMOOTH",
"144 492 OFFCURVE",
"56 433 OFFCURVE",
"56 345 CURVE SMOOTH",
"56 185 OFFCURVE",
"344 244 OFFCURVE",
"344 127 CURVE SMOOTH",
"344 84 OFFCURVE",
"305 58 OFFCURVE",
"238 58 CURVE SMOOTH",
"188 58 OFFCURVE",
"126 72 OFFCURVE",
"68 95 CURVE",
"49 28 LINE",
"105 4 OFFCURVE",
"173 -10 OFFCURVE",
"231 -10 CURVE SMOOTH"
);
}
);
width = 470;
},
{
associatedMasterId = "F333AEC5-BB61-4D5E-9EDD-6124322D28F2";
layerId = "8AF66680-1C48-45CA-BDE5-584DAE6DFAE0";
name = "Aug 3 17, 22:25";
paths = (
{
closed = 1;
nodes = (
"126 492 OFFCURVE",
"47 434 OFFCURVE",
"47 342 CURVE SMOOTH",
"47 168 OFFCURVE",
"327 237 OFFCURVE",
"327 123 CURVE SMOOTH",
"327 82 OFFCURVE",
"291 60 OFFCURVE",
"230 60 CURVE SMOOTH",
"185 60 OFFCURVE",
"132 72 OFFCURVE",
"91 89 CURVE",
"74 14 LINE",
"115 0 OFFCURVE",
"166 -10 OFFCURVE",
"216 -10 CURVE SMOOTH",
"334 -10 OFFCURVE",
"410 46 OFFCURVE",
"410 137 CURVE SMOOTH",
"410 309 OFFCURVE",
"135 233 OFFCURVE",
"135 355 CURVE SMOOTH",
"135 401 OFFCURVE",
"175 422 OFFCURVE",
"236 422 CURVE SMOOTH",
"284 422 OFFCURVE",
"350 409 OFFCURVE",
"405 384 CURVE",
"422 459 LINE",
"369 479 OFFCURVE",
"305 492 OFFCURVE",
"247 492 CURVE SMOOTH"
);
}
);
width = 466;
},
{
anchors = (
{
name = bottom;
position = "{255, 0}";
},
{
name = top;
position = "{255, 490}";
}
);
layerId = "51C2DFEF-3776-4D13-9284-96485B799B57";
paths = (
{
closed = 1;
nodes = (
"393 -10 OFFCURVE",
"475 47 OFFCURVE",
"475 157 CURVE SMOOTH",
"475 348 OFFCURVE",
"213 292 OFFCURVE",
"213 343 CURVE SMOOTH",
"213 358 OFFCURVE",
"238 367 OFFCURVE",
"277 367 CURVE SMOOTH",
"311 367 OFFCURVE",
"360 360 OFFCURVE",
"419 346 CURVE",
"450 474 LINE",
"404 491 OFFCURVE",
"345 500 OFFCURVE",
"287 500 CURVE SMOOTH",
"135 500 OFFCURVE",
"44 436 OFFCURVE",
"44 327 CURVE SMOOTH",
"44 142 OFFCURVE",
"306 204 OFFCURVE",
"306 147 CURVE SMOOTH",
"306 132 OFFCURVE",
"288 123 OFFCURVE",
"238 123 CURVE SMOOTH",
"183 123 OFFCURVE",
"127 134 OFFCURVE",
"71 152 CURVE",
"39 25 LINE",
"98 3 OFFCURVE",
"164 -10 OFFCURVE",
"237 -10 CURVE SMOOTH"
);
}
);
width = 507;
},
{
anchors = (
{
name = bottom;
position = "{222, 0}";
},
{
name = top;
position = "{232, 480}";
}
);
layerId = "0B2E441B-685E-400D-9B9B-E078DEED62EF";
paths = (
{
closed = 1;
nodes = (
"338 -10 OFFCURVE",
"405 35 OFFCURVE",
"405 116 CURVE SMOOTH",
"405 294 OFFCURVE",
"88 213 OFFCURVE",
"88 356 CURVE SMOOTH",
"88 421 OFFCURVE",
"153 468 OFFCURVE",
"242 468 CURVE SMOOTH",
"289 468 OFFCURVE",
"339 455 OFFCURVE",
"382 433 CURVE",
"389 449 LINE",
"351 472 OFFCURVE",
"295 486 OFFCURVE",
"244 486 CURVE SMOOTH",
"144 486 OFFCURVE",
"67 433 OFFCURVE",
"67 354 CURVE SMOOTH",
"67 193 OFFCURVE",
"384 276 OFFCURVE",
"384 113 CURVE SMOOTH",
"384 45 OFFCURVE",
"328 8 OFFCURVE",
"240 8 CURVE SMOOTH",
"181 8 OFFCURVE",
"117 25 OFFCURVE",
"62 51 CURVE",
"56 34 LINE",
"110 7 OFFCURVE",
"176 -10 OFFCURVE",
"238 -10 CURVE SMOOTH"
);
}
);
width = 464;
}
);
note = s;
unicode = 0073;
},
{
glyphname = germandbls;
lastChange = "2017-10-06 18:26:21 +0000";
layers = (
{
layerId = "F333AEC5-BB61-4D5E-9EDD-6124322D28F2";
paths = (
{
closed = 1;
nodes = (
"483 -10 OFFCURVE",
"563 58 OFFCURVE",
"563 154 CURVE SMOOTH",
"563 302 OFFCURVE",
"373 304 OFFCURVE",
"373 387 CURVE SMOOTH",
"373 451 OFFCURVE",
"487 469 OFFCURVE",
"487 582 CURVE SMOOTH",
"487 679 OFFCURVE",
"404 749 OFFCURVE",
"290 749 CURVE SMOOTH",
"167 749 OFFCURVE",
"88 666 OFFCURVE",
"88 539 CURVE SMOOTH",
"88 0 LINE",
"168 0 LINE",
"168 548 LINE SMOOTH",
"168 633 OFFCURVE",
"208 679 OFFCURVE",
"280 679 CURVE SMOOTH",
"353 679 OFFCURVE",
"407 633 OFFCURVE",
"407 572 CURVE SMOOTH",
"407 483 OFFCURVE",
"294 468 OFFCURVE",
"294 374 CURVE SMOOTH",
"294 253 OFFCURVE",
"483 250 OFFCURVE",
"483 141 CURVE SMOOTH",
"483 94 OFFCURVE",
"439 60 OFFCURVE",
"377 60 CURVE SMOOTH",
"341 60 OFFCURVE",
"295 72 OFFCURVE",
"251 93 CURVE",
"232 26 LINE",
"273 3 OFFCURVE",
"323 -10 OFFCURVE",
"371 -10 CURVE SMOOTH"
);
}
);
width = 606;
},
{
layerId = "51C2DFEF-3776-4D13-9284-96485B799B57";
width = 600;
},
{
layerId = "0B2E441B-685E-400D-9B9B-E078DEED62EF";
paths = (
{
closed = 1;
nodes = (
"468 -10 OFFCURVE",
"534 43 OFFCURVE",
"534 134 CURVE SMOOTH",
"534 289 OFFCURVE",
"344 292 OFFCURVE",
"344 384 CURVE SMOOTH",
"344 455 OFFCURVE",
"458 466 OFFCURVE",
"458 591 CURVE SMOOTH",
"458 686 OFFCURVE",
"391 749 OFFCURVE",
"296 749 CURVE SMOOTH",
"186 749 OFFCURVE",
"118 665 OFFCURVE",
"118 539 CURVE SMOOTH",
"118 0 LINE",
"139 0 LINE",
"139 548 LINE SMOOTH",
"139 658 OFFCURVE",
"197 731 OFFCURVE",
"293 731 CURVE SMOOTH",
"377 731 OFFCURVE",
"438 674 OFFCURVE",
"438 588 CURVE SMOOTH",
"438 470 OFFCURVE",
"323 464 OFFCURVE",
"323 381 CURVE SMOOTH",
"323 275 OFFCURVE",
"513 279 OFFCURVE",
"513 132 CURVE SMOOTH",
"513 53 OFFCURVE",
"459 8 OFFCURVE",
"378 8 CURVE SMOOTH",
"334 8 OFFCURVE",
"284 21 OFFCURVE",
"238 43 CURVE",
"232 26 LINE",
"275 4 OFFCURVE",
"329 -10 OFFCURVE",
"376 -10 CURVE SMOOTH"
);
}
);
width = 600;
}
);
unicode = 00DF;
},
{
glyphname = t;
lastChange = "2017-10-07 18:01:06 +0000";
layers = (
{
anchors = (
{
name = bottom;
position = "{207, 5}";
},
{
name = center;
position = "{178, 246}";
},
{
name = top;
position = "{135, 621}";
},
{
name = topright;
position = "{292, 482}";
}
);
layerId = "F333AEC5-BB61-4D5E-9EDD-6124322D28F2";
paths = (
{
closed = 1;
nodes = (
"271 -5 OFFCURVE",
"301 3 OFFCURVE",
"326 17 CURVE",
"312 73 LINE",
"295 65 OFFCURVE",
"272 60 OFFCURVE",
"253 60 CURVE SMOOTH",
"208 60 OFFCURVE",
"178 92 OFFCURVE",
"178 140 CURVE SMOOTH",
"178 621 LINE",
"98 621 LINE",
"98 129 LINE SMOOTH",
"98 49 OFFCURVE",
"157 -5 OFFCURVE",
"239 -5 CURVE SMOOTH"
);
},
{
closed = 1;
nodes = (
"325 415 LINE",
"325 482 LINE",
"33 482 LINE",
"33 415 LINE"
);
}
);
width = 366;
},
{
associatedMasterId = "F333AEC5-BB61-4D5E-9EDD-6124322D28F2";
layerId = "8DD4D7B4-764D-4C4A-81DC-EA5BCD364777";
name = "Aug 3 17, 20:24";
paths = (
{
closed = 1;
nodes = (
"269 -10 OFFCURVE",
"312 -2 OFFCURVE",
"342 12 CURVE",
"331 69 LINE",
"312 60 OFFCURVE",
"284 55 OFFCURVE",
"261 55 CURVE SMOOTH",
"211 55 OFFCURVE",
"177 79 OFFCURVE",
"177 145 CURVE SMOOTH",
"177 621 LINE",
"97 621 LINE",
"97 134 LINE SMOOTH",
"97 36 OFFCURVE",
"153 -10 OFFCURVE",
"235 -10 CURVE SMOOTH"
);
},
{
closed = 1;
nodes = (
"324 415 LINE",
"324 482 LINE",
"32 482 LINE",
"32 415 LINE"
);
}
);
width = 371;
},
{
anchors = (
{
name = bottom;
position = "{224, 0}";
},
{
name = center;
position = "{224, 245}";
},
{
name = top;
position = "{181, 617}";
},
{
name = topright;
position = "{339, 490}";
}
);
layerId = "51C2DFEF-3776-4D13-9284-96485B799B57";
paths = (
{
closed = 1;
nodes = (
"350 -8 OFFCURVE",
"390 3 OFFCURVE",
"424 20 CURVE",
"393 138 LINE",
"375 134 OFFCURVE",
"355 130 OFFCURVE",
"338 130 CURVE SMOOTH",
"294 130 OFFCURVE",
"264 158 OFFCURVE",
"264 201 CURVE SMOOTH",
"264 617 LINE",
"94 617 LINE",
"94 176 LINE SMOOTH",
"94 60 OFFCURVE",
"180 -8 OFFCURVE",
"301 -8 CURVE SMOOTH"
);
},
{
closed = 1;
nodes = (
"400 355 LINE",
"400 490 LINE",
"16 490 LINE",
"16 355 LINE"
);
}
);
width = 451;
},
{
anchors = (
{
name = bottom;
position = "{196, 0}";
},
{
name = center;
position = "{162, 250}";
},
{
name = top;
position = "{133, 617}";
},
{
name = topright;
position = "{223, 480}";
}
);
layerId = "0B2E441B-685E-400D-9B9B-E078DEED62EF";
paths = (
{
closed = 1;
nodes = (
"249 -3 OFFCURVE",
"272 4 OFFCURVE",
"292 19 CURVE",
"285 32 LINE",
"268 19 OFFCURVE",
"249 14 OFFCURVE",
"228 14 CURVE SMOOTH",
"177 14 OFFCURVE",
"143 47 OFFCURVE",
"143 108 CURVE SMOOTH",
"143 617 LINE",
"122 617 LINE",
"122 103 LINE SMOOTH",
"122 32 OFFCURVE",
"163 -3 OFFCURVE",
"222 -3 CURVE SMOOTH"
);
},
{
closed = 1;
nodes = (
"291 463 LINE",
"291 480 LINE",
"30 480 LINE",
"30 463 LINE"
);
}
);
width = 333;
}
);
note = t;
unicode = 0074;
},
{
glyphname = v;
lastChange = "2017-10-08 08:30:51 +0000";
layers = (
{
anchors = (
{
name = "#ytail";
position = "{249, 0}";
},
{
name = bottom;
position = "{252, 0}";
},
{
name = top;
position = "{252, 482}";
}
);
layerId = "F333AEC5-BB61-4D5E-9EDD-6124322D28F2";
paths = (
{
closed = 1;
nodes = (
"292 0 LINE",
"480 482 LINE",
"400 482 LINE",
"233 16 LINE",
"277 16 LINE",
"113 482 LINE",
"24 482 LINE",
"214 0 LINE"
);
}
);
width = 504;
},
{
anchors = (
{
name = "#ytail";
position = "{280, 0}";
},
{
name = bottom;
position = "{290, 0}";
},
{
name = top;
position = "{290, 490}";
}
);
layerId = "51C2DFEF-3776-4D13-9284-96485B799B57";
paths = (
{
closed = 1;
nodes = (
"384 0 LINE",
"578 490 LINE",
"399 490 LINE",
"281 124 LINE",
"306 124 LINE",
"188 490 LINE",
"2 490 LINE",
"196 0 LINE"
);
}
);
width = 580;
},
{
anchors = (
{
name = "#ytail";
position = "{238, 0}";
},
{
name = bottom;
position = "{237, 0}";
},
{
name = top;
position = "{237, 480}";
}
);
layerId = "0B2E441B-685E-400D-9B9B-E078DEED62EF";
paths = (
{
closed = 1;
nodes = (
"247 0 LINE",
"441 480 LINE",
"420 480 LINE",
"234 14 LINE",
"243 14 LINE",
"55 480 LINE",
"32 480 LINE",
"229 0 LINE"
);
}
);
width = 473;
}
);
note = v;
unicode = 0076;
},
{
glyphname = w;
lastChange = "2017-10-08 08:31:09 +0000";
layers = (
{
anchors = (
{
name = bottom;
position = "{407, 0}";
},
{
name = top;
position = "{407, 482}";
}
);
layerId = "F333AEC5-BB61-4D5E-9EDD-6124322D28F2";
paths = (
{
closed = 1;
nodes = (
"277 0 LINE",
"423 442 LINE",
"390 442 LINE",
"532 0 LINE",
"613 0 LINE",
"789 482 LINE",
"709 482 LINE",
"560 35 LINE",
"593 35 LINE",
"458 482 LINE",
"367 482 LINE",
"226 35 LINE",
"258 35 LINE",
"116 482 LINE",
"25 482 LINE",
"201 0 LINE"
);
}
);
width = 814;
},
{
anchors = (
{
name = bottom;
position = "{437, 0}";
},
{
name = top;
position = "{437, 490}";
}
);
layerId = "51C2DFEF-3776-4D13-9284-96485B799B57";
paths = (
{
closed = 1;
nodes = (
"362 0 LINE",
"463 337 LINE",
"405 337 LINE",
"515 0 LINE",
"704 0 LINE",
"870 490 LINE",
"705 490 LINE",
"585 86 LINE",
"641 86 LINE",
"511 490 LINE",
"368 490 LINE",
"247 76 LINE",
"302 76 LINE",
"182 490 LINE",
"4 490 LINE",
"181 0 LINE"
);
}
);
width = 875;
},
{
anchors = (
{
name = bottom;
position = "{383, 0}";
},
{
name = top;
position = "{383, 480}";
}
);
layerId = "0B2E441B-685E-400D-9B9B-E078DEED62EF";
paths = (
{
closed = 1;
nodes = (
"221 0 LINE",
"384 460 LINE",
"378 460 LINE",
"547 0 LINE",
"561 0 LINE",
"732 480 LINE",
"712 480 LINE",
"552 25 LINE",
"559 25 LINE",
"392 480 LINE",
"371 480 LINE",
"212 25 LINE",
"217 25 LINE",
"54 480 LINE",
"32 480 LINE",
"206 0 LINE"
);
}
);
width = 764;
}
);
note = w;
unicode = 0077;
},
{
glyphname = x;
lastChange = "2017-10-07 18:01:06 +0000";
layers = (
{
anchors = (
{
name = bottom;
position = "{246, 0}";
},
{
name = top;
position = "{246, 482}";
}
);
layerId = "F333AEC5-BB61-4D5E-9EDD-6124322D28F2";
paths = (
{
closed = 1;
nodes = (
"117 0 LINE",
"267 214 LINE",
"470 482 LINE",
"379 482 LINE",
"226 264 LINE",
"26 0 LINE"
);
},
{
closed = 1;
nodes = (
"461 0 LINE",
"263 272 LINE",
"117 482 LINE",
"25 482 LINE",
"220 211 LINE",
"369 0 LINE"
);
}
);
width = 493;
},
{
anchors = (
{
name = bottom;
position = "{283, 0}";
},
{
name = top;
position = "{282, 490}";
}
);
layerId = "51C2DFEF-3776-4D13-9284-96485B799B57";
paths = (
{
closed = 1;
nodes = (
"187 0 LINE",
"331 209 LINE",
"557 490 LINE",
"375 490 LINE",
"232 297 LINE",
"5 0 LINE"
);
},
{
closed = 1;
nodes = (
"560 0 LINE",
"352 268 LINE",
"202 490 LINE",
"3 490 LINE",
"199 228 LINE",
"362 0 LINE"
);
}
);
width = 562;
},
{
anchors = (
{
name = bottom;
position = "{223, 0}";
},
{
name = top;
position = "{221, 480}";
}
);
layerId = "0B2E441B-685E-400D-9B9B-E078DEED62EF";
paths = (
{
closed = 1;
nodes = (
"61 0 LINE",
"224 235 LINE",
"391 480 LINE",
"369 480 LINE",
"214 248 LINE",
"39 0 LINE"
);
},
{
closed = 1;
nodes = (
"398 0 LINE",
"226 244 LINE",
"70 480 LINE",
"46 480 LINE",
"214 229 LINE",
"374 0 LINE"
);
}
);
width = 437;
}
);
note = x;
unicode = 0078;
},
{
glyphname = z;
lastChange = "2017-10-07 18:01:07 +0000";
layers = (
{
anchors = (
{
name = bottom;
position = "{235, 0}";
},
{
name = top;
position = "{235, 482}";
}
);
layerId = "F333AEC5-BB61-4D5E-9EDD-6124322D28F2";
paths = (
{
closed = 1;
nodes = (
"432 0 LINE",
"432 67 LINE",
"120 67 LINE",
"132 49 LINE",
"420 433 LINE",
"420 482 LINE",
"42 482 LINE",
"42 415 LINE",
"341 415 LINE",
"329 433 LINE",
"42 49 LINE",
"42 0 LINE"
);
}
);
width = 470;
},
{
anchors = (
{
name = bottom;
position = "{260, 0}";
},
{
name = top;
position = "{260, 490}";
}
);
layerId = "51C2DFEF-3776-4D13-9284-96485B799B57";
paths = (
{
closed = 1;
nodes = (
"484 0 LINE",
"484 135 LINE",
"182 135 LINE",
"210 80 LINE",
"471 386 LINE",
"471 490 LINE",
"40 490 LINE",
"40 355 LINE",
"329 355 LINE",
"301 411 LINE",
"40 103 LINE",
"40 0 LINE"
);
}
);
width = 519;
},
{
anchors = (
{
name = bottom;
position = "{215, 0}";
},
{
name = top;
position = "{215, 480}";
}
);
layerId = "0B2E441B-685E-400D-9B9B-E078DEED62EF";
paths = (
{
closed = 1;
nodes = (
"391 0 LINE",
"391 17 LINE",
"62 17 LINE",
"64 13 LINE",
"381 464 LINE",
"381 480 LINE",
"43 480 LINE",
"43 463 LINE",
"362 463 LINE",
"360 467 LINE",
"43 15 LINE",
"43 0 LINE"
);
}
);
width = 431;
}
);
note = z;
unicode = 007A;
},
{
glyphname = ordfeminine;
lastChange = "2017-10-07 07:23:47 +0000";
layers = (
{
anchors = (
{
name = bottom;
position = "{162, 412}";
},
{
name = ogonek;
position = "{249, 418}";
},
{
name = top;
position = "{156, 703}";
}
);
layerId = "F333AEC5-BB61-4D5E-9EDD-6124322D28F2";
paths = (
{
closed = 1;
nodes = (
"278 412 LINE",
"278 593 LINE SMOOTH",
"278 665 OFFCURVE",
"233 708 OFFCURVE",
"158 708 CURVE SMOOTH",
"113 708 OFFCURVE",
"65 693 OFFCURVE",
"33 669 CURVE",
"48 628 LINE",
"74 645 OFFCURVE",
"110 656 OFFCURVE",
"143 656 CURVE SMOOTH",
"190 656 OFFCURVE",
"214 633 OFFCURVE",
"214 592 CURVE SMOOTH",
"214 473 LINE",
"224 412 LINE"
);
},
{
closed = 1;
nodes = (
"173 406 OFFCURVE",
"214 430 OFFCURVE",
"249 478 CURVE",
"231 491 LINE",
"204 466 OFFCURVE",
"177 453 OFFCURVE",
"146 453 CURVE SMOOTH",
"112 453 OFFCURVE",
"92 469 OFFCURVE",
"92 494 CURVE SMOOTH",
"92 529 OFFCURVE",
"132 545 OFFCURVE",
"229 545 CURVE",
"229 584 LINE",
"104 584 OFFCURVE",
"28 546 OFFCURVE",
"28 482 CURVE SMOOTH",
"28 437 OFFCURVE",
"66 406 OFFCURVE",
"123 406 CURVE SMOOTH"
);
}
);
userData = {
RMXScaler = {
height = 60;
verticalShift = 412;
weight = -18;
width = 60;
};
};
width = 322;
},
{
anchors = (
{
name = bottom;
position = "{169, 412}";
},
{
name = ogonek;
position = "{264, 418}";
},
{
name = top;
position = "{168, 705}";
}
);
layerId = "51C2DFEF-3776-4D13-9284-96485B799B57";
paths = (
{
closed = 1;
nodes = (
"299 412 LINE",
"299 583 LINE SMOOTH",
"299 665 OFFCURVE",
"248 713 OFFCURVE",
"159 713 CURVE SMOOTH",
"116 713 OFFCURVE",
"76 702 OFFCURVE",
"29 677 CURVE",
"54 604 LINE",
"86 616 OFFCURVE",
"110 621 OFFCURVE",
"136 621 CURVE SMOOTH",
"174 621 OFFCURVE",
"193 610 OFFCURVE",
"193 585 CURVE SMOOTH",
"193 460 LINE",
"218 412 LINE"
);
},
{
closed = 1;
nodes = (
"205 406 OFFCURVE",
"263 462 OFFCURVE",
"273 555 CURVE",
"234 564 LINE",
"236 520 OFFCURVE",
"200 491 OFFCURVE",
"158 491 CURVE SMOOTH",
"139 491 OFFCURVE",
"126 499 OFFCURVE",
"126 510 CURVE SMOOTH",
"126 525 OFFCURVE",
"147 528 OFFCURVE",
"210 528 CURVE",
"210 598 LINE",
"92 598 OFFCURVE",
"20 557 OFFCURVE",
"20 491 CURVE SMOOTH",
"20 440 OFFCURVE",
"62 406 OFFCURVE",
"124 406 CURVE SMOOTH"
);
}
);
userData = {
RMXScaler = {
height = 60;
verticalShift = 412;
weight = -65;
width = 60;
};
};
width = 331;
},
{
anchors = (
{
name = bottom;
position = "{154, 412}";
},
{
name = ogonek;
position = "{245, 418}";
},
{
name = top;
position = "{143, 700}";
}
);
layerId = "0B2E441B-685E-400D-9B9B-E078DEED62EF";
paths = (
{
closed = 1;
nodes = (
"251 412 LINE",
"251 607 LINE SMOOTH",
"251 669 OFFCURVE",
"214 704 OFFCURVE",
"151 704 CURVE SMOOTH",
"111 704 OFFCURVE",
"70 690 OFFCURVE",
"41 668 CURVE",
"46 656 LINE",
"75 677 OFFCURVE",
"110 688 OFFCURVE",
"146 688 CURVE SMOOTH",
"203 688 OFFCURVE",
"232 659 OFFCURVE",
"232 605 CURVE SMOOTH",
"232 453 LINE",
"236 412 LINE"
);
},
{
closed = 1;
nodes = (
"176 406 OFFCURVE",
"217 428 OFFCURVE",
"243 463 CURVE",
"240 473 LINE",
"211 440 OFFCURVE",
"177 422 OFFCURVE",
"134 422 CURVE SMOOTH",
"85 422 OFFCURVE",
"55 445 OFFCURVE",
"55 481 CURVE SMOOTH",
"55 533 OFFCURVE",
"114 558 OFFCURVE",
"237 558 CURVE",
"237 573 LINE",
"108 573 OFFCURVE",
"37 540 OFFCURVE",
"37 478 CURVE SMOOTH",
"37 435 OFFCURVE",
"73 406 OFFCURVE",
"128 406 CURVE SMOOTH"
);
}
);
userData = {
RMXScaler = {
height = 60;
verticalShift = 412;
weight = -2;
width = 60;
};
};
width = 306;
}
);
unicode = 00AA;
userData = {
RMXScaler = {
source = a;
};
};
},
{
glyphname = ordmasculine;
lastChange = "2017-10-07 07:24:07 +0000";
layers = (
{
anchors = (
{
name = "#exit";
position = "{287, 554}";
},
{
name = bottom;
position = "{174, 412}";
},
{
name = center;
position = "{174, 558}";
},
{
name = ogonek;
position = "{195, 418}";
},
{
name = top;
position = "{172, 703}";
},
{
name = topright;
position = "{310, 703}";
}
);
layerId = "F333AEC5-BB61-4D5E-9EDD-6124322D28F2";
paths = (
{
closed = 1;
nodes = (
"257 406 OFFCURVE",
"317 471 OFFCURVE",
"317 561 CURVE SMOOTH",
"317 648 OFFCURVE",
"261 708 OFFCURVE",
"178 708 CURVE SMOOTH",
"92 708 OFFCURVE",
"30 643 OFFCURVE",
"30 552 CURVE SMOOTH",
"30 465 OFFCURVE",
"87 406 OFFCURVE",
"170 406 CURVE SMOOTH"
);
},
{
closed = 1;
nodes = (
"128 459 OFFCURVE",
"94 497 OFFCURVE",
"94 558 CURVE SMOOTH",
"94 614 OFFCURVE",
"124 656 OFFCURVE",
"172 656 CURVE SMOOTH",
"220 656 OFFCURVE",
"253 616 OFFCURVE",
"253 555 CURVE SMOOTH",
"253 497 OFFCURVE",
"223 459 OFFCURVE",
"176 459 CURVE SMOOTH"
);
}
);
userData = {
RMXScaler = {
height = 60;
verticalShift = 412;
weight = -18;
width = 60;
};
};
width = 347;
},
{
anchors = (
{
name = "#exit";
position = "{287, 554}";
},
{
name = bottom;
position = "{179, 412}";
},
{
name = center;
position = "{179, 558}";
},
{
name = ogonek;
position = "{220, 418}";
},
{
name = top;
position = "{183, 705}";
},
{
name = topright;
position = "{321, 705}";
}
);
layerId = "51C2DFEF-3776-4D13-9284-96485B799B57";
paths = (
{
closed = 1;
nodes = (
"270 406 OFFCURVE",
"339 473 OFFCURVE",
"339 566 CURVE SMOOTH",
"339 653 OFFCURVE",
"278 712 OFFCURVE",
"186 712 CURVE SMOOTH",
"88 712 OFFCURVE",
"19 646 OFFCURVE",
"19 552 CURVE SMOOTH",
"19 464 OFFCURVE",
"80 406 OFFCURVE",
"171 406 CURVE SMOOTH"
);
},
{
closed = 1;
nodes = (
"151 495 OFFCURVE",
"124 522 OFFCURVE",
"124 563 CURVE SMOOTH",
"124 600 OFFCURVE",
"144 623 OFFCURVE",
"174 623 CURVE SMOOTH",
"208 623 OFFCURVE",
"233 594 OFFCURVE",
"233 554 CURVE SMOOTH",
"233 520 OFFCURVE",
"214 495 OFFCURVE",
"183 495 CURVE SMOOTH"
);
}
);
userData = {
RMXScaler = {
height = 60;
verticalShift = 412;
weight = -66;
width = 60;
};
};
width = 358;
},
{
anchors = (
{
name = "#exit";
position = "{287, 554}";
},
{
name = bottom;
position = "{170, 412}";
},
{
name = center;
position = "{170, 556}";
},
{
name = ogonek;
position = "{211, 418}";
},
{
name = top;
position = "{166, 700}";
},
{
name = topright;
position = "{268, 700}";
}
);
layerId = "0B2E441B-685E-400D-9B9B-E078DEED62EF";
paths = (
{
closed = 1;
nodes = (
"245 406 OFFCURVE",
"297 466 OFFCURVE",
"297 557 CURVE SMOOTH",
"297 646 OFFCURVE",
"246 704 OFFCURVE",
"171 704 CURVE SMOOTH",
"94 704 OFFCURVE",
"42 644 OFFCURVE",
"42 554 CURVE SMOOTH",
"42 465 OFFCURVE",
"92 406 OFFCURVE",
"169 406 CURVE SMOOTH"
);
},
{
closed = 1;
nodes = (
"104 422 OFFCURVE",
"61 476 OFFCURVE",
"61 556 CURVE SMOOTH",
"61 634 OFFCURVE",
"102 688 OFFCURVE",
"168 688 CURVE SMOOTH",
"234 688 OFFCURVE",
"278 636 OFFCURVE",
"278 554 CURVE SMOOTH",
"278 474 OFFCURVE",
"236 422 OFFCURVE",
"171 422 CURVE SMOOTH"
);
}
);
userData = {
RMXScaler = {
height = 60;
verticalShift = 412;
weight = -2;
width = 60;
};
};
width = 339;
}
);
unicode = 00BA;
userData = {
RMXScaler = {
source = o;
};
};
},
{
glyphname = pi;
lastChange = "2017-10-03 11:03:03 +0000";
layers = (
{
layerId = "F333AEC5-BB61-4D5E-9EDD-6124322D28F2";
paths = (
{
closed = 1;
nodes = (
"538 -10 OFFCURVE",
"564 -2 OFFCURVE",
"583 7 CURVE",
"569 63 LINE",
"560 59 OFFCURVE",
"548 55 OFFCURVE",
"535 55 CURVE SMOOTH",
"504 55 OFFCURVE",
"487 77 OFFCURVE",
"487 124 CURVE SMOOTH",
"487 425 LINE",
"407 425 LINE",
"407 114 LINE SMOOTH",
"407 34 OFFCURVE",
"448 -10 OFFCURVE",
"511 -10 CURVE SMOOTH"
);
},
{
closed = 1;
nodes = (
"191 0 LINE",
"191 425 LINE",
"111 425 LINE",
"111 0 LINE"
);
},
{
closed = 1;
nodes = (
"566 415 LINE",
"566 482 LINE",
"31 482 LINE",
"31 415 LINE"
);
}
);
width = 621;
},
{
layerId = "51C2DFEF-3776-4D13-9284-96485B799B57";
width = 600;
},
{
layerId = "0B2E441B-685E-400D-9B9B-E078DEED62EF";
width = 600;
}
);
unicode = 03C0;
},
{
glyphname = zero;
lastChange = "2017-10-04 18:31:52 +0000";
layers = (
{
anchors = (
{
name = slash;
position = "{323, 350}";
}
);
layerId = "F333AEC5-BB61-4D5E-9EDD-6124322D28F2";
paths = (
{
closed = 1;
nodes = (
"478 -10 OFFCURVE",
"572 125 OFFCURVE",
"572 352 CURVE SMOOTH",
"572 573 OFFCURVE",
"481 704 OFFCURVE",
"328 704 CURVE SMOOTH",
"168 704 OFFCURVE",
"73 570 OFFCURVE",
"73 342 CURVE SMOOTH",
"73 121 OFFCURVE",
"165 -10 OFFCURVE",
"320 -10 CURVE SMOOTH"
);
},
{
closed = 1;
nodes = (
"221 62 OFFCURVE",
"158 170 OFFCURVE",
"158 352 CURVE SMOOTH",
"158 528 OFFCURVE",
"219 632 OFFCURVE",
"321 632 CURVE SMOOTH",
"425 632 OFFCURVE",
"487 524 OFFCURVE",
"487 342 CURVE SMOOTH",
"487 166 OFFCURVE",
"428 62 OFFCURVE",
"327 62 CURVE SMOOTH"
);
}
);
width = 645;
},
{
layerId = "51C2DFEF-3776-4D13-9284-96485B799B57";
width = 600;
},
{
anchors = (
{
name = slash;
position = "{323, 350}";
}
);
layerId = "0B2E441B-685E-400D-9B9B-E078DEED62EF";
paths = (
{
closed = 1;
nodes = (
"440 -10 OFFCURVE",
"527 132 OFFCURVE",
"527 345 CURVE SMOOTH",
"527 560 OFFCURVE",
"441 704 OFFCURVE",
"313 704 CURVE SMOOTH",
"180 704 OFFCURVE",
"92 559 OFFCURVE",
"92 342 CURVE SMOOTH",
"92 131 OFFCURVE",
"179 -10 OFFCURVE",
"309 -10 CURVE SMOOTH"
);
},
{
closed = 1;
nodes = (
"193 8 OFFCURVE",
"113 143 OFFCURVE",
"113 345 CURVE SMOOTH",
"113 550 OFFCURVE",
"192 686 OFFCURVE",
"310 686 CURVE SMOOTH",
"428 686 OFFCURVE",
"506 548 OFFCURVE",
"506 342 CURVE SMOOTH",
"506 142 OFFCURVE",
"428 8 OFFCURVE",
"312 8 CURVE SMOOTH"
);
}
);
width = 619;
}
);
note = zero;
unicode = 0030;
},
{
glyphname = one;
lastChange = "2017-10-04 18:31:45 +0000";
layers = (
{
layerId = "F333AEC5-BB61-4D5E-9EDD-6124322D28F2";
paths = (
{
closed = 1;
nodes = (
"324 55 LINE",
"324 694 LINE",
"272 694 LINE",
"52 565 LINE",
"82 508 LINE",
"269 608 LINE",
"239 635 LINE",
"239 55 LINE"
);
},
{
closed = 1;
nodes = (
"476 0 LINE",
"476 71 LINE",
"63 71 LINE",
"63 0 LINE"
);
}
);
width = 520;
},
{
layerId = "51C2DFEF-3776-4D13-9284-96485B799B57";
width = 600;
},
{
layerId = "0B2E441B-685E-400D-9B9B-E078DEED62EF";
paths = (
{
closed = 1;
nodes = (
"281 7 LINE",
"281 694 LINE",
"268 694 LINE",
"63 565 LINE",
"70 550 LINE",
"268 672 LINE",
"260 677 LINE",
"260 7 LINE"
);
},
{
closed = 1;
nodes = (
"447 0 LINE",
"447 17 LINE",
"73 17 LINE",
"73 0 LINE"
);
}
);
width = 504;
}
);
note = one;
unicode = 0031;
},
{
glyphname = two;
lastChange = "2017-10-04 18:31:29 +0000";
layers = (
{
layerId = "F333AEC5-BB61-4D5E-9EDD-6124322D28F2";
paths = (
{
closed = 1;
nodes = (
"509 0 LINE",
"509 72 LINE",
"148 72 LINE",
"156 48 LINE",
"386 264 OFFCURVE",
"479 383 OFFCURVE",
"479 509 CURVE SMOOTH",
"479 631 OFFCURVE",
"399 704 OFFCURVE",
"264 704 CURVE SMOOTH",
"191 704 OFFCURVE",
"113 682 OFFCURVE",
"51 644 CURVE",
"72 586 LINE",
"126 614 OFFCURVE",
"188 631 OFFCURVE",
"241 631 CURVE SMOOTH",
"335 631 OFFCURVE",
"394 579 OFFCURVE",
"394 495 CURVE SMOOTH",
"394 397 OFFCURVE",
"315 291 OFFCURVE",
"64 55 CURVE",
"64 0 LINE"
);
}
);
width = 564;
},
{
layerId = "51C2DFEF-3776-4D13-9284-96485B799B57";
width = 600;
},
{
layerId = "0B2E441B-685E-400D-9B9B-E078DEED62EF";
paths = (
{
closed = 1;
nodes = (
"491 0 LINE",
"491 17 LINE",
"95 17 LINE",
"103 10 LINE",
"391 303 OFFCURVE",
"463 403 OFFCURVE",
"463 509 CURVE SMOOTH",
"463 626 OFFCURVE",
"376 704 OFFCURVE",
"257 704 CURVE SMOOTH",
"189 704 OFFCURVE",
"117 679 OFFCURVE",
"63 644 CURVE",
"68 630 LINE",
"127 662 OFFCURVE",
"195 685 OFFCURVE",
"254 685 CURVE SMOOTH",
"360 685 OFFCURVE",
"441 613 OFFCURVE",
"441 503 CURVE SMOOTH",
"441 406 OFFCURVE",
"378 316 OFFCURVE",
"75 8 CURVE",
"75 0 LINE"
);
}
);
width = 559;
}
);
note = two;
unicode = 0032;
},
{
glyphname = three;
lastChange = "2017-10-05 15:46:23 +0000";
layers = (
{
layerId = "F333AEC5-BB61-4D5E-9EDD-6124322D28F2";
paths = (
{
closed = 1;
nodes = (
"417 -10 OFFCURVE",
"520 68 OFFCURVE",
"520 182 CURVE SMOOTH",
"520 284 OFFCURVE",
"440 361 OFFCURVE",
"322 373 CURVE",
"322 368 LINE",
"418 371 OFFCURVE",
"483 436 OFFCURVE",
"483 527 CURVE SMOOTH",
"483 632 OFFCURVE",
"397 704 OFFCURVE",
"272 704 CURVE SMOOTH",
"204 704 OFFCURVE",
"128 682 OFFCURVE",
"67 646 CURVE",
"88 588 LINE",
"146 616 OFFCURVE",
"205 631 OFFCURVE",
"255 631 CURVE SMOOTH",
"342 631 OFFCURVE",
"398 585 OFFCURVE",
"398 514 CURVE SMOOTH",
"398 432 OFFCURVE",
"322 386 OFFCURVE",
"185 386 CURVE",
"185 318 LINE",
"342 318 OFFCURVE",
"435 265 OFFCURVE",
"435 175 CURVE SMOOTH",
"435 105 OFFCURVE",
"376 63 OFFCURVE",
"275 63 CURVE SMOOTH",
"208 63 OFFCURVE",
"137 80 OFFCURVE",
"75 112 CURVE",
"51 43 LINE",
"116 9 OFFCURVE",
"193 -10 OFFCURVE",
"267 -10 CURVE SMOOTH"
);
}
);
width = 581;
},
{
layerId = "51C2DFEF-3776-4D13-9284-96485B799B57";
width = 600;
},
{
layerId = "0B2E441B-685E-400D-9B9B-E078DEED62EF";
paths = (
{
closed = 1;
nodes = (
"396 -10 OFFCURVE",
"489 63 OFFCURVE",
"489 170 CURVE SMOOTH",
"489 264 OFFCURVE",
"403 338 OFFCURVE",
"273 356 CURVE",
"273 352 LINE",
"384 359 OFFCURVE",
"452 425 OFFCURVE",
"452 524 CURVE SMOOTH",
"452 630 OFFCURVE",
"376 704 OFFCURVE",
"265 704 CURVE SMOOTH",
"202 704 OFFCURVE",
"123 681 OFFCURVE",
"67 646 CURVE",
"72 632 LINE",
"145 668 OFFCURVE",
"216 685 OFFCURVE",
"265 685 CURVE SMOOTH",
"362 685 OFFCURVE",
"430 617 OFFCURVE",
"430 521 CURVE SMOOTH",
"430 416 OFFCURVE",
"347 361 OFFCURVE",
"185 361 CURVE",
"185 344 LINE",
"354 344 OFFCURVE",
"467 272 OFFCURVE",
"467 167 CURVE SMOOTH",
"467 75 OFFCURVE",
"381 9 OFFCURVE",
"259 9 CURVE SMOOTH",
"194 9 OFFCURVE",
"113 30 OFFCURVE",
"58 60 CURVE",
"51 43 LINE",
"113 11 OFFCURVE",
"196 -10 OFFCURVE",
"259 -10 CURVE SMOOTH"
);
}
);
width = 600;
}
);
note = three;
unicode = 0033;
},
{
glyphname = four;
lastChange = "2017-10-04 18:49:28 +0000";
layers = (
{
layerId = "F333AEC5-BB61-4D5E-9EDD-6124322D28F2";
paths = (
{
closed = 1;
nodes = (
"468 -10 LINE",
"468 694 LINE",
"406 694 LINE",
"46 206 LINE",
"46 161 LINE",
"593 161 LINE",
"593 236 LINE",
"132 236 LINE",
"132 214 LINE",
"393 567 LINE",
"385 567 LINE",
"385 -10 LINE"
);
}
);
width = 641;
},
{
layerId = "51C2DFEF-3776-4D13-9284-96485B799B57";
width = 600;
},
{
layerId = "0B2E441B-685E-400D-9B9B-E078DEED62EF";
paths = (
{
closed = 1;
nodes = (
"412 -10 LINE",
"412 694 LINE",
"395 694 LINE",
"62 200 LINE",
"62 190 LINE",
"549 190 LINE",
"549 207 LINE",
"86 207 LINE",
"84 202 LINE",
"393 663 LINE",
"390 665 LINE",
"390 -10 LINE"
);
}
);
width = 609;
}
);
note = four;
unicode = 0034;
},
{
glyphname = five;
lastChange = "2017-10-03 11:02:46 +0000";
layers = (
{
layerId = "F333AEC5-BB61-4D5E-9EDD-6124322D28F2";
paths = (
{
closed = 1;
nodes = (
"412 -10 OFFCURVE",
"515 78 OFFCURVE",
"515 213 CURVE SMOOTH",
"515 348 OFFCURVE",
"422 428 OFFCURVE",
"265 428 CURVE SMOOTH",
"232 428 OFFCURVE",
"193 424 OFFCURVE",
"155 416 CURVE",
"174 389 LINE",
"185 622 LINE",
"482 622 LINE",
"482 694 LINE",
"110 694 LINE",
"93 338 LINE",
"144 349 OFFCURVE",
"199 355 OFFCURVE",
"238 355 CURVE SMOOTH",
"359 355 OFFCURVE",
"430 299 OFFCURVE",
"430 204 CURVE SMOOTH",
"430 117 OFFCURVE",
"366 63 OFFCURVE",
"264 63 CURVE SMOOTH",
"204 63 OFFCURVE",
"139 81 OFFCURVE",
"84 109 CURVE",
"60 40 LINE",
"123 7 OFFCURVE",
"187 -10 OFFCURVE",
"255 -10 CURVE SMOOTH"
);
}
);
width = 577;
},
{
layerId = "51C2DFEF-3776-4D13-9284-96485B799B57";
width = 600;
},
{
layerId = "0B2E441B-685E-400D-9B9B-E078DEED62EF";
width = 600;
}
);
note = five;
unicode = 0035;
},
{
glyphname = six;
lastChange = "2017-10-03 11:02:46 +0000";
layers = (
{
layerId = "F333AEC5-BB61-4D5E-9EDD-6124322D28F2";
paths = (
{
closed = 1;
nodes = (
"453 -10 OFFCURVE",
"546 80 OFFCURVE",
"546 213 CURVE SMOOTH",
"546 338 OFFCURVE",
"464 424 OFFCURVE",
"344 424 CURVE SMOOTH",
"243 424 OFFCURVE",
"163 364 OFFCURVE",
"117 256 CURVE",
"139 213 LINE",
"173 302 OFFCURVE",
"236 352 OFFCURVE",
"315 352 CURVE SMOOTH",
"402 352 OFFCURVE",
"461 291 OFFCURVE",
"461 199 CURVE SMOOTH",
"461 115 OFFCURVE",
"412 63 OFFCURVE",
"331 63 CURVE SMOOTH",
"222 63 OFFCURVE",
"162 159 OFFCURVE",
"162 334 CURVE SMOOTH",
"162 535 OFFCURVE",
"239 631 OFFCURVE",
"368 631 CURVE SMOOTH",
"410 631 OFFCURVE",
"468 620 OFFCURVE",
"512 604 CURVE",
"535 671 LINE",
"495 692 OFFCURVE",
"434 704 OFFCURVE",
"377 704 CURVE SMOOTH",
"188 704 OFFCURVE",
"72 567 OFFCURVE",
"72 328 CURVE SMOOTH",
"72 110 OFFCURVE",
"169 -10 OFFCURVE",
"321 -10 CURVE SMOOTH"
);
}
);
width = 611;
},
{
layerId = "51C2DFEF-3776-4D13-9284-96485B799B57";
width = 600;
},
{
layerId = "0B2E441B-685E-400D-9B9B-E078DEED62EF";
width = 600;
}
);
note = six;
unicode = 0036;
},
{
glyphname = seven;
lastChange = "2017-10-03 11:02:46 +0000";
layers = (
{
layerId = "F333AEC5-BB61-4D5E-9EDD-6124322D28F2";
paths = (
{
closed = 1;
nodes = (
"221 0 LINE",
"509 654 LINE",
"509 694 LINE",
"44 694 LINE",
"44 622 LINE",
"444 622 LINE",
"423 652 LINE",
"134 0 LINE"
);
}
);
width = 554;
},
{
layerId = "51C2DFEF-3776-4D13-9284-96485B799B57";
width = 600;
},
{
layerId = "0B2E441B-685E-400D-9B9B-E078DEED62EF";
width = 600;
}
);
note = seven;
unicode = 0037;
},
{
glyphname = eight;
lastChange = "2017-10-03 11:02:46 +0000";
layers = (
{
layerId = "F333AEC5-BB61-4D5E-9EDD-6124322D28F2";
paths = (
{
closed = 1;
nodes = (
"452 -10 OFFCURVE",
"547 63 OFFCURVE",
"547 176 CURVE SMOOTH",
"547 401 OFFCURVE",
"172 359 OFFCURVE",
"172 534 CURVE SMOOTH",
"172 595 OFFCURVE",
"219 633 OFFCURVE",
"296 633 CURVE SMOOTH",
"380 633 OFFCURVE",
"437 589 OFFCURVE",
"437 523 CURVE SMOOTH",
"437 458 OFFCURVE",
"382 402 OFFCURVE",
"301 387 CURVE",
"364 356 LINE",
"458 384 OFFCURVE",
"516 453 OFFCURVE",
"516 537 CURVE SMOOTH",
"516 637 OFFCURVE",
"433 704 OFFCURVE",
"308 704 CURVE SMOOTH",
"176 704 OFFCURVE",
"89 631 OFFCURVE",
"89 521 CURVE SMOOTH",
"89 290 OFFCURVE",
"462 344 OFFCURVE",
"462 169 CURVE SMOOTH",
"462 102 OFFCURVE",
"411 63 OFFCURVE",
"320 63 CURVE SMOOTH",
"218 63 OFFCURVE",
"150 112 OFFCURVE",
"150 185 CURVE SMOOTH",
"150 257 OFFCURVE",
"213 315 OFFCURVE",
"305 328 CURVE",
"251 361 LINE",
"139 346 OFFCURVE",
"65 271 OFFCURVE",
"65 174 CURVE SMOOTH",
"65 64 OFFCURVE",
"161 -10 OFFCURVE",
"306 -10 CURVE SMOOTH"
);
}
);
width = 609;
},
{
layerId = "51C2DFEF-3776-4D13-9284-96485B799B57";
width = 600;
},
{
layerId = "0B2E441B-685E-400D-9B9B-E078DEED62EF";
width = 600;
}
);
note = eight;
unicode = 0038;
},
{
glyphname = zero.osf;
lastChange = "2017-10-03 11:02:47 +0000";
layers = (
{
anchors = (
{
name = slash;
position = "{318, 250}";
}
);
layerId = "F333AEC5-BB61-4D5E-9EDD-6124322D28F2";
paths = (
{
closed = 1;
nodes = (
"453 -10 OFFCURVE",
"554 95 OFFCURVE",
"554 243 CURVE SMOOTH",
"554 389 OFFCURVE",
"456 492 OFFCURVE",
"317 492 CURVE SMOOTH",
"172 492 OFFCURVE",
"70 385 OFFCURVE",
"70 234 CURVE SMOOTH",
"70 91 OFFCURVE",
"169 -10 OFFCURVE",
"309 -10 CURVE SMOOTH"
);
},
{
closed = 1;
nodes = (
"219 60 OFFCURVE",
"150 136 OFFCURVE",
"150 243 CURVE SMOOTH",
"150 348 OFFCURVE",
"216 422 OFFCURVE",
"309 422 CURVE SMOOTH",
"406 422 OFFCURVE",
"474 344 OFFCURVE",
"474 234 CURVE SMOOTH",
"474 132 OFFCURVE",
"409 60 OFFCURVE",
"317 60 CURVE SMOOTH"
);
}
);
width = 624;
},
{
layerId = "51C2DFEF-3776-4D13-9284-96485B799B57";
width = 600;
},
{
layerId = "0B2E441B-685E-400D-9B9B-E078DEED62EF";
width = 600;
}
);
},
{
glyphname = one.osf;
lastChange = "2017-10-03 11:02:46 +0000";
layers = (
{
layerId = "F333AEC5-BB61-4D5E-9EDD-6124322D28F2";
paths = (
{
closed = 1;
nodes = (
"334 30 LINE",
"334 482 LINE",
"274 482 LINE",
"57 363 LINE",
"87 306 LINE",
"281 405 LINE",
"254 424 LINE",
"254 30 LINE"
);
},
{
closed = 1;
nodes = (
"484 0 LINE",
"484 70 LINE",
"81 70 LINE",
"81 0 LINE"
);
}
);
width = 534;
},
{
layerId = "51C2DFEF-3776-4D13-9284-96485B799B57";
width = 600;
},
{
layerId = "0B2E441B-685E-400D-9B9B-E078DEED62EF";
width = 600;
}
);
},
{
glyphname = two.osf;
lastChange = "2017-10-03 11:02:46 +0000";
layers = (
{
layerId = "F333AEC5-BB61-4D5E-9EDD-6124322D28F2";
paths = (
{
closed = 1;
nodes = (
"492 0 LINE",
"492 71 LINE",
"156 71 LINE",
"164 38 LINE",
"378 130 OFFCURVE",
"462 212 OFFCURVE",
"462 319 CURVE SMOOTH",
"462 423 OFFCURVE",
"383 492 OFFCURVE",
"255 492 CURVE SMOOTH",
"192 492 OFFCURVE",
"129 475 OFFCURVE",
"59 439 CURVE",
"80 384 LINE",
"142 410 OFFCURVE",
"192 422 OFFCURVE",
"236 422 CURVE SMOOTH",
"323 422 OFFCURVE",
"377 376 OFFCURVE",
"377 310 CURVE SMOOTH",
"377 230 OFFCURVE",
"291 164 OFFCURVE",
"72 55 CURVE",
"72 0 LINE"
);
}
);
width = 555;
},
{
layerId = "51C2DFEF-3776-4D13-9284-96485B799B57";
width = 600;
},
{
layerId = "0B2E441B-685E-400D-9B9B-E078DEED62EF";
width = 600;
}
);
},
{
glyphname = three.osf;
lastChange = "2017-10-03 11:02:46 +0000";
layers = (
{
layerId = "F333AEC5-BB61-4D5E-9EDD-6124322D28F2";
paths = (
{
closed = 1;
nodes = (
"394 -222 OFFCURVE",
"494 -143 OFFCURVE",
"494 -28 CURVE SMOOTH",
"494 74 OFFCURVE",
"416 149 OFFCURVE",
"298 161 CURVE",
"298 156 LINE",
"393 159 OFFCURVE",
"457 224 OFFCURVE",
"457 314 CURVE SMOOTH",
"457 419 OFFCURVE",
"369 492 OFFCURVE",
"247 492 CURVE SMOOTH",
"181 492 OFFCURVE",
"112 473 OFFCURVE",
"46 437 CURVE",
"67 382 LINE",
"128 408 OFFCURVE",
"184 422 OFFCURVE",
"229 422 CURVE SMOOTH",
"315 422 OFFCURVE",
"377 374 OFFCURVE",
"377 304 CURVE SMOOTH",
"377 227 OFFCURVE",
"296 174 OFFCURVE",
"176 174 CURVE",
"176 110 LINE",
"316 110 OFFCURVE",
"414 51 OFFCURVE",
"414 -36 CURVE SMOOTH",
"414 -105 OFFCURVE",
"351 -152 OFFCURVE",
"255 -152 CURVE SMOOTH",
"198 -152 OFFCURVE",
"137 -136 OFFCURVE",
"66 -106 CURVE",
"42 -172 LINE",
"102 -203 OFFCURVE",
"179 -222 OFFCURVE",
"248 -222 CURVE SMOOTH"
);
}
);
width = 548;
},
{
layerId = "51C2DFEF-3776-4D13-9284-96485B799B57";
width = 600;
},
{
layerId = "0B2E441B-685E-400D-9B9B-E078DEED62EF";
width = 600;
}
);
},
{
glyphname = four.osf;
lastChange = "2017-10-03 11:02:46 +0000";
layers = (
{
layerId = "F333AEC5-BB61-4D5E-9EDD-6124322D28F2";
paths = (
{
closed = 1;
nodes = (
"447 -170 LINE",
"447 482 LINE",
"383 482 LINE",
"48 51 LINE",
"48 1 LINE",
"572 1 LINE",
"572 72 LINE",
"127 72 LINE",
"127 43 LINE",
"378 367 LINE",
"367 367 LINE",
"367 -170 LINE"
);
}
);
width = 621;
},
{
layerId = "51C2DFEF-3776-4D13-9284-96485B799B57";
width = 600;
},
{
layerId = "0B2E441B-685E-400D-9B9B-E078DEED62EF";
width = 600;
}
);
},
{
glyphname = five.osf;
lastChange = "2017-10-03 11:02:46 +0000";
layers = (
{
layerId = "F333AEC5-BB61-4D5E-9EDD-6124322D28F2";
paths = (
{
closed = 1;
nodes = (
"388 -222 OFFCURVE",
"489 -135 OFFCURVE",
"489 3 CURVE SMOOTH",
"489 135 OFFCURVE",
"397 216 OFFCURVE",
"251 216 CURVE SMOOTH",
"218 216 OFFCURVE",
"181 212 OFFCURVE",
"142 204 CURVE",
"161 177 LINE",
"172 415 LINE",
"458 415 LINE",
"458 482 LINE",
"101 482 LINE",
"84 129 LINE",
"131 140 OFFCURVE",
"186 146 OFFCURVE",
"222 146 CURVE SMOOTH",
"334 146 OFFCURVE",
"409 86 OFFCURVE",
"409 -9 CURVE SMOOTH",
"409 -97 OFFCURVE",
"343 -152 OFFCURVE",
"250 -152 CURVE SMOOTH",
"198 -152 OFFCURVE",
"130 -135 OFFCURVE",
"75 -108 CURVE",
"51 -174 LINE",
"121 -206 OFFCURVE",
"172 -222 OFFCURVE",
"237 -222 CURVE SMOOTH"
);
}
);
width = 548;
},
{
layerId = "51C2DFEF-3776-4D13-9284-96485B799B57";
width = 600;
},
{
layerId = "0B2E441B-685E-400D-9B9B-E078DEED62EF";
width = 600;
}
);
},
{
glyphname = six.osf;
lastChange = "2017-10-03 11:02:47 +0000";
layers = (
{
layerId = "F333AEC5-BB61-4D5E-9EDD-6124322D28F2";
paths = (
{
closed = 1;
nodes = (
"467 -10 OFFCURVE",
"556 79 OFFCURVE",
"556 212 CURVE SMOOTH",
"556 339 OFFCURVE",
"476 424 OFFCURVE",
"359 424 CURVE SMOOTH",
"262 424 OFFCURVE",
"186 365 OFFCURVE",
"139 256 CURVE",
"161 213 LINE",
"196 304 OFFCURVE",
"256 355 OFFCURVE",
"332 355 CURVE SMOOTH",
"416 355 OFFCURVE",
"476 292 OFFCURVE",
"476 199 CURVE SMOOTH",
"476 114 OFFCURVE",
"426 60 OFFCURVE",
"340 60 CURVE SMOOTH",
"236 60 OFFCURVE",
"167 139 OFFCURVE",
"167 335 CURVE SMOOTH",
"167 526 OFFCURVE",
"232 634 OFFCURVE",
"368 634 CURVE SMOOTH",
"415 634 OFFCURVE",
"467 621 OFFCURVE",
"514 600 CURVE",
"536 665 LINE",
"494 691 OFFCURVE",
"441 704 OFFCURVE",
"384 704 CURVE SMOOTH",
"191 704 OFFCURVE",
"82 556 OFFCURVE",
"82 319 CURVE SMOOTH",
"82 94 OFFCURVE",
"180 -10 OFFCURVE",
"329 -10 CURVE SMOOTH"
);
}
);
width = 624;
},
{
layerId = "51C2DFEF-3776-4D13-9284-96485B799B57";
width = 600;
},
{
layerId = "0B2E441B-685E-400D-9B9B-E078DEED62EF";
width = 600;
}
);
},
{
glyphname = seven.osf;
lastChange = "2017-10-03 11:02:46 +0000";
layers = (
{
layerId = "F333AEC5-BB61-4D5E-9EDD-6124322D28F2";
paths = (
{
closed = 1;
nodes = (
"225 -217 LINE",
"495 447 LINE",
"495 482 LINE",
"50 482 LINE",
"50 406 LINE",
"430 406 LINE",
"414 445 LINE",
"143 -217 LINE"
);
}
);
width = 547;
},
{
layerId = "51C2DFEF-3776-4D13-9284-96485B799B57";
width = 600;
},
{
layerId = "0B2E441B-685E-400D-9B9B-E078DEED62EF";
width = 600;
}
);
},
{
glyphname = eight.osf;
lastChange = "2017-10-03 11:02:46 +0000";
layers = (
{
layerId = "F333AEC5-BB61-4D5E-9EDD-6124322D28F2";
paths = (
{
closed = 1;
nodes = (
"442 -10 OFFCURVE",
"535 64 OFFCURVE",
"535 175 CURVE SMOOTH",
"535 402 OFFCURVE",
"167 359 OFFCURVE",
"167 533 CURVE SMOOTH",
"167 595 OFFCURVE",
"217 637 OFFCURVE",
"292 637 CURVE SMOOTH",
"376 637 OFFCURVE",
"432 591 OFFCURVE",
"432 523 CURVE SMOOTH",
"432 457 OFFCURVE",
"378 402 OFFCURVE",
"296 387 CURVE",
"359 356 LINE",
"447 382 OFFCURVE",
"506 454 OFFCURVE",
"506 536 CURVE SMOOTH",
"506 637 OFFCURVE",
"424 704 OFFCURVE",
"302 704 CURVE SMOOTH",
"174 704 OFFCURVE",
"89 631 OFFCURVE",
"89 521 CURVE SMOOTH",
"89 288 OFFCURVE",
"455 346 OFFCURVE",
"455 168 CURVE SMOOTH",
"455 103 OFFCURVE",
"399 60 OFFCURVE",
"314 60 CURVE SMOOTH",
"214 60 OFFCURVE",
"148 110 OFFCURVE",
"148 186 CURVE SMOOTH",
"148 259 OFFCURVE",
"209 316 OFFCURVE",
"300 328 CURVE",
"246 361 LINE",
"139 347 OFFCURVE",
"68 272 OFFCURVE",
"68 175 CURVE SMOOTH",
"68 64 OFFCURVE",
"162 -10 OFFCURVE",
"302 -10 CURVE SMOOTH"
);
}
);
width = 599;
},
{
layerId = "51C2DFEF-3776-4D13-9284-96485B799B57";
width = 600;
},
{
layerId = "0B2E441B-685E-400D-9B9B-E078DEED62EF";
width = 600;
}
);
},
{
glyphname = asterisk;
lastChange = "2017-10-03 16:59:39 +0000";
layers = (
{
layerId = "F333AEC5-BB61-4D5E-9EDD-6124322D28F2";
paths = (
{
closed = 1;
nodes = (
"432 566 LINE",
"395 627 LINE",
"228 506 LINE",
"249 471 LINE"
);
},
{
closed = 1;
nodes = (
"250 469 LINE",
"230 503 LINE",
"46 408 LINE",
"83 348 LINE"
);
},
{
closed = 1;
nodes = (
"274 282 LINE",
"260 488 LINE",
"220 488 LINE",
"203 282 LINE"
);
},
{
closed = 1;
nodes = (
"251 505 LINE",
"85 628 LINE",
"48 568 LINE",
"230 471 LINE"
);
},
{
closed = 1;
nodes = (
"432 406 LINE",
"250 503 LINE",
"229 468 LINE",
"395 346 LINE"
);
},
{
closed = 1;
nodes = (
"260 488 LINE",
"274 694 LINE",
"203 694 LINE",
"220 488 LINE"
);
}
);
width = 479;
},
{
layerId = "51C2DFEF-3776-4D13-9284-96485B799B57";
paths = (
{
closed = 1;
nodes = (
"447 531 LINE",
"388 638 LINE",
"223 511 LINE",
"247 467 LINE"
);
},
{
closed = 1;
nodes = (
"249 464 LINE",
"224 507 LINE",
"30 436 LINE",
"88 328 LINE"
);
},
{
closed = 1;
nodes = (
"303 282 LINE",
"262 488 LINE",
"212 488 LINE",
"168 282 LINE"
);
},
{
closed = 1;
nodes = (
"250 510 LINE",
"90 646 LINE",
"31 540 LINE",
"225 467 LINE"
);
},
{
closed = 1;
nodes = (
"442 432 LINE",
"250 507 LINE",
"223 463 LINE",
"382 325 LINE"
);
},
{
closed = 1;
nodes = (
"262 488 LINE",
"303 694 LINE",
"168 694 LINE",
"212 488 LINE"
);
}
);
width = 475;
},
{
layerId = "0B2E441B-685E-400D-9B9B-E078DEED62EF";
paths = (
{
closed = 1;
nodes = (
"417 585 LINE",
"405 603 LINE",
"234 497 LINE",
"240 488 LINE"
);
},
{
closed = 1;
nodes = (
"240 487 LINE",
"234 497 LINE",
"58 390 LINE",
"70 372 LINE"
);
},
{
closed = 1;
nodes = (
"245 283 LINE",
"242 487 LINE",
"228 487 LINE",
"224 283 LINE"
);
},
{
closed = 1;
nodes = (
"238 494 LINE",
"71 608 LINE",
"59 590 LINE",
"233 484 LINE"
);
},
{
closed = 1;
nodes = (
"419 387 LINE",
"240 494 LINE",
"233 484 LINE",
"407 369 LINE"
);
},
{
closed = 1;
nodes = (
"242 487 LINE",
"245 694 LINE",
"224 694 LINE",
"228 487 LINE"
);
}
);
width = 477;
}
);
unicode = 002A;
},
{
glyphname = numbersign;
lastChange = "2017-10-03 11:34:46 +0000";
layers = (
{
layerId = "F333AEC5-BB61-4D5E-9EDD-6124322D28F2";
paths = (
{
closed = 1;
nodes = (
"515 0 LINE",
"515 694 LINE",
"439 694 LINE",
"439 0 LINE"
);
},
{
closed = 1;
nodes = (
"645 178 LINE",
"645 248 LINE",
"44 248 LINE",
"44 178 LINE"
);
},
{
closed = 1;
nodes = (
"253 0 LINE",
"253 694 LINE",
"177 694 LINE",
"177 0 LINE"
);
},
{
closed = 1;
nodes = (
"645 448 LINE",
"645 518 LINE",
"44 518 LINE",
"44 448 LINE"
);
}
);
width = 689;
},
{
layerId = "51C2DFEF-3776-4D13-9284-96485B799B57";
paths = (
{
closed = 1;
nodes = (
"623 0 LINE",
"623 694 LINE",
"450 694 LINE",
"450 0 LINE"
);
},
{
closed = 1;
nodes = (
"729 147 LINE",
"729 280 LINE",
"38 280 LINE",
"38 147 LINE"
);
},
{
closed = 1;
nodes = (
"320 0 LINE",
"320 694 LINE",
"147 694 LINE",
"147 0 LINE"
);
},
{
closed = 1;
nodes = (
"729 417 LINE",
"729 550 LINE",
"38 550 LINE",
"38 417 LINE"
);
}
);
width = 767;
},
{
layerId = "0B2E441B-685E-400D-9B9B-E078DEED62EF";
paths = (
{
closed = 1;
nodes = (
"449 0 LINE",
"449 694 LINE",
"429 694 LINE",
"429 0 LINE"
);
},
{
closed = 1;
nodes = (
"590 206 LINE",
"590 222 LINE",
"49 222 LINE",
"49 206 LINE"
);
},
{
closed = 1;
nodes = (
"213 0 LINE",
"213 694 LINE",
"193 694 LINE",
"193 0 LINE"
);
},
{
closed = 1;
nodes = (
"590 476 LINE",
"590 492 LINE",
"49 492 LINE",
"49 476 LINE"
);
}
);
width = 639;
}
);
unicode = 0023;
},
{
glyphname = slash;
lastChange = "2017-10-03 15:23:25 +0000";
layers = (
{
layerId = "F333AEC5-BB61-4D5E-9EDD-6124322D28F2";
paths = (
{
closed = 1;
nodes = (
"107 -115 LINE",
"333 739 LINE",
"253 739 LINE",
"27 -115 LINE"
);
}
);
width = 360;
},
{
layerId = "51C2DFEF-3776-4D13-9284-96485B799B57";
paths = (
{
closed = 1;
nodes = (
"177 -115 LINE",
"401 739 LINE",
"231 739 LINE",
"7 -115 LINE"
);
}
);
width = 408;
},
{
layerId = "0B2E441B-685E-400D-9B9B-E078DEED62EF";
paths = (
{
closed = 1;
nodes = (
"62 -115 LINE",
"288 739 LINE",
"268 739 LINE",
"42 -115 LINE"
);
}
);
width = 330;
}
);
unicode = 002F;
},
{
glyphname = underscore;
lastChange = "2017-10-03 15:23:57 +0000";
layers = (
{
layerId = "F333AEC5-BB61-4D5E-9EDD-6124322D28F2";
paths = (
{
closed = 1;
nodes = (
"526 0 LINE",
"526 72 LINE",
"88 72 LINE",
"88 0 LINE"
);
}
);
width = 614;
},
{
layerId = "51C2DFEF-3776-4D13-9284-96485B799B57";
width = 600;
},
{
layerId = "0B2E441B-685E-400D-9B9B-E078DEED62EF";
paths = (
{
closed = 1;
nodes = (
"541 0 LINE",
"541 17 LINE",
"103 17 LINE",
"103 0 LINE"
);
}
);
width = 644;
}
);
unicode = 005F;
},
{
glyphname = braceleft;
lastChange = "2017-10-03 16:12:28 +0000";
layers = (
{
layerId = "F333AEC5-BB61-4D5E-9EDD-6124322D28F2";
paths = (
{
closed = 1;
nodes = (
"361 -105 LINE",
"275 -105 OFFCURVE",
"236 -81 OFFCURVE",
"236 -23 CURVE SMOOTH",
"236 113 LINE SMOOTH",
"236 205 OFFCURVE",
"195 266 OFFCURVE",
"126 277 CURVE",
"126 278 LINE",
"190 294 OFFCURVE",
"236 361 OFFCURVE",
"236 437 CURVE SMOOTH",
"236 573 LINE SMOOTH",
"236 632 OFFCURVE",
"274 657 OFFCURVE",
"361 657 CURVE",
"361 724 LINE",
"221 724 OFFCURVE",
"161 676 OFFCURVE",
"161 563 CURVE SMOOTH",
"161 427 LINE SMOOTH",
"161 368 OFFCURVE",
"112 312 OFFCURVE",
"41 291 CURVE",
"41 265 LINE",
"116 242 OFFCURVE",
"161 180 OFFCURVE",
"161 103 CURVE SMOOTH",
"161 -33 LINE SMOOTH",
"161 -128 OFFCURVE",
"221 -173 OFFCURVE",
"361 -173 CURVE"
);
}
);
width = 410;
},
{
associatedMasterId = "F333AEC5-BB61-4D5E-9EDD-6124322D28F2";
layerId = "26302E5E-336F-4C93-8632-6CFCDE496564";
name = "Aug 6 17, 20:39";
paths = (
{
closed = 1;
nodes = (
"334 -121 LINE",
"267 -108 OFFCURVE",
"222 -54 OFFCURVE",
"222 15 CURVE SMOOTH",
"222 111 LINE SMOOTH",
"222 180 OFFCURVE",
"188 245 OFFCURVE",
"136 275 CURVE",
"136 276 LINE",
"188 306 OFFCURVE",
"222 370 OFFCURVE",
"222 435 CURVE SMOOTH",
"222 536 LINE SMOOTH",
"222 604 OFFCURVE",
"267 657 OFFCURVE",
"334 669 CURVE",
"317 746 LINE",
"212 736 OFFCURVE",
"142 652 OFFCURVE",
"142 536 CURVE SMOOTH",
"142 435 LINE SMOOTH",
"142 368 OFFCURVE",
"95 311 OFFCURVE",
"22 289 CURVE",
"22 263 LINE",
"94 241 OFFCURVE",
"142 181 OFFCURVE",
"142 111 CURVE SMOOTH",
"142 15 LINE SMOOTH",
"142 -102 OFFCURVE",
"212 -186 OFFCURVE",
"317 -196 CURVE"
);
}
);
width = 363;
},
{
layerId = "51C2DFEF-3776-4D13-9284-96485B799B57";
width = 600;
},
{
layerId = "0B2E441B-685E-400D-9B9B-E078DEED62EF";
paths = (
{
closed = 1;
nodes = (
"339 -144 LINE",
"245 -144 OFFCURVE",
"189 -100 OFFCURVE",
"189 -25 CURVE SMOOTH",
"189 111 LINE SMOOTH",
"189 190 OFFCURVE",
"145 256 OFFCURVE",
"78 277 CURVE",
"78 275 LINE",
"145 293 OFFCURVE",
"190 357 OFFCURVE",
"190 435 CURVE SMOOTH",
"190 571 LINE SMOOTH",
"190 649 OFFCURVE",
"245 695 OFFCURVE",
"339 695 CURVE",
"339 712 LINE",
"232 712 OFFCURVE",
"169 656 OFFCURVE",
"169 561 CURVE SMOOTH",
"169 425 LINE SMOOTH",
"169 358 OFFCURVE",
"126 302 OFFCURVE",
"59 289 CURVE",
"59 263 LINE",
"125 248 OFFCURVE",
"169 183 OFFCURVE",
"169 101 CURVE SMOOTH",
"169 -35 LINE SMOOTH",
"169 -114 OFFCURVE",
"232 -161 OFFCURVE",
"339 -161 CURVE"
);
}
);
width = 398;
}
);
unicode = 007B;
},
{
glyphname = bracketleft;
lastChange = "2017-10-03 16:11:31 +0000";
layers = (
{
layerId = "F333AEC5-BB61-4D5E-9EDD-6124322D28F2";
paths = (
{
closed = 1;
nodes = (
"333 -180 LINE",
"333 -112 LINE",
"181 -112 LINE",
"181 650 LINE",
"333 650 LINE",
"333 718 LINE",
"105 718 LINE",
"105 -180 LINE"
);
}
);
width = 382;
},
{
layerId = "51C2DFEF-3776-4D13-9284-96485B799B57";
width = 600;
},
{
layerId = "0B2E441B-685E-400D-9B9B-E078DEED62EF";
paths = (
{
closed = 1;
nodes = (
"311 -180 LINE",
"311 -163 LINE",
"143 -163 LINE",
"143 701 LINE",
"311 701 LINE",
"311 718 LINE",
"123 718 LINE",
"123 -180 LINE"
);
}
);
width = 370;
}
);
unicode = 005B;
},
{
glyphname = parenleft;
lastChange = "2017-10-03 16:21:37 +0000";
layers = (
{
layerId = "F333AEC5-BB61-4D5E-9EDD-6124322D28F2";
paths = (
{
closed = 1;
nodes = (
"265 -148 LINE",
"181 1 OFFCURVE",
"147 124 OFFCURVE",
"147 275 CURVE SMOOTH",
"147 424 OFFCURVE",
"180 542 OFFCURVE",
"263 694 CURVE",
"205 725 LINE",
"106 558 OFFCURVE",
"67 428 OFFCURVE",
"67 268 CURVE SMOOTH",
"67 106 OFFCURVE",
"107 -23 OFFCURVE",
"207 -179 CURVE"
);
}
);
width = 314;
},
{
layerId = "51C2DFEF-3776-4D13-9284-96485B799B57";
width = 600;
},
{
layerId = "0B2E441B-685E-400D-9B9B-E078DEED62EF";
paths = (
{
closed = 1;
nodes = (
"237 -160 LINE",
"135 10 OFFCURVE",
"110 98 OFFCURVE",
"110 271 CURVE SMOOTH",
"110 444 OFFCURVE",
"135 530 OFFCURVE",
"235 706 CURVE",
"219 714 LINE",
"123 549 OFFCURVE",
"89 436 OFFCURVE",
"89 267 CURVE SMOOTH",
"89 95 OFFCURVE",
"124 -16 OFFCURVE",
"221 -168 CURVE"
);
}
);
width = 300;
}
);
unicode = 0028;
},
{
glyphname = emdash;
lastChange = "2017-10-03 15:27:05 +0000";
layers = (
{
layerId = "F333AEC5-BB61-4D5E-9EDD-6124322D28F2";
paths = (
{
closed = 1;
nodes = (
"1088 209 LINE",
"1088 276 LINE",
"88 276 LINE",
"88 209 LINE"
);
}
);
width = 1176;
},
{
layerId = "51C2DFEF-3776-4D13-9284-96485B799B57";
width = 600;
},
{
layerId = "0B2E441B-685E-400D-9B9B-E078DEED62EF";
paths = (
{
closed = 1;
nodes = (
"1103 229 LINE",
"1103 246 LINE",
"103 246 LINE",
"103 229 LINE"
);
}
);
width = 1206;
}
);
unicode = 2014;
},
{
glyphname = endash;
lastChange = "2017-10-03 15:27:08 +0000";
layers = (
{
layerId = "F333AEC5-BB61-4D5E-9EDD-6124322D28F2";
paths = (
{
closed = 1;
nodes = (
"588 209 LINE",
"588 276 LINE",
"88 276 LINE",
"88 209 LINE"
);
}
);
width = 676;
},
{
layerId = "51C2DFEF-3776-4D13-9284-96485B799B57";
width = 600;
},
{
layerId = "0B2E441B-685E-400D-9B9B-E078DEED62EF";
paths = (
{
closed = 1;
nodes = (
"603 229 LINE",
"603 246 LINE",
"103 246 LINE",
"103 229 LINE"
);
}
);
width = 706;
}
);
unicode = 2013;
},
{
glyphname = hyphen;
lastChange = "2017-10-03 15:26:56 +0000";
layers = (
{
layerId = "F333AEC5-BB61-4D5E-9EDD-6124322D28F2";
paths = (
{
closed = 1;
nodes = (
"378 240 LINE",
"378 307 LINE",
"88 307 LINE",
"88 240 LINE"
);
}
);
width = 466;
},
{
layerId = "51C2DFEF-3776-4D13-9284-96485B799B57";
width = 600;
},
{
layerId = "0B2E441B-685E-400D-9B9B-E078DEED62EF";
paths = (
{
closed = 1;
nodes = (
"373 260 LINE",
"373 277 LINE",
"103 277 LINE",
"103 260 LINE"
);
}
);
width = 476;
}
);
unicode = 002D;
},
{
glyphname = guilsinglleft;
lastChange = "2017-10-03 16:32:35 +0000";
layers = (
{
layerId = "F333AEC5-BB61-4D5E-9EDD-6124322D28F2";
paths = (
{
closed = 1;
nodes = (
"283 30 LINE",
"125 268 LINE",
"125 221 LINE",
"278 449 LINE",
"191 449 LINE",
"53 242 LINE",
"191 30 LINE"
);
}
);
width = 334;
},
{
layerId = "51C2DFEF-3776-4D13-9284-96485B799B57";
width = 600;
},
{
layerId = "0B2E441B-685E-400D-9B9B-E078DEED62EF";
paths = (
{
closed = 1;
nodes = (
"238 32 LINE",
"87 254 LINE",
"89 239 LINE",
"235 451 LINE",
"214 451 LINE",
"71 245 LINE",
"214 32 LINE"
);
}
);
width = 306;
}
);
unicode = 2039;
},
{
glyphname = guilsinglright;
lastChange = "2017-10-03 16:47:29 +0000";
layers = (
{
layerId = "F333AEC5-BB61-4D5E-9EDD-6124322D28F2";
paths = (
{
closed = 1;
nodes = (
"142 30 LINE",
"280 241 LINE",
"142 449 LINE",
"50 449 LINE",
"208 215 LINE",
"208 262 LINE",
"55 30 LINE"
);
}
);
width = 333;
},
{
layerId = "51C2DFEF-3776-4D13-9284-96485B799B57";
width = 600;
},
{
layerId = "0B2E441B-685E-400D-9B9B-E078DEED62EF";
paths = (
{
closed = 1;
nodes = (
"87 32 LINE",
"230 243 LINE",
"87 451 LINE",
"63 451 LINE",
"214 234 LINE",
"212 249 LINE",
"66 32 LINE"
);
}
);
width = 301;
}
);
unicode = 203A;
},
{
glyphname = colonsign;
lastChange = "2017-10-03 11:02:39 +0000";
layers = (
{
components = (
{
name = _stem.coloncedi;
transform = "{1, 0, 0, 1, 23, 0}";
}
);
layerId = "F333AEC5-BB61-4D5E-9EDD-6124322D28F2";
paths = (
{
closed = 1;
nodes = (
"404 26 LINE",
"380 -100 LINE",
"440 -100 LINE",
"464 26 LINE"
);
},
{
closed = 1;
nodes = (
"294 26 LINE",
"270 -100 LINE",
"330 -100 LINE",
"354 26 LINE"
);
},
{
closed = 1;
nodes = (
"431 694 LINE",
"452 814 LINE",
"392 814 LINE",
"371 694 LINE"
);
},
{
closed = 1;
nodes = (
"541 694 LINE",
"562 814 LINE",
"502 814 LINE",
"481 694 LINE"
);
}
);
width = 726;
},
{
layerId = "51C2DFEF-3776-4D13-9284-96485B799B57";
width = 600;
},
{
layerId = "0B2E441B-685E-400D-9B9B-E078DEED62EF";
width = 600;
}
);
unicode = 20A1;
},
{
glyphname = currency;
lastChange = "2017-10-03 11:02:38 +0000";
layers = (
{
layerId = "F333AEC5-BB61-4D5E-9EDD-6124322D28F2";
paths = (
{
closed = 1;
nodes = (
"457 131 OFFCURVE",
"539 215 OFFCURVE",
"539 342 CURVE SMOOTH",
"539 461 OFFCURVE",
"461 540 OFFCURVE",
"343 540 CURVE SMOOTH",
"219 540 OFFCURVE",
"137 456 OFFCURVE",
"137 331 CURVE SMOOTH",
"137 211 OFFCURVE",
"215 131 OFFCURVE",
"333 131 CURVE SMOOTH"
);
},
{
closed = 1;
nodes = (
"234 181 LINE",
"193 222 LINE",
"101 131 LINE",
"142 90 LINE"
);
},
{
closed = 1;
nodes = (
"574 131 LINE",
"482 221 LINE",
"442 181 LINE",
"534 90 LINE"
);
},
{
closed = 1;
nodes = (
"267 204 OFFCURVE",
"217 259 OFFCURVE",
"217 341 CURVE SMOOTH",
"217 417 OFFCURVE",
"263 467 OFFCURVE",
"333 467 CURVE SMOOTH",
"409 467 OFFCURVE",
"459 413 OFFCURVE",
"459 332 CURVE SMOOTH",
"459 255 OFFCURVE",
"413 204 OFFCURVE",
"343 204 CURVE SMOOTH"
);
},
{
closed = 1;
nodes = (
"234 488 LINE",
"142 580 LINE",
"101 539 LINE",
"192 448 LINE"
);
},
{
closed = 1;
nodes = (
"574 539 LINE",
"533 580 LINE",
"441 488 LINE",
"482 448 LINE"
);
}
);
width = 675;
},
{
layerId = "51C2DFEF-3776-4D13-9284-96485B799B57";
width = 600;
},
{
layerId = "0B2E441B-685E-400D-9B9B-E078DEED62EF";
width = 600;
}
);
unicode = 00A4;
},
{
glyphname = dong;
lastChange = "2017-10-03 11:02:38 +0000";
layers = (
{
layerId = "F333AEC5-BB61-4D5E-9EDD-6124322D28F2";
paths = (
{
closed = 1;
nodes = (
"548 0 LINE",
"548 60 LINE",
"126 60 LINE",
"126 0 LINE"
);
},
{
closed = 1;
nodes = (
"531 130 LINE",
"531 739 LINE",
"451 739 LINE",
"451 186 LINE",
"475 130 LINE"
);
},
{
closed = 1;
nodes = (
"372 120 OFFCURVE",
"437 154 OFFCURVE",
"497 219 CURVE",
"478 269 LINE",
"431 217 OFFCURVE",
"380 190 OFFCURVE",
"324 190 CURVE SMOOTH",
"236 190 OFFCURVE",
"177 251 OFFCURVE",
"177 345 CURVE SMOOTH",
"177 437 OFFCURVE",
"233 492 OFFCURVE",
"316 492 CURVE SMOOTH",
"388 492 OFFCURVE",
"449 447 OFFCURVE",
"465 383 CURVE",
"497 446 LINE",
"473 513 OFFCURVE",
"420 562 OFFCURVE",
"324 562 CURVE SMOOTH",
"190 562 OFFCURVE",
"97 473 OFFCURVE",
"97 333 CURVE SMOOTH",
"97 202 OFFCURVE",
"180 120 OFFCURVE",
"298 120 CURVE SMOOTH"
);
},
{
closed = 1;
nodes = (
"602 620 LINE",
"602 680 LINE",
"310 680 LINE",
"310 620 LINE"
);
}
);
width = 686;
},
{
layerId = "51C2DFEF-3776-4D13-9284-96485B799B57";
width = 600;
},
{
layerId = "0B2E441B-685E-400D-9B9B-E078DEED62EF";
width = 600;
}
);
unicode = 20AB;
},
{
glyphname = euro;
lastChange = "2017-10-03 11:02:38 +0000";
layers = (
{
components = (
{
name = _stem.euro;
transform = "{1, 0, 0, 1, 100, 0}";
}
);
layerId = "F333AEC5-BB61-4D5E-9EDD-6124322D28F2";
paths = (
{
closed = 1;
nodes = (
"647 394 LINE",
"647 454 LINE",
"92 454 LINE",
"92 394 LINE"
);
},
{
closed = 1;
nodes = (
"624 254 LINE",
"624 314 LINE",
"92 314 LINE",
"92 254 LINE"
);
}
);
width = 806;
},
{
layerId = "51C2DFEF-3776-4D13-9284-96485B799B57";
width = 600;
},
{
layerId = "0B2E441B-685E-400D-9B9B-E078DEED62EF";
width = 600;
}
);
unicode = 20AC;
},
{
glyphname = guarani;
lastChange = "2017-10-03 11:02:39 +0000";
layers = (
{
associatedMasterId = "F333AEC5-BB61-4D5E-9EDD-6124322D28F2";
layerId = "1866C078-74D9-4E80-B9A0-67CF6B4C8CA4";
name = "Aug 16 17, 22:17";
paths = (
{
closed = 1;
nodes = (
"434 -9 OFFCURVE",
"495 34 OFFCURVE",
"541 74 CURVE",
"541 368 LINE",
"332 368 LINE",
"332 296 LINE",
"464 296 LINE",
"464 102 LINE",
"433 81 OFFCURVE",
"401 64 OFFCURVE",
"356 64 CURVE SMOOTH",
"240 64 OFFCURVE",
"173 177 OFFCURVE",
"173 351 CURVE SMOOTH",
"173 526 OFFCURVE",
"241 630 OFFCURVE",
"359 630 CURVE SMOOTH",
"409 630 OFFCURVE",
"465 612 OFFCURVE",
"507 585 CURVE",
"526 663 LINE",
"481 687 OFFCURVE",
"421 703 OFFCURVE",
"367 703 CURVE SMOOTH",
"209 703 OFFCURVE",
"93 564 OFFCURVE",
"93 340 CURVE SMOOTH",
"93 126 OFFCURVE",
"200 -9 OFFCURVE",
"350 -9 CURVE SMOOTH"
);
},
{
closed = 1;
nodes = (
"398 -49 LINE",
"398 58 LINE",
"322 58 LINE",
"322 -49 LINE"
);
},
{
closed = 1;
nodes = (
"398 633 LINE",
"398 739 LINE",
"323 739 LINE",
"323 633 LINE"
);
}
);
width = 646;
},
{
components = (
{
name = G;
},
{
name = _currencyvstem;
transform = "{1, 0, 0, 1, 34, -800}";
},
{
name = _currencyvstem;
transform = "{1, 0, 0, 1, 22, 0}";
}
);
layerId = "F333AEC5-BB61-4D5E-9EDD-6124322D28F2";
width = 794;
},
{
layerId = "51C2DFEF-3776-4D13-9284-96485B799B57";
width = 600;
},
{
layerId = "0B2E441B-685E-400D-9B9B-E078DEED62EF";
width = 600;
}
);
unicode = 20B2;
},
{
glyphname = kip;
lastChange = "2017-10-03 11:02:38 +0000";
layers = (
{
components = (
{
name = K;
transform = "{1, 0, 0, 1, 52, 0}";
}
);
layerId = "F333AEC5-BB61-4D5E-9EDD-6124322D28F2";
paths = (
{
closed = 1;
nodes = (
"614 325 LINE",
"614 385 LINE",
"82 385 LINE",
"82 325 LINE"
);
}
);
width = 747;
},
{
layerId = "51C2DFEF-3776-4D13-9284-96485B799B57";
width = 600;
},
{
layerId = "0B2E441B-685E-400D-9B9B-E078DEED62EF";
width = 600;
}
);
unicode = 20AD;
},
{
glyphname = liraTurkish;
lastChange = "2017-10-03 11:02:37 +0000";
layers = (
{
layerId = "F333AEC5-BB61-4D5E-9EDD-6124322D28F2";
paths = (
{
closed = 1;
nodes = (
"449 0 OFFCURVE",
"585 132 OFFCURVE",
"585 330 CURVE",
"505 330 LINE",
"505 174 OFFCURVE",
"405 70 OFFCURVE",
"254 70 CURVE",
"244 0 LINE"
);
},
{
closed = 1;
nodes = (
"254 0 LINE",
"254 694 LINE",
"177 694 LINE",
"177 0 LINE"
);
},
{
closed = 1;
nodes = (
"418 571 LINE",
"390 625 LINE",
"87 446 LINE",
"113 393 LINE"
);
},
{
closed = 1;
nodes = (
"418 421 LINE",
"390 475 LINE",
"87 296 LINE",
"113 243 LINE"
);
}
);
width = 671;
},
{
layerId = "51C2DFEF-3776-4D13-9284-96485B799B57";
width = 600;
},
{
layerId = "0B2E441B-685E-400D-9B9B-E078DEED62EF";
width = 600;
}
);
unicode = 20BA;
},
{
glyphname = manat;
lastChange = "2017-10-03 11:02:38 +0000";
layers = (
{
layerId = "F333AEC5-BB61-4D5E-9EDD-6124322D28F2";
paths = (
{
closed = 1;
nodes = (
"184 0 LINE",
"184 228 LINE SMOOTH",
"184 406 OFFCURVE",
"257 525 OFFCURVE",
"366 525 CURVE SMOOTH",
"481 525 OFFCURVE",
"558 402 OFFCURVE",
"558 218 CURVE SMOOTH",
"558 0 LINE",
"632 0 LINE",
"632 228 LINE SMOOTH",
"632 448 OFFCURVE",
"530 595 OFFCURVE",
"376 595 CURVE SMOOTH",
"216 595 OFFCURVE",
"110 444 OFFCURVE",
"110 218 CURVE SMOOTH",
"110 0 LINE"
);
},
{
closed = 1;
nodes = (
"409 100 LINE",
"409 694 LINE",
"335 694 LINE",
"335 100 LINE"
);
}
);
width = 743;
},
{
layerId = "51C2DFEF-3776-4D13-9284-96485B799B57";
width = 600;
},
{
layerId = "0B2E441B-685E-400D-9B9B-E078DEED62EF";
width = 600;
}
);
unicode = 20BC;
},
{
glyphname = naira;
lastChange = "2017-10-03 11:02:37 +0000";
layers = (
{
components = (
{
name = N;
transform = "{1, 0, 0, 1, 72, 0}";
}
);
layerId = "F333AEC5-BB61-4D5E-9EDD-6124322D28F2";
paths = (
{
closed = 1;
nodes = (
"704 384 LINE",
"839 384 LINE",
"839 444 LINE",
"704 444 LINE"
);
},
{
closed = 1;
nodes = (
"704 254 LINE",
"839 254 LINE",
"839 314 LINE",
"704 314 LINE"
);
},
{
closed = 1;
nodes = (
"229 314 LINE",
"93 314 LINE",
"93 254 LINE",
"229 254 LINE"
);
},
{
closed = 1;
nodes = (
"229 444 LINE",
"93 444 LINE",
"93 384 LINE",
"229 384 LINE"
);
}
);
width = 932;
},
{
layerId = "51C2DFEF-3776-4D13-9284-96485B799B57";
width = 600;
},
{
layerId = "0B2E441B-685E-400D-9B9B-E078DEED62EF";
width = 600;
}
);
unicode = 20A6;
},
{
glyphname = peseta;
lastChange = "2017-10-03 11:02:38 +0000";
layers = (
{
components = (
{
name = P;
transform = "{1, 0, 0, 1, 65, 0}";
}
);
layerId = "F333AEC5-BB61-4D5E-9EDD-6124322D28F2";
paths = (
{
closed = 1;
nodes = (
"592 434 LINE",
"723 434 LINE",
"723 494 LINE",
"592 494 LINE"
);
},
{
closed = 1;
nodes = (
"212 494 LINE",
"81 494 LINE",
"81 434 LINE",
"212 434 LINE"
);
}
);
width = 804;
},
{
layerId = "51C2DFEF-3776-4D13-9284-96485B799B57";
width = 600;
},
{
layerId = "0B2E441B-685E-400D-9B9B-E078DEED62EF";
width = 600;
}
);
unicode = 20A7;
},
{
glyphname = peso;
lastChange = "2017-10-03 11:02:37 +0000";
layers = (
{
components = (
{
name = P;
transform = "{1, 0, 0, 1, 77, 0}";
}
);
layerId = "F333AEC5-BB61-4D5E-9EDD-6124322D28F2";
paths = (
{
closed = 1;
nodes = (
"604 504 LINE",
"735 504 LINE",
"735 564 LINE",
"604 564 LINE"
);
},
{
closed = 1;
nodes = (
"224 564 LINE",
"93 564 LINE",
"93 504 LINE",
"224 504 LINE"
);
},
{
closed = 1;
nodes = (
"604 364 LINE",
"735 364 LINE",
"735 424 LINE",
"604 424 LINE"
);
},
{
closed = 1;
nodes = (
"224 424 LINE",
"93 424 LINE",
"93 364 LINE",
"224 364 LINE"
);
}
);
width = 828;
},
{
layerId = "51C2DFEF-3776-4D13-9284-96485B799B57";
width = 600;
},
{
layerId = "0B2E441B-685E-400D-9B9B-E078DEED62EF";
width = 600;
}
);
unicode = 20B1;
},
{
glyphname = ruble;
lastChange = "2017-10-03 11:02:39 +0000";
layers = (
{
anchors = (
{
name = bottom;
position = "{385, 0}";
},
{
name = top;
position = "{385, 694}";
}
);
layerId = "F333AEC5-BB61-4D5E-9EDD-6124322D28F2";
paths = (
{
closed = 1;
nodes = (
"466 105 LINE",
"466 165 LINE",
"94 165 LINE",
"94 105 LINE"
);
},
{
closed = 1;
nodes = (
"267 0 LINE",
"267 622 LINE",
"390 622 LINE SMOOTH",
"495 622 OFFCURVE",
"559 558 OFFCURVE",
"559 458 CURVE SMOOTH",
"559 365 OFFCURVE",
"504 314 OFFCURVE",
"400 314 CURVE SMOOTH",
"94 314 LINE",
"94 242 LINE",
"390 242 LINE SMOOTH",
"549 242 OFFCURVE",
"644 337 OFFCURVE",
"644 468 CURVE SMOOTH",
"644 602 OFFCURVE",
"545 694 OFFCURVE",
"400 694 CURVE SMOOTH",
"184 694 LINE",
"184 0 LINE"
);
}
);
width = 736;
},
{
layerId = "51C2DFEF-3776-4D13-9284-96485B799B57";
width = 600;
},
{
layerId = "0B2E441B-685E-400D-9B9B-E078DEED62EF";
width = 600;
}
);
unicode = 20BD;
},
{
glyphname = rupeeIndian;
lastChange = "2017-10-03 11:02:38 +0000";
layers = (
{
layerId = "F333AEC5-BB61-4D5E-9EDD-6124322D28F2";
paths = (
{
closed = 1;
nodes = (
"272 287 LINE SMOOTH",
"415 287 OFFCURVE",
"514 372 OFFCURVE",
"514 499 CURVE SMOOTH",
"514 625 OFFCURVE",
"416 694 OFFCURVE",
"282 694 CURVE SMOOTH",
"105 694 LINE",
"105 632 LINE",
"272 632 LINE SMOOTH",
"369 632 OFFCURVE",
"429 584 OFFCURVE",
"429 491 CURVE SMOOTH",
"429 401 OFFCURVE",
"373 359 OFFCURVE",
"282 359 CURVE SMOOTH",
"105 359 LINE",
"105 287 LINE"
);
},
{
closed = 1;
nodes = (
"584 0 LINE",
"369 310 LINE",
"274 310 LINE",
"485 0 LINE"
);
},
{
closed = 1;
nodes = (
"597 466 LINE",
"597 526 LINE",
"105 526 LINE",
"105 466 LINE"
);
},
{
closed = 1;
nodes = (
"597 638 LINE",
"597 698 LINE",
"105 698 LINE",
"105 638 LINE"
);
}
);
width = 691;
},
{
layerId = "51C2DFEF-3776-4D13-9284-96485B799B57";
width = 600;
},
{
layerId = "0B2E441B-685E-400D-9B9B-E078DEED62EF";
width = 600;
}
);
unicode = 20B9;
},
{
glyphname = won;
lastChange = "2017-10-03 11:02:38 +0000";
layers = (
{
components = (
{
name = W;
transform = "{1, 0, 0, 1, 79, 0}";
}
);
layerId = "F333AEC5-BB61-4D5E-9EDD-6124322D28F2";
paths = (
{
closed = 1;
nodes = (
"269 252 LINE",
"269 312 LINE",
"97 312 LINE",
"97 252 LINE"
);
},
{
closed = 1;
nodes = (
"239 392 LINE",
"239 452 LINE",
"97 452 LINE",
"97 392 LINE"
);
},
{
closed = 1;
nodes = (
"1087 312 LINE",
"915 312 LINE",
"915 252 LINE",
"1087 252 LINE"
);
},
{
closed = 1;
nodes = (
"1087 452 LINE",
"945 452 LINE",
"945 392 LINE",
"1087 392 LINE"
);
}
);
width = 1191;
},
{
layerId = "51C2DFEF-3776-4D13-9284-96485B799B57";
width = 600;
},
{
layerId = "0B2E441B-685E-400D-9B9B-E078DEED62EF";
width = 600;
}
);
unicode = 20A9;
},
{
glyphname = yen;
lastChange = "2017-10-03 11:02:37 +0000";
layers = (
{
components = (
{
name = Y;
transform = "{1, 0, 0, 1, 30, 0}";
}
);
layerId = "F333AEC5-BB61-4D5E-9EDD-6124322D28F2";
paths = (
{
closed = 1;
nodes = (
"492 128 LINE",
"492 188 LINE",
"180 188 LINE",
"180 128 LINE"
);
},
{
closed = 1;
nodes = (
"492 268 LINE",
"492 328 LINE",
"180 328 LINE",
"180 268 LINE"
);
}
);
width = 716;
},
{
layerId = "51C2DFEF-3776-4D13-9284-96485B799B57";
width = 600;
},
{
layerId = "0B2E441B-685E-400D-9B9B-E078DEED62EF";
width = 600;
}
);
unicode = 00A5;
},
{
glyphname = equivalence;
lastChange = "2017-10-03 11:02:39 +0000";
layers = (
{
layerId = "F333AEC5-BB61-4D5E-9EDD-6124322D28F2";
paths = (
{
closed = 1;
nodes = (
"596 476 LINE",
"596 545 LINE",
"131 545 LINE",
"131 476 LINE"
);
},
{
closed = 1;
nodes = (
"596 132 LINE",
"596 201 LINE",
"131 201 LINE",
"131 132 LINE"
);
},
{
closed = 1;
nodes = (
"596 304 LINE",
"596 373 LINE",
"131 373 LINE",
"131 304 LINE"
);
}
);
width = 727;
},
{
layerId = "51C2DFEF-3776-4D13-9284-96485B799B57";
width = 600;
},
{
layerId = "0B2E441B-685E-400D-9B9B-E078DEED62EF";
width = 600;
}
);
unicode = 2261;
},
{
glyphname = notidentical;
lastChange = "2017-10-03 11:02:38 +0000";
layers = (
{
layerId = "F333AEC5-BB61-4D5E-9EDD-6124322D28F2";
paths = (
{
closed = 1;
nodes = (
"533 614 LINE",
"479 645 LINE",
"154 60 LINE",
"204 32 LINE"
);
},
{
closed = 1;
nodes = (
"572 132 LINE",
"572 201 LINE",
"107 201 LINE",
"107 132 LINE"
);
},
{
closed = 1;
nodes = (
"572 304 LINE",
"572 373 LINE",
"107 373 LINE",
"107 304 LINE"
);
},
{
closed = 1;
nodes = (
"572 476 LINE",
"572 545 LINE",
"107 545 LINE",
"107 476 LINE"
);
}
);
width = 680;
},
{
layerId = "51C2DFEF-3776-4D13-9284-96485B799B57";
width = 600;
},
{
layerId = "0B2E441B-685E-400D-9B9B-E078DEED62EF";
width = 600;
}
);
unicode = 2262;
},
{
glyphname = plus;
lastChange = "2017-10-03 11:02:38 +0000";
layers = (
{
layerId = "F333AEC5-BB61-4D5E-9EDD-6124322D28F2";
paths = (
{
closed = 1;
nodes = (
"368 92 LINE",
"368 618 LINE",
"298 618 LINE",
"298 92 LINE"
);
},
{
closed = 1;
nodes = (
"582 326 LINE",
"582 395 LINE",
"78 395 LINE",
"78 326 LINE"
);
}
);
width = 660;
},
{
layerId = "51C2DFEF-3776-4D13-9284-96485B799B57";
width = 600;
},
{
layerId = "0B2E441B-685E-400D-9B9B-E078DEED62EF";
width = 600;
}
);
unicode = 002B;
},
{
glyphname = minus;
lastChange = "2017-10-03 11:02:38 +0000";
layers = (
{
layerId = "F333AEC5-BB61-4D5E-9EDD-6124322D28F2";
paths = (
{
closed = 1;
nodes = (
"620 326 LINE",
"620 395 LINE",
"131 395 LINE",
"131 326 LINE"
);
}
);
width = 751;
},
{
layerId = "51C2DFEF-3776-4D13-9284-96485B799B57";
width = 600;
},
{
layerId = "0B2E441B-685E-400D-9B9B-E078DEED62EF";
width = 600;
}
);
unicode = 2212;
},
{
glyphname = multiply;
lastChange = "2017-10-03 11:02:37 +0000";
layers = (
{
layerId = "F333AEC5-BB61-4D5E-9EDD-6124322D28F2";
paths = (
{
closed = 1;
nodes = (
"463 110 LINE",
"513 160 LINE",
"513 164 LINE",
"143 556 LINE",
"139 556 LINE",
"86 507 LINE",
"86 503 LINE",
"459 110 LINE"
);
},
{
closed = 1;
nodes = (
"508 503 LINE",
"459 553 LINE",
"82 166 LINE",
"128 115 LINE"
);
}
);
width = 594;
},
{
layerId = "51C2DFEF-3776-4D13-9284-96485B799B57";
width = 600;
},
{
layerId = "0B2E441B-685E-400D-9B9B-E078DEED62EF";
width = 600;
}
);
unicode = 00D7;
},
{
glyphname = divide;
lastChange = "2017-10-03 11:02:39 +0000";
layers = (
{
components = (
{
name = _dot;
transform = "{1, 0, 0, 1, 196, -101}";
},
{
name = _dot;
transform = "{1, 0, 0, 1, 196, -495}";
}
);
layerId = "F333AEC5-BB61-4D5E-9EDD-6124322D28F2";
paths = (
{
closed = 1;
nodes = (
"570 326 LINE",
"570 395 LINE",
"78 395 LINE",
"78 326 LINE"
);
}
);
width = 654;
},
{
layerId = "51C2DFEF-3776-4D13-9284-96485B799B57";
width = 600;
},
{
layerId = "0B2E441B-685E-400D-9B9B-E078DEED62EF";
width = 600;
}
);
unicode = 00F7;
},
{
glyphname = equal;
lastChange = "2017-10-03 11:02:39 +0000";
layers = (
{
layerId = "F333AEC5-BB61-4D5E-9EDD-6124322D28F2";
paths = (
{
closed = 1;
nodes = (
"596 436 LINE",
"596 505 LINE",
"131 505 LINE",
"131 436 LINE"
);
},
{
closed = 1;
nodes = (
"596 196 LINE",
"596 265 LINE",
"131 265 LINE",
"131 196 LINE"
);
}
);
width = 727;
},
{
layerId = "51C2DFEF-3776-4D13-9284-96485B799B57";
width = 600;
},
{
layerId = "0B2E441B-685E-400D-9B9B-E078DEED62EF";
width = 600;
}
);
unicode = 003D;
},
{
glyphname = notequal;
lastChange = "2017-10-03 11:02:38 +0000";
layers = (
{
layerId = "F333AEC5-BB61-4D5E-9EDD-6124322D28F2";
paths = (
{
closed = 1;
nodes = (
"489 577 LINE",
"435 608 LINE",
"166 122 LINE",
"216 94 LINE"
);
},
{
closed = 1;
nodes = (
"563 196 LINE",
"563 265 LINE",
"98 265 LINE",
"98 196 LINE"
);
},
{
closed = 1;
nodes = (
"563 436 LINE",
"563 505 LINE",
"98 505 LINE",
"98 436 LINE"
);
}
);
width = 661;
},
{
layerId = "51C2DFEF-3776-4D13-9284-96485B799B57";
width = 600;
},
{
layerId = "0B2E441B-685E-400D-9B9B-E078DEED62EF";
width = 600;
}
);
unicode = 2260;
},
{
glyphname = greater;
lastChange = "2017-10-03 11:02:38 +0000";
layers = (
{
layerId = "F333AEC5-BB61-4D5E-9EDD-6124322D28F2";
paths = (
{
closed = 1;
nodes = (
"537 306 LINE",
"537 370 LINE",
"91 599 LINE",
"91 516 LINE",
"481 325 LINE",
"481 353 LINE",
"91 163 LINE",
"91 85 LINE"
);
}
);
width = 615;
},
{
layerId = "51C2DFEF-3776-4D13-9284-96485B799B57";
width = 600;
},
{
layerId = "0B2E441B-685E-400D-9B9B-E078DEED62EF";
width = 600;
}
);
unicode = 003E;
},
{
glyphname = greaterequal;
lastChange = "2017-10-03 11:02:38 +0000";
layers = (
{
layerId = "F333AEC5-BB61-4D5E-9EDD-6124322D28F2";
paths = (
{
closed = 1;
nodes = (
"573 379 LINE",
"573 438 LINE",
"102 626 LINE",
"102 553 LINE",
"512 400 LINE",
"511 422 LINE",
"102 264 LINE",
"102 198 LINE"
);
},
{
closed = 1;
nodes = (
"573 61 LINE",
"573 126 LINE",
"108 126 LINE",
"108 61 LINE"
);
}
);
width = 661;
},
{
layerId = "51C2DFEF-3776-4D13-9284-96485B799B57";
width = 600;
},
{
layerId = "0B2E441B-685E-400D-9B9B-E078DEED62EF";
width = 600;
}
);
unicode = 2265;
},
{
glyphname = plusminus;
lastChange = "2017-10-03 11:02:38 +0000";
layers = (
{
layerId = "F333AEC5-BB61-4D5E-9EDD-6124322D28F2";
paths = (
{
closed = 1;
nodes = (
"362 177 LINE",
"362 653 LINE",
"292 653 LINE",
"292 177 LINE"
);
},
{
closed = 1;
nodes = (
"561 69 LINE",
"561 134 LINE",
"99 134 LINE",
"99 69 LINE"
);
},
{
closed = 1;
nodes = (
"562 385 LINE",
"562 454 LINE",
"86 454 LINE",
"86 385 LINE"
);
}
);
width = 650;
},
{
layerId = "51C2DFEF-3776-4D13-9284-96485B799B57";
width = 600;
},
{
layerId = "0B2E441B-685E-400D-9B9B-E078DEED62EF";
width = 600;
}
);
unicode = 00B1;
},
{
glyphname = approxequal;
lastChange = "2017-10-03 11:02:39 +0000";
layers = (
{
layerId = "F333AEC5-BB61-4D5E-9EDD-6124322D28F2";
paths = (
{
closed = 1;
nodes = (
"159 413 OFFCURVE",
"204 453 OFFCURVE",
"241 453 CURVE SMOOTH",
"291 453 OFFCURVE",
"328 377 OFFCURVE",
"404 377 CURVE SMOOTH",
"467 377 OFFCURVE",
"533 428 OFFCURVE",
"557 517 CURVE",
"505 528 LINE",
"491 485 OFFCURVE",
"450 447 OFFCURVE",
"413 447 CURVE SMOOTH",
"361 447 OFFCURVE",
"333 523 OFFCURVE",
"251 523 CURVE SMOOTH",
"187 523 OFFCURVE",
"122 476 OFFCURVE",
"97 385 CURVE",
"149 374 LINE"
);
},
{
closed = 1;
nodes = (
"159 213 OFFCURVE",
"204 253 OFFCURVE",
"241 253 CURVE SMOOTH",
"291 253 OFFCURVE",
"328 177 OFFCURVE",
"404 177 CURVE SMOOTH",
"467 177 OFFCURVE",
"533 228 OFFCURVE",
"557 317 CURVE",
"505 328 LINE",
"491 285 OFFCURVE",
"450 247 OFFCURVE",
"413 247 CURVE SMOOTH",
"361 247 OFFCURVE",
"333 323 OFFCURVE",
"251 323 CURVE SMOOTH",
"187 323 OFFCURVE",
"122 276 OFFCURVE",
"97 185 CURVE",
"149 174 LINE"
);
}
);
width = 654;
},
{
layerId = "51C2DFEF-3776-4D13-9284-96485B799B57";
width = 600;
},
{
layerId = "0B2E441B-685E-400D-9B9B-E078DEED62EF";
width = 600;
}
);
unicode = 2248;
},
{
glyphname = asciitilde;
lastChange = "2017-10-03 11:02:38 +0000";
layers = (
{
layerId = "F333AEC5-BB61-4D5E-9EDD-6124322D28F2";
paths = (
{
closed = 1;
nodes = (
"165 263 OFFCURVE",
"206 303 OFFCURVE",
"242 303 CURVE SMOOTH",
"290 303 OFFCURVE",
"327 227 OFFCURVE",
"402 227 CURVE SMOOTH",
"464 227 OFFCURVE",
"531 278 OFFCURVE",
"554 367 CURVE",
"497 378 LINE",
"484 335 OFFCURVE",
"446 297 OFFCURVE",
"411 297 CURVE SMOOTH",
"360 297 OFFCURVE",
"331 373 OFFCURVE",
"251 373 CURVE SMOOTH",
"189 373 OFFCURVE",
"122 326 OFFCURVE",
"98 235 CURVE",
"155 224 LINE"
);
}
);
width = 651;
},
{
layerId = "51C2DFEF-3776-4D13-9284-96485B799B57";
width = 600;
},
{
layerId = "0B2E441B-685E-400D-9B9B-E078DEED62EF";
width = 600;
}
);
unicode = 007E;
},
{
glyphname = logicalnot;
lastChange = "2017-10-03 11:02:38 +0000";
layers = (
{
layerId = "F333AEC5-BB61-4D5E-9EDD-6124322D28F2";
paths = (
{
closed = 1;
nodes = (
"564 328 LINE",
"564 395 LINE",
"88 395 LINE",
"88 328 LINE"
);
},
{
closed = 1;
nodes = (
"564 152 LINE",
"564 353 LINE",
"484 353 LINE",
"484 152 LINE"
);
}
);
width = 695;
},
{
layerId = "51C2DFEF-3776-4D13-9284-96485B799B57";
width = 600;
},
{
layerId = "0B2E441B-685E-400D-9B9B-E078DEED62EF";
width = 600;
}
);
unicode = 00AC;
},
{
glyphname = infinity;
lastChange = "2017-10-03 11:02:38 +0000";
layers = (
{
layerId = "F333AEC5-BB61-4D5E-9EDD-6124322D28F2";
paths = (
{
closed = 1;
nodes = (
"793 145 OFFCURVE",
"866 224 OFFCURVE",
"866 343 CURVE SMOOTH",
"866 457 OFFCURVE",
"797 533 OFFCURVE",
"692 533 CURVE SMOOTH",
"476 533 OFFCURVE",
"435 215 OFFCURVE",
"283 215 CURVE SMOOTH",
"222 215 OFFCURVE",
"182 266 OFFCURVE",
"182 342 CURVE SMOOTH",
"182 415 OFFCURVE",
"222 463 OFFCURVE",
"282 463 CURVE SMOOTH",
"440 463 OFFCURVE",
"466 145 OFFCURVE",
"683 145 CURVE SMOOTH"
);
},
{
closed = 1;
nodes = (
"486 145 OFFCURVE",
"526 463 OFFCURVE",
"683 463 CURVE SMOOTH",
"746 463 OFFCURVE",
"786 411 OFFCURVE",
"786 331 CURVE SMOOTH",
"786 258 OFFCURVE",
"749 215 OFFCURVE",
"688 215 CURVE SMOOTH",
"522 215 OFFCURVE",
"511 533 OFFCURVE",
"289 533 CURVE SMOOTH",
"177 533 OFFCURVE",
"102 453 OFFCURVE",
"102 333 CURVE SMOOTH",
"102 220 OFFCURVE",
"170 145 OFFCURVE",
"273 145 CURVE SMOOTH"
);
}
);
width = 968;
},
{
layerId = "51C2DFEF-3776-4D13-9284-96485B799B57";
width = 600;
},
{
layerId = "0B2E441B-685E-400D-9B9B-E078DEED62EF";
width = 600;
}
);
unicode = 221E;
},
{
glyphname = emptyset;
lastChange = "2017-10-03 11:02:37 +0000";
layers = (
{
layerId = "F333AEC5-BB61-4D5E-9EDD-6124322D28F2";
paths = (
{
closed = 1;
nodes = (
"534 68 OFFCURVE",
"648 179 OFFCURVE",
"648 345 CURVE SMOOTH",
"648 507 OFFCURVE",
"538 615 OFFCURVE",
"374 615 CURVE SMOOTH",
"204 615 OFFCURVE",
"91 503 OFFCURVE",
"91 335 CURVE SMOOTH",
"91 175 OFFCURVE",
"200 68 OFFCURVE",
"364 68 CURVE SMOOTH"
);
},
{
closed = 1;
nodes = (
"252 138 OFFCURVE",
"171 221 OFFCURVE",
"171 345 CURVE SMOOTH",
"171 465 OFFCURVE",
"248 545 OFFCURVE",
"364 545 CURVE SMOOTH",
"486 545 OFFCURVE",
"568 461 OFFCURVE",
"568 335 CURVE SMOOTH",
"568 217 OFFCURVE",
"490 138 OFFCURVE",
"374 138 CURVE SMOOTH"
);
},
{
closed = 1;
nodes = (
"598 630 LINE",
"542 667 LINE",
"141 67 LINE",
"189 33 LINE"
);
}
);
width = 739;
},
{
layerId = "51C2DFEF-3776-4D13-9284-96485B799B57";
width = 600;
},
{
layerId = "0B2E441B-685E-400D-9B9B-E078DEED62EF";
width = 600;
}
);
unicode = 2205;
},
{
glyphname = integral;
lastChange = "2017-10-03 11:02:39 +0000";
layers = (
{
layerId = "F333AEC5-BB61-4D5E-9EDD-6124322D28F2";
paths = (
{
closed = 1;
nodes = (
"263 -170 OFFCURVE",
"328 -115 OFFCURVE",
"328 -3 CURVE SMOOTH",
"328 161 OFFCURVE",
"188 417 OFFCURVE",
"188 582 CURVE SMOOTH",
"188 653 OFFCURVE",
"214 676 OFFCURVE",
"261 676 CURVE SMOOTH",
"285 676 OFFCURVE",
"305 670 OFFCURVE",
"326 662 CURVE",
"350 731 LINE",
"324 743 OFFCURVE",
"302 749 OFFCURVE",
"269 749 CURVE SMOOTH",
"181 749 OFFCURVE",
"108 705 OFFCURVE",
"108 571 CURVE SMOOTH",
"108 387 OFFCURVE",
"247 127 OFFCURVE",
"247 -10 CURVE SMOOTH",
"247 -74 OFFCURVE",
"217 -97 OFFCURVE",
"177 -97 CURVE SMOOTH",
"156 -97 OFFCURVE",
"125 -91 OFFCURVE",
"101 -82 CURVE",
"77 -152 LINE",
"106 -164 OFFCURVE",
"138 -170 OFFCURVE",
"169 -170 CURVE SMOOTH"
);
}
);
width = 429;
},
{
layerId = "51C2DFEF-3776-4D13-9284-96485B799B57";
width = 600;
},
{
layerId = "0B2E441B-685E-400D-9B9B-E078DEED62EF";
width = 600;
}
);
unicode = 222B;
},
{
glyphname = Ohm;
lastChange = "2017-10-03 11:02:39 +0000";
layers = (
{
layerId = "F333AEC5-BB61-4D5E-9EDD-6124322D28F2";
paths = (
{
closed = 1;
nodes = (
"345 0 LINE",
"345 53 LINE",
"254 124 OFFCURVE",
"193 260 OFFCURVE",
"193 394 CURVE SMOOTH",
"193 538 OFFCURVE",
"279 631 OFFCURVE",
"410 631 CURVE SMOOTH",
"546 631 OFFCURVE",
"643 529 OFFCURVE",
"643 388 CURVE SMOOTH",
"643 266 OFFCURVE",
"581 132 OFFCURVE",
"489 53 CURVE",
"489 0 LINE",
"741 0 LINE",
"741 72 LINE",
"577 72 LINE",
"666 135 OFFCURVE",
"725 265 OFFCURVE",
"725 397 CURVE SMOOTH",
"725 581 OFFCURVE",
"603 704 OFFCURVE",
"421 704 CURVE SMOOTH",
"234 704 OFFCURVE",
"110 576 OFFCURVE",
"110 385 CURVE SMOOTH",
"110 247 OFFCURVE",
"169 122 OFFCURVE",
"258 72 CURVE",
"92 72 LINE",
"92 0 LINE"
);
}
);
width = 833;
},
{
layerId = "51C2DFEF-3776-4D13-9284-96485B799B57";
width = 600;
},
{
layerId = "0B2E441B-685E-400D-9B9B-E078DEED62EF";
width = 600;
}
);
unicode = 2126;
},
{
glyphname = increment;
lastChange = "2017-10-03 11:02:38 +0000";
layers = (
{
layerId = "F333AEC5-BB61-4D5E-9EDD-6124322D28F2";
paths = (
{
closed = 1;
nodes = (
"635 1 LINE",
"635 54 LINE",
"405 694 LINE",
"308 694 LINE",
"75 54 LINE",
"75 1 LINE"
);
},
{
closed = 1;
nodes = (
"362 649 LINE",
"339 649 LINE",
"556 38 LINE",
"583 68 LINE",
"129 68 LINE",
"147 38 LINE"
);
}
);
width = 710;
},
{
layerId = "51C2DFEF-3776-4D13-9284-96485B799B57";
width = 600;
},
{
layerId = "0B2E441B-685E-400D-9B9B-E078DEED62EF";
width = 600;
}
);
unicode = 2206;
},
{
glyphname = product;
lastChange = "2017-10-03 11:02:39 +0000";
layers = (
{
layerId = "F333AEC5-BB61-4D5E-9EDD-6124322D28F2";
paths = (
{
closed = 1;
nodes = (
"214 -95 LINE",
"214 622 LINE",
"584 622 LINE",
"584 -95 LINE",
"667 -95 LINE",
"667 694 LINE",
"131 694 LINE",
"131 -95 LINE"
);
}
);
width = 798;
},
{
layerId = "51C2DFEF-3776-4D13-9284-96485B799B57";
width = 600;
},
{
layerId = "0B2E441B-685E-400D-9B9B-E078DEED62EF";
width = 600;
}
);
unicode = 220F;
},
{
glyphname = summation;
lastChange = "2017-10-03 11:02:39 +0000";
layers = (
{
layerId = "F333AEC5-BB61-4D5E-9EDD-6124322D28F2";
paths = (
{
closed = 1;
nodes = (
"587 -95 LINE",
"587 -24 LINE",
"178 -24 LINE",
"462 299 LINE",
"181 622 LINE",
"587 622 LINE",
"587 694 LINE",
"77 694 LINE",
"77 638 LINE",
"366 299 LINE",
"77 -39 LINE",
"77 -95 LINE"
);
}
);
width = 665;
},
{
layerId = "51C2DFEF-3776-4D13-9284-96485B799B57";
width = 600;
},
{
layerId = "0B2E441B-685E-400D-9B9B-E078DEED62EF";
width = 600;
}
);
unicode = 2211;
},
{
glyphname = radical;
lastChange = "2017-10-03 11:02:38 +0000";
layers = (
{
layerId = "F333AEC5-BB61-4D5E-9EDD-6124322D28F2";
paths = (
{
closed = 1;
nodes = (
"374 -59 LINE",
"524 739 LINE",
"437 739 LINE",
"326 59 LINE",
"250 303 LINE",
"72 303 LINE",
"72 231 LINE",
"188 231 LINE",
"294 -59 LINE"
);
}
);
width = 601;
},
{
layerId = "51C2DFEF-3776-4D13-9284-96485B799B57";
width = 600;
},
{
layerId = "0B2E441B-685E-400D-9B9B-E078DEED62EF";
width = 600;
}
);
unicode = 221A;
},
{
glyphname = micro;
lastChange = "2017-10-03 11:02:37 +0000";
layers = (
{
layerId = "F333AEC5-BB61-4D5E-9EDD-6124322D28F2";
paths = (
{
closed = 1;
nodes = (
"388 -10 OFFCURVE",
"443 23 OFFCURVE",
"490 73 CURVE",
"471 124 LINE",
"432 84 OFFCURVE",
"399 60 OFFCURVE",
"342 60 CURVE SMOOTH",
"268 60 OFFCURVE",
"206 100 OFFCURVE",
"206 182 CURVE",
"166 166 LINE",
"166 60 OFFCURVE",
"237 -10 OFFCURVE",
"327 -10 CURVE SMOOTH"
);
},
{
closed = 1;
nodes = (
"206 -244 LINE",
"206 482 LINE",
"131 482 LINE",
"131 -244 LINE"
);
},
{
closed = 1;
nodes = (
"540 0 LINE",
"540 482 LINE",
"460 482 LINE",
"460 56 LINE",
"484 0 LINE"
);
}
);
width = 650;
},
{
layerId = "51C2DFEF-3776-4D13-9284-96485B799B57";
width = 600;
},
{
layerId = "0B2E441B-685E-400D-9B9B-E078DEED62EF";
width = 600;
}
);
unicode = 00B5;
},
{
glyphname = partialdiff;
lastChange = "2017-10-03 11:02:38 +0000";
layers = (
{
layerId = "F333AEC5-BB61-4D5E-9EDD-6124322D28F2";
paths = (
{
closed = 1;
nodes = (
"474 -12 OFFCURVE",
"567 137 OFFCURVE",
"567 365 CURVE SMOOTH",
"567 589 OFFCURVE",
"477 701 OFFCURVE",
"321 701 CURVE SMOOTH",
"257 701 OFFCURVE",
"187 682 OFFCURVE",
"142 654 CURVE",
"163 596 LINE",
"209 617 OFFCURVE",
"269 631 OFFCURVE",
"312 631 CURVE SMOOTH",
"423 631 OFFCURVE",
"487 541 OFFCURVE",
"487 349 CURVE SMOOTH",
"487 170 OFFCURVE",
"431 58 OFFCURVE",
"309 58 CURVE SMOOTH",
"223 58 OFFCURVE",
"164 114 OFFCURVE",
"164 211 CURVE SMOOTH",
"164 301 OFFCURVE",
"215 359 OFFCURVE",
"301 359 CURVE SMOOTH",
"375 359 OFFCURVE",
"447 316 OFFCURVE",
"489 249 CURVE",
"495 342 LINE",
"453 399 OFFCURVE",
"391 429 OFFCURVE",
"315 429 CURVE SMOOTH",
"178 429 OFFCURVE",
"84 330 OFFCURVE",
"84 197 CURVE SMOOTH",
"84 69 OFFCURVE",
"170 -12 OFFCURVE",
"299 -12 CURVE SMOOTH"
);
}
);
width = 665;
},
{
layerId = "51C2DFEF-3776-4D13-9284-96485B799B57";
width = 600;
},
{
layerId = "0B2E441B-685E-400D-9B9B-E078DEED62EF";
width = 600;
}
);
unicode = 2202;
},
{
glyphname = upArrow;
lastChange = "2017-10-03 11:02:37 +0000";
layers = (
{
layerId = "F333AEC5-BB61-4D5E-9EDD-6124322D28F2";
paths = (
{
closed = 1;
nodes = (
"368 44 LINE",
"368 484 LINE",
"556 282 LINE",
"602 324 LINE",
"336 598 LINE",
"332 598 LINE",
"68 324 LINE",
"114 282 LINE",
"300 484 LINE",
"300 44 LINE"
);
}
);
width = 671;
},
{
layerId = "51C2DFEF-3776-4D13-9284-96485B799B57";
width = 600;
},
{
layerId = "0B2E441B-685E-400D-9B9B-E078DEED62EF";
width = 600;
}
);
note = arrowup;
unicode = 2191;
},
{
glyphname = rightArrow;
lastChange = "2017-10-03 11:02:39 +0000";
layers = (
{
layerId = "F333AEC5-BB61-4D5E-9EDD-6124322D28F2";
paths = (
{
closed = 1;
nodes = (
"631 319 LINE",
"631 323 LINE",
"358 588 LINE",
"316 542 LINE",
"517 355 LINE",
"78 355 LINE",
"78 287 LINE",
"517 287 LINE",
"316 100 LINE",
"358 54 LINE"
);
}
);
width = 701;
},
{
layerId = "51C2DFEF-3776-4D13-9284-96485B799B57";
width = 600;
},
{
layerId = "0B2E441B-685E-400D-9B9B-E078DEED62EF";
width = 600;
}
);
note = arrowright;
unicode = 2192;
},
{
glyphname = downArrow;
lastChange = "2017-10-03 11:02:39 +0000";
layers = (
{
layerId = "F333AEC5-BB61-4D5E-9EDD-6124322D28F2";
paths = (
{
closed = 1;
nodes = (
"337 44 LINE",
"603 318 LINE",
"557 360 LINE",
"369 158 LINE",
"369 598 LINE",
"301 598 LINE",
"301 158 LINE",
"115 360 LINE",
"69 318 LINE",
"333 44 LINE"
);
}
);
width = 672;
},
{
layerId = "51C2DFEF-3776-4D13-9284-96485B799B57";
width = 600;
},
{
layerId = "0B2E441B-685E-400D-9B9B-E078DEED62EF";
width = 600;
}
);
note = arrowdown;
unicode = 2193;
},
{
glyphname = leftArrow;
lastChange = "2017-10-03 11:02:39 +0000";
layers = (
{
layerId = "F333AEC5-BB61-4D5E-9EDD-6124322D28F2";
paths = (
{
closed = 1;
nodes = (
"384 100 LINE",
"183 287 LINE",
"622 287 LINE",
"622 355 LINE",
"183 355 LINE",
"384 542 LINE",
"342 588 LINE",
"69 323 LINE",
"69 319 LINE",
"342 54 LINE"
);
}
);
width = 700;
},
{
layerId = "51C2DFEF-3776-4D13-9284-96485B799B57";
width = 600;
},
{
layerId = "0B2E441B-685E-400D-9B9B-E078DEED62EF";
width = 600;
}
);
note = arrowleft;
unicode = 2190;
},
{
glyphname = blackCircle;
lastChange = "2017-10-03 11:02:39 +0000";
layers = (
{
layerId = "F333AEC5-BB61-4D5E-9EDD-6124322D28F2";
paths = (
{
closed = 1;
nodes = (
"421 130 OFFCURVE",
"515 223 OFFCURVE",
"515 338 CURVE SMOOTH",
"515 454 OFFCURVE",
"421 547 OFFCURVE",
"306 547 CURVE SMOOTH",
"191 547 OFFCURVE",
"97 454 OFFCURVE",
"97 338 CURVE SMOOTH",
"97 223 OFFCURVE",
"191 130 OFFCURVE",
"306 130 CURVE SMOOTH"
);
}
);
width = 612;
},
{
layerId = "51C2DFEF-3776-4D13-9284-96485B799B57";
width = 600;
},
{
layerId = "0B2E441B-685E-400D-9B9B-E078DEED62EF";
width = 600;
}
);
note = H18533;
unicode = 25CF;
},
{
glyphname = whiteCircle;
lastChange = "2017-10-03 11:02:38 +0000";
layers = (
{
layerId = "F333AEC5-BB61-4D5E-9EDD-6124322D28F2";
paths = (
{
closed = 1;
nodes = (
"666 -10 OFFCURVE",
"819 139 OFFCURVE",
"819 350 CURVE SMOOTH",
"819 557 OFFCURVE",
"669 704 OFFCURVE",
"458 704 CURVE SMOOTH",
"242 704 OFFCURVE",
"90 553 OFFCURVE",
"90 340 CURVE SMOOTH",
"90 135 OFFCURVE",
"239 -10 OFFCURVE",
"450 -10 CURVE SMOOTH"
);
},
{
closed = 1;
nodes = (
"284 60 OFFCURVE",
"160 180 OFFCURVE",
"160 350 CURVE SMOOTH",
"160 516 OFFCURVE",
"280 634 OFFCURVE",
"450 634 CURVE SMOOTH",
"625 634 OFFCURVE",
"749 512 OFFCURVE",
"749 340 CURVE SMOOTH",
"749 176 OFFCURVE",
"629 60 OFFCURVE",
"460 60 CURVE SMOOTH"
);
}
);
width = 909;
},
{
layerId = "51C2DFEF-3776-4D13-9284-96485B799B57";
width = 600;
},
{
layerId = "0B2E441B-685E-400D-9B9B-E078DEED62EF";
width = 600;
}
);
note = circle;
unicode = 25CB;
},
{
glyphname = dottedCircle;
lastChange = "2017-10-03 11:02:38 +0000";
layers = (
{
layerId = "F333AEC5-BB61-4D5E-9EDD-6124322D28F2";
paths = (
{
closed = 1;
nodes = (
"443 425 OFFCURVE",
"453 435 OFFCURVE",
"453 451 CURVE SMOOTH",
"453 466 OFFCURVE",
"443 476 OFFCURVE",
"427 476 CURVE SMOOTH",
"412 476 OFFCURVE",
"402 466 OFFCURVE",
"402 451 CURVE SMOOTH",
"402 435 OFFCURVE",
"412 425 OFFCURVE",
"427 425 CURVE SMOOTH"
);
},
{
closed = 1;
nodes = (
"193 57 OFFCURVE",
"203 67 OFFCURVE",
"203 82 CURVE SMOOTH",
"203 97 OFFCURVE",
"193 108 OFFCURVE",
"178 108 CURVE SMOOTH",
"162 108 OFFCURVE",
"152 97 OFFCURVE",
"152 82 CURVE SMOOTH",
"152 67 OFFCURVE",
"162 57 OFFCURVE",
"178 57 CURVE SMOOTH"
);
},
{
closed = 1;
nodes = (
"265 8 OFFCURVE",
"275 18 OFFCURVE",
"275 33 CURVE SMOOTH",
"275 48 OFFCURVE",
"265 59 OFFCURVE",
"250 59 CURVE SMOOTH",
"234 59 OFFCURVE",
"224 48 OFFCURVE",
"224 33 CURVE SMOOTH",
"224 18 OFFCURVE",
"234 8 OFFCURVE",
"250 8 CURVE SMOOTH"
);
},
{
closed = 1;
nodes = (
"144 130 OFFCURVE",
"154 141 OFFCURVE",
"154 157 CURVE SMOOTH",
"154 171 OFFCURVE",
"144 181 OFFCURVE",
"128 181 CURVE SMOOTH",
"113 181 OFFCURVE",
"103 171 OFFCURVE",
"103 157 CURVE SMOOTH",
"103 141 OFFCURVE",
"113 130 OFFCURVE",
"128 130 CURVE SMOOTH"
);
},
{
closed = 1;
nodes = (
"353 -10 OFFCURVE",
"363 1 OFFCURVE",
"363 17 CURVE SMOOTH",
"363 31 OFFCURVE",
"353 41 OFFCURVE",
"338 41 CURVE SMOOTH",
"323 41 OFFCURVE",
"313 31 OFFCURVE",
"313 17 CURVE SMOOTH",
"313 1 OFFCURVE",
"323 -10 OFFCURVE",
"338 -10 CURVE SMOOTH"
);
},
{
closed = 1;
nodes = (
"128 216 OFFCURVE",
"138 226 OFFCURVE",
"138 242 CURVE SMOOTH",
"138 257 OFFCURVE",
"128 267 OFFCURVE",
"113 267 CURVE SMOOTH",
"97 267 OFFCURVE",
"87 257 OFFCURVE",
"87 242 CURVE SMOOTH",
"87 226 OFFCURVE",
"97 216 OFFCURVE",
"113 216 CURVE SMOOTH"
);
},
{
closed = 1;
nodes = (
"144 303 OFFCURVE",
"154 312 OFFCURVE",
"154 328 CURVE SMOOTH",
"154 343 OFFCURVE",
"144 353 OFFCURVE",
"128 353 CURVE SMOOTH",
"113 353 OFFCURVE",
"103 343 OFFCURVE",
"103 328 CURVE SMOOTH",
"103 312 OFFCURVE",
"113 303 OFFCURVE",
"128 303 CURVE SMOOTH"
);
},
{
closed = 1;
nodes = (
"443 8 OFFCURVE",
"453 18 OFFCURVE",
"453 33 CURVE SMOOTH",
"453 48 OFFCURVE",
"443 59 OFFCURVE",
"427 59 CURVE SMOOTH",
"412 59 OFFCURVE",
"402 48 OFFCURVE",
"402 33 CURVE SMOOTH",
"402 18 OFFCURVE",
"412 8 OFFCURVE",
"427 8 CURVE SMOOTH"
);
},
{
closed = 1;
nodes = (
"193 377 OFFCURVE",
"203 386 OFFCURVE",
"203 402 CURVE SMOOTH",
"203 417 OFFCURVE",
"193 427 OFFCURVE",
"178 427 CURVE SMOOTH",
"162 427 OFFCURVE",
"152 417 OFFCURVE",
"152 402 CURVE SMOOTH",
"152 386 OFFCURVE",
"162 377 OFFCURVE",
"178 377 CURVE SMOOTH"
);
},
{
closed = 1;
nodes = (
"515 57 OFFCURVE",
"525 67 OFFCURVE",
"525 82 CURVE SMOOTH",
"525 97 OFFCURVE",
"515 108 OFFCURVE",
"499 108 CURVE SMOOTH",
"484 108 OFFCURVE",
"474 97 OFFCURVE",
"474 82 CURVE SMOOTH",
"474 67 OFFCURVE",
"484 57 OFFCURVE",
"499 57 CURVE SMOOTH"
);
},
{
closed = 1;
nodes = (
"265 425 OFFCURVE",
"275 435 OFFCURVE",
"275 451 CURVE SMOOTH",
"275 466 OFFCURVE",
"265 476 OFFCURVE",
"250 476 CURVE SMOOTH",
"234 476 OFFCURVE",
"224 466 OFFCURVE",
"224 451 CURVE SMOOTH",
"224 435 OFFCURVE",
"234 425 OFFCURVE",
"250 425 CURVE SMOOTH"
);
},
{
closed = 1;
nodes = (
"564 130 OFFCURVE",
"574 141 OFFCURVE",
"574 157 CURVE SMOOTH",
"574 171 OFFCURVE",
"564 181 OFFCURVE",
"549 181 CURVE SMOOTH",
"534 181 OFFCURVE",
"524 171 OFFCURVE",
"524 157 CURVE SMOOTH",
"524 141 OFFCURVE",
"534 130 OFFCURVE",
"549 130 CURVE SMOOTH"
);
},
{
closed = 1;
nodes = (
"579 216 OFFCURVE",
"589 226 OFFCURVE",
"589 242 CURVE SMOOTH",
"589 257 OFFCURVE",
"579 267 OFFCURVE",
"563 267 CURVE SMOOTH",
"548 267 OFFCURVE",
"538 257 OFFCURVE",
"538 242 CURVE SMOOTH",
"538 226 OFFCURVE",
"548 216 OFFCURVE",
"563 216 CURVE SMOOTH"
);
},
{
closed = 1;
nodes = (
"353 443 OFFCURVE",
"363 453 OFFCURVE",
"363 468 CURVE SMOOTH",
"363 484 OFFCURVE",
"353 493 OFFCURVE",
"338 493 CURVE SMOOTH",
"323 493 OFFCURVE",
"313 484 OFFCURVE",
"313 468 CURVE SMOOTH",
"313 453 OFFCURVE",
"323 443 OFFCURVE",
"338 443 CURVE SMOOTH"
);
},
{
closed = 1;
nodes = (
"564 303 OFFCURVE",
"574 312 OFFCURVE",
"574 328 CURVE SMOOTH",
"574 343 OFFCURVE",
"564 353 OFFCURVE",
"549 353 CURVE SMOOTH",
"534 353 OFFCURVE",
"524 343 OFFCURVE",
"524 328 CURVE SMOOTH",
"524 312 OFFCURVE",
"534 303 OFFCURVE",
"549 303 CURVE SMOOTH"
);
},
{
closed = 1;
nodes = (
"515 377 OFFCURVE",
"525 386 OFFCURVE",
"525 402 CURVE SMOOTH",
"525 417 OFFCURVE",
"515 427 OFFCURVE",
"499 427 CURVE SMOOTH",
"484 427 OFFCURVE",
"474 417 OFFCURVE",
"474 402 CURVE SMOOTH",
"474 386 OFFCURVE",
"484 377 OFFCURVE",
"499 377 CURVE SMOOTH"
);
}
);
width = 678;
},
{
layerId = "51C2DFEF-3776-4D13-9284-96485B799B57";
width = 600;
},
{
layerId = "0B2E441B-685E-400D-9B9B-E078DEED62EF";
width = 600;
}
);
unicode = 25CC;
},
{
glyphname = lozenge;
lastChange = "2017-10-03 11:02:37 +0000";
layers = (
{
layerId = "F333AEC5-BB61-4D5E-9EDD-6124322D28F2";
paths = (
{
closed = 1;
nodes = (
"324 0 LINE",
"519 357 LINE",
"324 694 LINE",
"252 694 LINE",
"74 357 LINE",
"252 0 LINE"
);
},
{
closed = 1;
nodes = (
"303 56 LINE",
"141 385 LINE",
"141 329 LINE",
"304 640 LINE",
"273 640 LINE",
"451 329 LINE",
"451 384 LINE",
"274 56 LINE"
);
}
);
width = 592;
},
{
layerId = "51C2DFEF-3776-4D13-9284-96485B799B57";
width = 600;
},
{
layerId = "0B2E441B-685E-400D-9B9B-E078DEED62EF";
width = 600;
}
);
unicode = 25CA;
},
{
glyphname = mediumBlackSmallSquare;
lastChange = "2017-10-03 11:02:39 +0000";
layers = (
{
layerId = "F333AEC5-BB61-4D5E-9EDD-6124322D28F2";
paths = (
{
closed = 1;
nodes = (
"607 99 LINE",
"607 575 LINE",
"131 575 LINE",
"131 99 LINE"
);
}
);
width = 738;
},
{
layerId = "51C2DFEF-3776-4D13-9284-96485B799B57";
width = 600;
},
{
layerId = "0B2E441B-685E-400D-9B9B-E078DEED62EF";
width = 600;
}
);
note = uni25FE;
unicode = 25FE;
},
{
glyphname = at;
lastChange = "2017-10-03 11:02:39 +0000";
layers = (
{
layerId = "F333AEC5-BB61-4D5E-9EDD-6124322D28F2";
paths = (
{
closed = 1;
nodes = (
"570 -164 OFFCURVE",
"643 -153 OFFCURVE",
"689 -136 CURVE",
"675 -80 LINE",
"628 -94 OFFCURVE",
"566 -104 OFFCURVE",
"513 -104 CURVE SMOOTH",
"298 -104 OFFCURVE",
"153 42 OFFCURVE",
"153 263 CURVE SMOOTH",
"153 488 OFFCURVE",
"303 644 OFFCURVE",
"528 644 CURVE SMOOTH",
"726 644 OFFCURVE",
"860 523 OFFCURVE",
"860 325 CURVE SMOOTH",
"860 204 OFFCURVE",
"810 117 OFFCURVE",
"732 117 CURVE SMOOTH",
"701 117 OFFCURVE",
"676 131 OFFCURVE",
"676 166 CURVE",
"604 168 LINE",
"604 98 OFFCURVE",
"654 61 OFFCURVE",
"723 61 CURVE SMOOTH",
"845 61 OFFCURVE",
"925 176 OFFCURVE",
"925 338 CURVE SMOOTH",
"925 564 OFFCURVE",
"770 704 OFFCURVE",
"537 704 CURVE SMOOTH",
"269 704 OFFCURVE",
"89 519 OFFCURVE",
"89 254 CURVE SMOOTH",
"89 0 OFFCURVE",
"255 -164 OFFCURVE",
"505 -164 CURVE SMOOTH"
);
},
{
closed = 1;
nodes = (
"533 51 OFFCURVE",
"586 80 OFFCURVE",
"623 118 CURVE",
"605 168 LINE",
"579 134 OFFCURVE",
"536 111 OFFCURVE",
"494 111 CURVE SMOOTH",
"430 111 OFFCURVE",
"387 165 OFFCURVE",
"387 257 CURVE SMOOTH",
"387 351 OFFCURVE",
"432 422 OFFCURVE",
"508 422 CURVE SMOOTH",
"558 422 OFFCURVE",
"601 391 OFFCURVE",
"624 344 CURVE",
"628 419 LINE",
"612 449 OFFCURVE",
"577 482 OFFCURVE",
"514 482 CURVE SMOOTH",
"409 482 OFFCURVE",
"312 391 OFFCURVE",
"312 247 CURVE SMOOTH",
"312 127 OFFCURVE",
"380 51 OFFCURVE",
"475 51 CURVE SMOOTH"
);
},
{
closed = 1;
nodes = (
"675 154 LINE",
"697 470 LINE",
"638 470 LINE",
"619 388 LINE",
"603 154 LINE"
);
}
);
width = 1011;
},
{
layerId = "51C2DFEF-3776-4D13-9284-96485B799B57";
width = 600;
},
{
layerId = "0B2E441B-685E-400D-9B9B-E078DEED62EF";
width = 600;
}
);
unicode = 0040;
},
{
glyphname = ampersand;
lastChange = "2017-10-03 11:02:39 +0000";
layers = (
{
layerId = "F333AEC5-BB61-4D5E-9EDD-6124322D28F2";
paths = (
{
closed = 1;
nodes = (
"650 52 LINE",
"303 337 OFFCURVE",
"238 418 OFFCURVE",
"238 523 CURVE SMOOTH",
"238 597 OFFCURVE",
"271 634 OFFCURVE",
"333 634 CURVE SMOOTH",
"391 634 OFFCURVE",
"431 600 OFFCURVE",
"431 551 CURVE SMOOTH",
"431 403 OFFCURVE",
"81 426 OFFCURVE",
"81 187 CURVE SMOOTH",
"81 69 OFFCURVE",
"166 -12 OFFCURVE",
"292 -12 CURVE SMOOTH",
"433 -12 OFFCURVE",
"558 88 OFFCURVE",
"652 277 CURVE",
"587 315 LINE",
"506 150 OFFCURVE",
"410 61 OFFCURVE",
"304 61 CURVE SMOOTH",
"221 61 OFFCURVE",
"163 116 OFFCURVE",
"163 194 CURVE SMOOTH",
"163 386 OFFCURVE",
"511 352 OFFCURVE",
"511 554 CURVE SMOOTH",
"511 643 OFFCURVE",
"443 704 OFFCURVE",
"341 704 CURVE SMOOTH",
"230 704 OFFCURVE",
"158 631 OFFCURVE",
"158 512 CURVE SMOOTH",
"158 395 OFFCURVE",
"227 295 OFFCURVE",
"597 -10 CURVE"
);
}
);
width = 729;
},
{
layerId = "51C2DFEF-3776-4D13-9284-96485B799B57";
width = 600;
},
{
layerId = "0B2E441B-685E-400D-9B9B-E078DEED62EF";
width = 600;
}
);
unicode = 0026;
},
{
glyphname = paragraph;
lastChange = "2017-10-03 11:02:39 +0000";
layers = (
{
layerId = "F333AEC5-BB61-4D5E-9EDD-6124322D28F2";
paths = (
{
closed = 1;
nodes = (
"388 -170 LINE",
"388 625 LINE",
"535 625 LINE",
"535 -170 LINE",
"618 -170 LINE",
"618 694 LINE",
"337 694 LINE SMOOTH",
"182 694 OFFCURVE",
"78 611 OFFCURVE",
"78 479 CURVE SMOOTH",
"78 356 OFFCURVE",
"168 269 OFFCURVE",
"305 269 CURVE",
"305 -170 LINE"
);
}
);
width = 749;
},
{
layerId = "51C2DFEF-3776-4D13-9284-96485B799B57";
width = 600;
},
{
layerId = "0B2E441B-685E-400D-9B9B-E078DEED62EF";
width = 600;
}
);
unicode = 00B6;
},
{
glyphname = section;
lastChange = "2017-10-03 11:02:37 +0000";
layers = (
{
layerId = "F333AEC5-BB61-4D5E-9EDD-6124322D28F2";
paths = (
{
closed = 1;
nodes = (
"396 -10 OFFCURVE",
"473 47 OFFCURVE",
"473 137 CURVE SMOOTH",
"473 311 OFFCURVE",
"185 254 OFFCURVE",
"185 355 CURVE SMOOTH",
"185 395 OFFCURVE",
"233 429 OFFCURVE",
"290 429 CURVE",
"304 469 LINE",
"185 469 OFFCURVE",
"105 420 OFFCURVE",
"105 341 CURVE SMOOTH",
"105 186 OFFCURVE",
"393 243 OFFCURVE",
"393 128 CURVE SMOOTH",
"393 85 OFFCURVE",
"353 60 OFFCURVE",
"282 60 CURVE SMOOTH",
"228 60 OFFCURVE",
"161 74 OFFCURVE",
"116 94 CURVE",
"97 27 LINE",
"151 4 OFFCURVE",
"216 -10 OFFCURVE",
"273 -10 CURVE SMOOTH"
);
},
{
closed = 1;
nodes = (
"393 224 OFFCURVE",
"473 280 OFFCURVE",
"473 363 CURVE SMOOTH",
"473 518 OFFCURVE",
"185 463 OFFCURVE",
"185 570 CURVE SMOOTH",
"185 609 OFFCURVE",
"225 633 OFFCURVE",
"290 633 CURVE SMOOTH",
"332 633 OFFCURVE",
"387 623 OFFCURVE",
"428 609 CURVE",
"447 674 LINE",
"404 693 OFFCURVE",
"354 703 OFFCURVE",
"303 703 CURVE SMOOTH",
"183 703 OFFCURVE",
"105 647 OFFCURVE",
"105 561 CURVE SMOOTH",
"105 394 OFFCURVE",
"393 454 OFFCURVE",
"393 341 CURVE SMOOTH",
"393 299 OFFCURVE",
"355 274 OFFCURVE",
"286 274 CURVE",
"272 224 LINE"
);
}
);
width = 570;
},
{
layerId = "51C2DFEF-3776-4D13-9284-96485B799B57";
width = 600;
},
{
layerId = "0B2E441B-685E-400D-9B9B-E078DEED62EF";
width = 600;
}
);
unicode = 00A7;
},
{
glyphname = copyright;
lastChange = "2017-10-03 11:02:37 +0000";
layers = (
{
layerId = "F333AEC5-BB61-4D5E-9EDD-6124322D28F2";
paths = (
{
closed = 1;
nodes = (
"655 -3 OFFCURVE",
"805 143 OFFCURVE",
"805 350 CURVE SMOOTH",
"805 553 OFFCURVE",
"658 697 OFFCURVE",
"451 697 CURVE SMOOTH",
"240 697 OFFCURVE",
"90 549 OFFCURVE",
"90 340 CURVE SMOOTH",
"90 139 OFFCURVE",
"236 -3 OFFCURVE",
"443 -3 CURVE SMOOTH"
);
},
{
closed = 1;
nodes = (
"274 55 OFFCURVE",
"148 177 OFFCURVE",
"148 350 CURVE SMOOTH",
"148 519 OFFCURVE",
"270 639 OFFCURVE",
"443 639 CURVE SMOOTH",
"621 639 OFFCURVE",
"747 515 OFFCURVE",
"747 340 CURVE SMOOTH",
"747 173 OFFCURVE",
"625 55 OFFCURVE",
"453 55 CURVE SMOOTH"
);
},
{
closed = 1;
nodes = (
"492 136 OFFCURVE",
"532 145 OFFCURVE",
"578 162 CURVE",
"560 214 LINE",
"523 199 OFFCURVE",
"490 193 OFFCURVE",
"464 193 CURVE SMOOTH",
"375 193 OFFCURVE",
"311 259 OFFCURVE",
"311 354 CURVE SMOOTH",
"311 441 OFFCURVE",
"369 504 OFFCURVE",
"447 504 CURVE SMOOTH",
"476 504 OFFCURVE",
"516 496 OFFCURVE",
"553 479 CURVE",
"576 539 LINE",
"532 554 OFFCURVE",
"492 561 OFFCURVE",
"459 561 CURVE SMOOTH",
"335 561 OFFCURVE",
"248 472 OFFCURVE",
"248 344 CURVE SMOOTH",
"248 221 OFFCURVE",
"330 136 OFFCURVE",
"452 136 CURVE SMOOTH"
);
}
);
width = 895;
},
{
layerId = "51C2DFEF-3776-4D13-9284-96485B799B57";
width = 600;
},
{
layerId = "0B2E441B-685E-400D-9B9B-E078DEED62EF";
width = 600;
}
);
unicode = 00A9;
},
{
glyphname = registered;
lastChange = "2017-10-03 11:02:38 +0000";
layers = (
{
layerId = "F333AEC5-BB61-4D5E-9EDD-6124322D28F2";
paths = (
{
closed = 1;
nodes = (
"476 279 OFFCURVE",
"577 377 OFFCURVE",
"577 515 CURVE SMOOTH",
"577 652 OFFCURVE",
"478 749 OFFCURVE",
"339 749 CURVE SMOOTH",
"197 749 OFFCURVE",
"96 649 OFFCURVE",
"96 510 CURVE SMOOTH",
"96 374 OFFCURVE",
"194 279 OFFCURVE",
"334 279 CURVE SMOOTH"
);
},
{
closed = 1;
nodes = (
"225 325 OFFCURVE",
"143 405 OFFCURVE",
"143 516 CURVE SMOOTH",
"143 625 OFFCURVE",
"222 703 OFFCURVE",
"334 703 CURVE SMOOTH",
"448 703 OFFCURVE",
"530 622 OFFCURVE",
"530 510 CURVE SMOOTH",
"530 401 OFFCURVE",
"452 325 OFFCURVE",
"340 325 CURVE SMOOTH"
);
},
{
closed = 1;
nodes = (
"292 382 LINE",
"292 622 LINE",
"288 612 LINE",
"335 612 LINE SMOOTH",
"364 612 OFFCURVE",
"384 597 OFFCURVE",
"384 570 CURVE SMOOTH",
"384 547 OFFCURVE",
"369 532 OFFCURVE",
"338 532 CURVE SMOOTH",
"262 532 LINE",
"262 490 LINE",
"335 490 LINE SMOOTH",
"392 490 OFFCURVE",
"431 524 OFFCURVE",
"431 574 CURVE SMOOTH",
"431 623 OFFCURVE",
"394 654 OFFCURVE",
"338 654 CURVE SMOOTH",
"246 654 LINE",
"246 382 LINE"
);
},
{
closed = 1;
nodes = (
"450 382 LINE",
"373 515 LINE",
"323 515 LINE",
"399 382 LINE"
);
}
);
width = 673;
},
{
layerId = "51C2DFEF-3776-4D13-9284-96485B799B57";
width = 600;
},
{
layerId = "0B2E441B-685E-400D-9B9B-E078DEED62EF";
width = 600;
}
);
unicode = 00AE;
},
{
glyphname = trademark;
lastChange = "2017-10-03 11:02:38 +0000";
layers = (
{
layerId = "F333AEC5-BB61-4D5E-9EDD-6124322D28F2";
paths = (
{
closed = 1;
nodes = (
"271 361 LINE",
"271 674 LINE",
"203 674 LINE",
"203 361 LINE"
);
},
{
closed = 1;
nodes = (
"396 634 LINE",
"396 694 LINE",
"79 694 LINE",
"79 634 LINE"
);
},
{
closed = 1;
nodes = (
"517 361 LINE",
"517 615 LINE",
"508 615 LINE",
"620 411 LINE",
"650 411 LINE",
"766 610 LINE",
"757 610 LINE",
"757 361 LINE",
"817 361 LINE",
"817 694 LINE",
"755 694 LINE",
"625 469 LINE",
"647 469 LINE",
"527 694 LINE",
"457 694 LINE",
"457 361 LINE"
);
}
);
width = 948;
},
{
layerId = "51C2DFEF-3776-4D13-9284-96485B799B57";
width = 600;
},
{
layerId = "0B2E441B-685E-400D-9B9B-E078DEED62EF";
width = 600;
}
);
unicode = 2122;
},
{
glyphname = degree;
lastChange = "2017-10-03 11:02:39 +0000";
layers = (
{
layerId = "F333AEC5-BB61-4D5E-9EDD-6124322D28F2";
paths = (
{
closed = 1;
nodes = (
"335 417 OFFCURVE",
"392 475 OFFCURVE",
"392 560 CURVE SMOOTH",
"392 647 OFFCURVE",
"335 704 OFFCURVE",
"250 704 CURVE SMOOTH",
"164 704 OFFCURVE",
"107 647 OFFCURVE",
"107 560 CURVE SMOOTH",
"107 475 OFFCURVE",
"164 417 OFFCURVE",
"250 417 CURVE SMOOTH"
);
},
{
closed = 1;
nodes = (
"203 484 OFFCURVE",
"172 515 OFFCURVE",
"172 560 CURVE SMOOTH",
"172 608 OFFCURVE",
"203 639 OFFCURVE",
"250 639 CURVE SMOOTH",
"296 639 OFFCURVE",
"327 608 OFFCURVE",
"327 560 CURVE SMOOTH",
"327 515 OFFCURVE",
"296 484 OFFCURVE",
"250 484 CURVE SMOOTH"
);
}
);
width = 499;
},
{
layerId = "51C2DFEF-3776-4D13-9284-96485B799B57";
width = 600;
},
{
layerId = "0B2E441B-685E-400D-9B9B-E078DEED62EF";
width = 600;
}
);
unicode = 00B0;
},
{
glyphname = bar;
lastChange = "2017-10-03 16:58:33 +0000";
layers = (
{
layerId = "F333AEC5-BB61-4D5E-9EDD-6124322D28F2";
paths = (
{
closed = 1;
nodes = (
"211 -157 LINE",
"211 739 LINE",
"131 739 LINE",
"131 -157 LINE"
);
}
);
width = 342;
},
{
layerId = "51C2DFEF-3776-4D13-9284-96485B799B57";
width = 600;
},
{
layerId = "0B2E441B-685E-400D-9B9B-E078DEED62EF";
paths = (
{
closed = 1;
nodes = (
"175 -157 LINE",
"175 739 LINE",
"154 739 LINE",
"154 -157 LINE"
);
}
);
width = 329;
}
);
unicode = 007C;
},
{
glyphname = brokenbar;
lastChange = "2017-10-03 11:02:38 +0000";
layers = (
{
layerId = "F333AEC5-BB61-4D5E-9EDD-6124322D28F2";
paths = (
{
closed = 1;
nodes = (
"211 -157 LINE",
"211 131 LINE",
"131 131 LINE",
"131 -157 LINE"
);
},
{
closed = 1;
nodes = (
"211 462 LINE",
"211 739 LINE",
"131 739 LINE",
"131 462 LINE"
);
}
);
width = 342;
},
{
layerId = "51C2DFEF-3776-4D13-9284-96485B799B57";
width = 600;
},
{
layerId = "0B2E441B-685E-400D-9B9B-E078DEED62EF";
width = 600;
}
);
unicode = 00A6;
},
{
glyphname = dagger;
lastChange = "2017-10-03 17:02:01 +0000";
layers = (
{
layerId = "F333AEC5-BB61-4D5E-9EDD-6124322D28F2";
paths = (
{
closed = 1;
nodes = (
"270 0 LINE",
"257 540 LINE",
"270 694 LINE",
"186 694 LINE",
"194 540 LINE",
"186 0 LINE"
);
},
{
closed = 1;
nodes = (
"223 512 LINE",
"223 568 LINE",
"74 575 LINE",
"74 505 LINE"
);
},
{
closed = 1;
nodes = (
"384 575 LINE",
"231 568 LINE",
"231 512 LINE",
"384 505 LINE"
);
}
);
width = 458;
},
{
layerId = "51C2DFEF-3776-4D13-9284-96485B799B57";
width = 600;
},
{
layerId = "0B2E441B-685E-400D-9B9B-E078DEED62EF";
paths = (
{
closed = 1;
nodes = (
"256 0 LINE",
"253 540 LINE",
"256 694 LINE",
"234 694 LINE",
"236 540 LINE",
"234 0 LINE"
);
},
{
closed = 1;
nodes = (
"240 532 LINE",
"240 548 LINE",
"91 550 LINE",
"91 531 LINE"
);
},
{
closed = 1;
nodes = (
"401 550 LINE",
"248 548 LINE",
"248 532 LINE",
"401 531 LINE"
);
}
);
width = 492;
}
);
unicode = 2020;
},
{
glyphname = literSign;
lastChange = "2017-10-03 11:02:39 +0000";
layers = (
{
layerId = "F333AEC5-BB61-4D5E-9EDD-6124322D28F2";
paths = (
{
closed = 1;
nodes = (
"345 -10 OFFCURVE",
"379 -1 OFFCURVE",
"405 15 CURVE",
"391 71 LINE",
"373 61 OFFCURVE",
"349 55 OFFCURVE",
"331 55 CURVE SMOOTH",
"290 55 OFFCURVE",
"257 87 OFFCURVE",
"257 135 CURVE SMOOTH",
"257 554 LINE SMOOTH",
"257 633 OFFCURVE",
"275 679 OFFCURVE",
"301 679 CURVE SMOOTH",
"321 679 OFFCURVE",
"335 654 OFFCURVE",
"335 610 CURVE SMOOTH",
"335 499 OFFCURVE",
"247 364 OFFCURVE",
"66 135 CURVE",
"112 97 LINE",
"330 369 OFFCURVE",
"415 510 OFFCURVE",
"415 622 CURVE SMOOTH",
"415 700 OFFCURVE",
"374 749 OFFCURVE",
"308 749 CURVE SMOOTH",
"225 749 OFFCURVE",
"177 673 OFFCURVE",
"177 544 CURVE SMOOTH",
"177 117 LINE SMOOTH",
"177 41 OFFCURVE",
"237 -10 OFFCURVE",
"313 -10 CURVE SMOOTH"
);
}
);
width = 503;
},
{
layerId = "51C2DFEF-3776-4D13-9284-96485B799B57";
width = 600;
},
{
layerId = "0B2E441B-685E-400D-9B9B-E078DEED62EF";
width = 600;
}
);
unicode = 2113;
},
{
glyphname = daggerdbl;
lastChange = "2017-10-03 17:32:11 +0000";
layers = (
{
layerId = "F333AEC5-BB61-4D5E-9EDD-6124322D28F2";
paths = (
{
closed = 1;
nodes = (
"284 0 LINE",
"272 155 LINE",
"280 346 LINE",
"272 526 LINE",
"284 694 LINE",
"201 694 LINE",
"209 526 LINE",
"201 346 LINE",
"209 155 LINE",
"201 0 LINE"
);
},
{
closed = 1;
nodes = (
"237 126 LINE",
"237 182 LINE",
"88 189 LINE",
"88 119 LINE"
);
},
{
closed = 1;
nodes = (
"398 189 LINE",
"246 182 LINE",
"246 126 LINE",
"398 119 LINE"
);
},
{
closed = 1;
nodes = (
"237 512 LINE",
"237 568 LINE",
"88 575 LINE",
"88 505 LINE"
);
},
{
closed = 1;
nodes = (
"398 575 LINE",
"246 568 LINE",
"246 512 LINE",
"398 505 LINE"
);
}
);
width = 486;
},
{
layerId = "51C2DFEF-3776-4D13-9284-96485B799B57";
width = 600;
},
{
layerId = "0B2E441B-685E-400D-9B9B-E078DEED62EF";
paths = (
{
closed = 1;
nodes = (
"265 0 LINE",
"262 155 LINE",
"265 346 LINE",
"262 526 LINE",
"265 694 LINE",
"244 694 LINE",
"246 526 LINE",
"243 346 LINE",
"246 155 LINE",
"244 0 LINE"
);
},
{
closed = 1;
nodes = (
"249 146 LINE",
"249 162 LINE",
"100 164 LINE",
"100 145 LINE"
);
},
{
closed = 1;
nodes = (
"410 164 LINE",
"258 162 LINE",
"258 146 LINE",
"410 145 LINE"
);
},
{
closed = 1;
nodes = (
"249 532 LINE",
"249 548 LINE",
"100 550 LINE",
"100 531 LINE"
);
},
{
closed = 1;
nodes = (
"410 550 LINE",
"258 548 LINE",
"258 532 LINE",
"410 531 LINE"
);
}
);
width = 510;
}
);
unicode = 2021;
},
{
glyphname = estimated;
lastChange = "2017-10-03 11:02:38 +0000";
layers = (
{
layerId = "F333AEC5-BB61-4D5E-9EDD-6124322D28F2";
paths = (
{
closed = 1;
nodes = (
"569 -10 OFFCURVE",
"693 42 OFFCURVE",
"765 119 CURVE",
"699 119 LINE",
"627 62 OFFCURVE",
"535 36 OFFCURVE",
"446 36 CURVE SMOOTH",
"324 36 OFFCURVE",
"250 84 OFFCURVE",
"203 145 CURVE",
"203 315 LINE",
"786 315 LINE",
"786 545 OFFCURVE",
"669 704 OFFCURVE",
"441 704 CURVE SMOOTH",
"210 704 OFFCURVE",
"92 541 OFFCURVE",
"92 339 CURVE SMOOTH",
"92 123 OFFCURVE",
"228 -10 OFFCURVE",
"438 -10 CURVE SMOOTH"
);
},
{
closed = 1;
nodes = (
"203 535 LINE",
"249 619 OFFCURVE",
"324 662 OFFCURVE",
"438 662 CURVE SMOOTH",
"552 662 OFFCURVE",
"626 619 OFFCURVE",
"672 535 CURVE",
"672 358 LINE",
"203 358 LINE"
);
}
);
width = 870;
},
{
layerId = "51C2DFEF-3776-4D13-9284-96485B799B57";
width = 600;
},
{
layerId = "0B2E441B-685E-400D-9B9B-E078DEED62EF";
width = 600;
}
);
unicode = 212E;
},
{
glyphname = asciicircum;
lastChange = "2017-10-03 11:02:39 +0000";
layers = (
{
layerId = "F333AEC5-BB61-4D5E-9EDD-6124322D28F2";
paths = (
{
closed = 1;
nodes = (
"269 616 LINE",
"260 616 LINE",
"393 466 LINE",
"451 518 LINE",
"295 694 LINE",
"248 694 LINE",
"81 510 LINE",
"131 465 LINE"
);
}
);
width = 535;
},
{
layerId = "51C2DFEF-3776-4D13-9284-96485B799B57";
width = 600;
},
{
layerId = "0B2E441B-685E-400D-9B9B-E078DEED62EF";
width = 600;
}
);
unicode = 005E;
},
{
glyphname = blank;
lastChange = "2017-10-03 11:02:39 +0000";
layers = (
{
layerId = "F333AEC5-BB61-4D5E-9EDD-6124322D28F2";
paths = (
{
closed = 1;
nodes = (
"697 0 LINE",
"697 166 LINE",
"624 166 LINE",
"624 73 LINE",
"204 73 LINE",
"204 166 LINE",
"131 166 LINE",
"131 0 LINE"
);
}
);
width = 828;
},
{
layerId = "51C2DFEF-3776-4D13-9284-96485B799B57";
width = 600;
},
{
layerId = "0B2E441B-685E-400D-9B9B-E078DEED62EF";
width = 600;
}
);
note = uni2423;
unicode = 2423;
},
{
glyphname = caroncomb.alt;
lastChange = "2017-10-08 14:35:14 +0000";
layers = (
{
anchors = (
{
name = _topright;
position = "{120, 482}";
}
);
layerId = "F333AEC5-BB61-4D5E-9EDD-6124322D28F2";
paths = (
{
closed = 1;
nodes = (
"173 741 LINE",
"99 749 LINE",
"79 558 LINE",
"132 553 LINE"
);
}
);
width = 233;
},
{
layerId = "51C2DFEF-3776-4D13-9284-96485B799B57";
width = 600;
},
{
anchors = (
{
name = _topright;
position = "{117, 480}";
}
);
layerId = "0B2E441B-685E-400D-9B9B-E078DEED62EF";
paths = (
{
closed = 1;
nodes = (
"179 744 LINE",
"159 749 LINE",
"123 571 LINE",
"132 569 LINE"
);
}
);
width = 227;
}
);
},
{
glyphname = ringcomb;
lastChange = "2017-10-07 08:08:18 +0000";
layers = (
{
anchors = (
{
name = _top;
position = "{173, 482}";
},
{
name = top;
position = "{176, 739}";
}
);
layerId = "F333AEC5-BB61-4D5E-9EDD-6124322D28F2";
paths = (
{
closed = 1;
nodes = (
"235 555 OFFCURVE",
"277 597 OFFCURVE",
"277 659 CURVE SMOOTH",
"277 721 OFFCURVE",
"235 763 OFFCURVE",
"173 763 CURVE SMOOTH",
"111 763 OFFCURVE",
"69 721 OFFCURVE",
"69 659 CURVE SMOOTH",
"69 597 OFFCURVE",
"111 555 OFFCURVE",
"173 555 CURVE SMOOTH"
);
},
{
closed = 1;
nodes = (
"145 611 OFFCURVE",
"125 631 OFFCURVE",
"125 661 CURVE SMOOTH",
"125 691 OFFCURVE",
"145 711 OFFCURVE",
"175 711 CURVE SMOOTH",
"205 711 OFFCURVE",
"225 691 OFFCURVE",
"225 661 CURVE SMOOTH",
"225 631 OFFCURVE",
"205 611 OFFCURVE",
"175 611 CURVE SMOOTH"
);
}
);
width = 346;
},
{
layerId = "51C2DFEF-3776-4D13-9284-96485B799B57";
width = 600;
},
{
anchors = (
{
name = _top;
position = "{175, 480}";
},
{
name = top;
position = "{175, 745}";
}
);
layerId = "0B2E441B-685E-400D-9B9B-E078DEED62EF";
paths = (
{
closed = 1;
nodes = (
"226 574 OFFCURVE",
"261 608 OFFCURVE",
"261 659 CURVE SMOOTH",
"261 711 OFFCURVE",
"226 745 OFFCURVE",
"174 745 CURVE SMOOTH",
"122 745 OFFCURVE",
"88 711 OFFCURVE",
"88 659 CURVE SMOOTH",
"88 608 OFFCURVE",
"122 574 OFFCURVE",
"174 574 CURVE SMOOTH"
);
},
{
closed = 1;
nodes = (
"133 588 OFFCURVE",
"105 616 OFFCURVE",
"105 659 CURVE SMOOTH",
"105 702 OFFCURVE",
"133 731 OFFCURVE",
"174 731 CURVE SMOOTH",
"216 731 OFFCURVE",
"244 702 OFFCURVE",
"244 659 CURVE SMOOTH",
"244 616 OFFCURVE",
"216 588 OFFCURVE",
"174 588 CURVE SMOOTH"
);
}
);
width = 349;
}
);
unicode = 030A;
},
{
glyphname = tildecomb;
lastChange = "2017-10-07 08:08:29 +0000";
layers = (
{
anchors = (
{
name = _top;
position = "{235, 482}";
},
{
name = top;
position = "{235, 669}";
}
);
layerId = "F333AEC5-BB61-4D5E-9EDD-6124322D28F2";
paths = (
{
closed = 1;
nodes = (
"127 619 OFFCURVE",
"151 643 OFFCURVE",
"175 643 CURVE SMOOTH",
"214 643 OFFCURVE",
"237 582 OFFCURVE",
"295 582 CURVE SMOOTH",
"344 582 OFFCURVE",
"386 626 OFFCURVE",
"406 700 CURVE",
"353 709 LINE",
"343 668 OFFCURVE",
"325 648 OFFCURVE",
"301 648 CURVE SMOOTH",
"258 648 OFFCURVE",
"236 710 OFFCURVE",
"180 710 CURVE SMOOTH",
"131 710 OFFCURVE",
"84 663 OFFCURVE",
"64 591 CURVE",
"117 582 LINE"
);
}
);
width = 470;
},
{
layerId = "51C2DFEF-3776-4D13-9284-96485B799B57";
width = 600;
},
{
anchors = (
{
name = _top;
position = "{256, 480}";
},
{
name = top;
position = "{256, 674}";
}
);
layerId = "0B2E441B-685E-400D-9B9B-E078DEED62EF";
paths = (
{
closed = 1;
nodes = (
"128 672 OFFCURVE",
"162 695 OFFCURVE",
"190 695 CURVE SMOOTH",
"245 695 OFFCURVE",
"262 607 OFFCURVE",
"322 607 CURVE SMOOTH",
"357 607 OFFCURVE",
"396 635 OFFCURVE",
"416 704 CURVE",
"406 709 LINE",
"389 650 OFFCURVE",
"356 626 OFFCURVE",
"327 626 CURVE SMOOTH",
"270 626 OFFCURVE",
"254 714 OFFCURVE",
"193 714 CURVE SMOOTH",
"159 714 OFFCURVE",
"118 686 OFFCURVE",
"96 613 CURVE",
"106 608 LINE"
);
}
);
width = 513;
}
);
unicode = 0303;
},
{
glyphname = hookabovecomb;
lastChange = "2017-10-07 08:08:38 +0000";
layers = (
{
anchors = (
{
name = _top;
position = "{143, 482}";
},
{
name = top;
position = "{135, 709}";
}
);
layerId = "F333AEC5-BB61-4D5E-9EDD-6124322D28F2";
paths = (
{
closed = 1;
nodes = (
"209 584 OFFCURVE",
"248 636 OFFCURVE",
"248 688 CURVE SMOOTH",
"248 739 OFFCURVE",
"210 772 OFFCURVE",
"152 772 CURVE SMOOTH",
"119 772 OFFCURVE",
"82 761 OFFCURVE",
"40 740 CURVE",
"59 686 LINE",
"87 700 OFFCURVE",
"115 709 OFFCURVE",
"135 709 CURVE SMOOTH",
"162 709 OFFCURVE",
"181 693 OFFCURVE",
"181 669 CURVE SMOOTH",
"181 642 OFFCURVE",
"157 611 OFFCURVE",
"121 591 CURVE",
"136 549 LINE"
);
}
);
width = 309;
},
{
layerId = "51C2DFEF-3776-4D13-9284-96485B799B57";
width = 600;
},
{
anchors = (
{
name = _top;
position = "{164, 480}";
},
{
name = top;
position = "{164, 762}";
}
);
layerId = "0B2E441B-685E-400D-9B9B-E078DEED62EF";
paths = (
{
closed = 1;
nodes = (
"208 584 OFFCURVE",
"245 631 OFFCURVE",
"245 678 CURVE SMOOTH",
"245 722 OFFCURVE",
"212 754 OFFCURVE",
"159 754 CURVE SMOOTH",
"130 754 OFFCURVE",
"97 742 OFFCURVE",
"65 722 CURVE",
"72 711 LINE",
"100 727 OFFCURVE",
"132 737 OFFCURVE",
"158 737 CURVE SMOOTH",
"197 737 OFFCURVE",
"225 710 OFFCURVE",
"225 673 CURVE SMOOTH",
"225 634 OFFCURVE",
"194 590 OFFCURVE",
"147 565 CURVE",
"151 555 LINE"
);
}
);
width = 346;
}
);
unicode = 0309;
},
{
glyphname = cedillacomb;
lastChange = "2017-10-08 09:47:42 +0000";
layers = (
{
anchors = (
{
name = _bottom;
position = "{201, 0}";
},
{
name = bottom;
position = "{291, -230}";
}
);
associatedMasterId = "F333AEC5-BB61-4D5E-9EDD-6124322D28F2";
layerId = "8267F91D-1D2D-4BD0-A3F6-1A108ACC4797";
name = "Aug 10 17, 20:24";
paths = (
{
closed = 1;
nodes = (
"232 -254 OFFCURVE",
"286 -201 OFFCURVE",
"286 -124 CURVE SMOOTH",
"286 -73 OFFCURVE",
"262 -22 OFFCURVE",
"226 7 CURVE",
"163 7 LINE",
"196 -23 OFFCURVE",
"218 -67 OFFCURVE",
"218 -107 CURVE SMOOTH",
"218 -155 OFFCURVE",
"186 -187 OFFCURVE",
"134 -187 CURVE SMOOTH",
"107 -187 OFFCURVE",
"72 -178 OFFCURVE",
"50 -165 CURVE",
"35 -227 LINE",
"64 -243 OFFCURVE",
"112 -254 OFFCURVE",
"150 -254 CURVE SMOOTH"
);
}
);
width = 353;
},
{
anchors = (
{
name = _bottom;
position = "{182, 0}";
},
{
name = bottom;
position = "{291, -230}";
}
);
layerId = "F333AEC5-BB61-4D5E-9EDD-6124322D28F2";
paths = (
{
closed = 1;
nodes = (
"258 -229 OFFCURVE",
"310 -191 OFFCURVE",
"310 -132 CURVE SMOOTH",
"310 -81 OFFCURVE",
"271 -51 OFFCURVE",
"196 -45 CURVE",
"207 5 LINE",
"152 5 LINE",
"130 -89 LINE",
"204 -94 OFFCURVE",
"239 -111 OFFCURVE",
"239 -142 CURVE SMOOTH",
"239 -164 OFFCURVE",
"221 -174 OFFCURVE",
"184 -174 CURVE SMOOTH",
"154 -174 OFFCURVE",
"125 -168 OFFCURVE",
"101 -155 CURVE",
"84 -209 LINE",
"110 -222 OFFCURVE",
"143 -229 OFFCURVE",
"178 -229 CURVE SMOOTH"
);
}
);
width = 353;
},
{
layerId = "51C2DFEF-3776-4D13-9284-96485B799B57";
width = 600;
},
{
anchors = (
{
name = _bottom;
position = "{145, 0}";
},
{
name = bottom;
position = "{271, -230}";
}
);
layerId = "0B2E441B-685E-400D-9B9B-E078DEED62EF";
paths = (
{
closed = 1;
nodes = (
"222 -224 OFFCURVE",
"265 -190 OFFCURVE",
"265 -140 CURVE SMOOTH",
"265 -87 OFFCURVE",
"215 -65 OFFCURVE",
"141 -58 CURVE",
"159 8 LINE",
"144 8 LINE",
"121 -72 LINE",
"199 -76 OFFCURVE",
"246 -92 OFFCURVE",
"246 -142 CURVE SMOOTH",
"246 -181 OFFCURVE",
"216 -207 OFFCURVE",
"160 -207 CURVE SMOOTH",
"132 -207 OFFCURVE",
"105 -200 OFFCURVE",
"80 -190 CURVE",
"74 -206 LINE",
"101 -216 OFFCURVE",
"128 -224 OFFCURVE",
"159 -224 CURVE SMOOTH"
);
}
);
width = 363;
}
);
unicode = 0327;
},
